Mono16Tight.sfdir
StartChar: exclam
Encoding: 1 33 56
Width: 896
VWidth: 0
Flags: W
HStem: 0 256<320 576> 1388 20G<374 522>
VStem: 320 256<0 256> 384 128<512 1408>
LayerCount: 5
Back
Fore
SplineSet
512 512 m 1xd0
 384 512 l 1
 374 1408 l 1
 522 1408 l 1
 512 512 l 1xd0
EndSplineSet
Refer: 68 46 N 1 0 0 1 64 0 2
Layer: 2
Layer: 3
Layer: 4
EndChar
StartChar: quotedbl
Encoding: 2 34 57
Width: 896
VWidth: 0
Flags: W
HStem: 1024 640<256 384 640 768>
VStem: 256 128<1024 1664> 640 128<1024 1664>
LayerCount: 5
Back
Fore
SplineSet
256 1664 m 1
 384 1664 l 1
 384 1024 l 1
 256 1024 l 1
 256 1664 l 1
640 1664 m 5
 768 1664 l 5
 768 1024 l 5
 640 1024 l 5
 640 1664 l 5
EndSplineSet
Layer: 2
Layer: 3
Layer: 4
EndChar
StartChar: dollar
Encoding: 4 36 59
Width: 896
VWidth: 0
Flags: W
HStem: 1516 20G<384 512>
VStem: 24 128<886.324 1184.95> 384 128<-128 -9.52427 107 635 773 1299 1414.48 1536> 768 128<228.079 519.903>
LayerCount: 5
Back
Fore
SplineSet
512 107 m 1
 691 128 768 252 768 375 c 4
 768 537 648 613 512 635 c 1
 512 107 l 1
384 1300 m 1
 231 1277 152 1163 152 1036 c 0
 152 883 254 799 384 773 c 1
 384 1300 l 1
384 1536 m 1
 512 1536 l 1
 512 1420 l 1
 624 1408 760 1373 866 1343 c 1
 866 1218 l 1
 760 1249 623 1286 512 1299 c 1
 512 755 l 1
 717 727 896 612 896 375 c 4
 896 204 776 10 512 -14 c 1
 512 -128 l 1
 384 -128 l 1
 384 -13 l 1
 260 -4 117 26 0 54 c 1
 0 178 l 1
 116 150 261 117 384 107 c 1
 384 652 l 1
 187 683 24 810 24 1036 c 0
 24 1209 141 1395 384 1421 c 1
 384 1536 l 1
EndSplineSet
Layer: 2
Layer: 3
Layer: 4
EndChar
StartChar: percent
Encoding: 5 37 60
Width: 896
VWidth: 0
Flags: W
HStem: -16 120<545.735 734.265> 408 120<545.735 734.265> 880 120<161.735 350.265> 1304 120<161.735 350.265>
VStem: 0 128<1031.74 1272.26> 384 128<135.736 376.264 1031.74 1272.26> 768 128<135.736 376.264>
CounterMasks: 1 0e
LayerCount: 5
Back
SplineSet
0 256 m 5
 1152 1152 l 1029
EndSplineSet
Fore
SplineSet
0 434 m 1
 896 1130 l 1
 896 974 l 1
 0 278 l 1
 0 434 l 1
640 528 m 0
 792 528 896 408 896 256 c 0
 896 104 792 -16 640 -16 c 0
 488 -16 384 104 384 256 c 0
 384 408 488 528 640 528 c 0
640 408 m 0
 565 408 512 354 512 256 c 0
 512 158 565 104 640 104 c 0
 715 104 768 158 768 256 c 0
 768 354 715 408 640 408 c 0
256 1424 m 0
 408 1424 512 1304 512 1152 c 4
 512 1000 408 880 256 880 c 0
 104 880 0 1000 0 1152 c 0
 0 1304 104 1424 256 1424 c 0
256 1304 m 0
 181 1304 128 1250 128 1152 c 0
 128 1054 181 1000 256 1000 c 0
 331 1000 384 1054 384 1152 c 4
 384 1250 331 1304 256 1304 c 0
EndSplineSet
Layer: 2
SplineSet
128 1408 m 5
 1024 1408 l 5
 1024 0 l 5
 128 0 l 5
 128 1408 l 5
EndSplineSet
Layer: 3
SplineSet
768 468 m 4
 890.525 468 976 381.08828125 976 256 c 4
 976 130.91171875 890.525 44 768 44 c 4
 645.475 44 560 130.91171875 560 256 c 4
 560 381.08828125 645.475 468 768 468 c 4
128 434 m 1
 1024 1130 l 1
 1024 974 l 1
 128 278 l 1
 128 434 l 1
EndSplineSet
Layer: 4
EndChar
StartChar: ampersand
Encoding: 38 38 61
Width: 896
VWidth: 0
Flags: W
HStem: -16 120<268.878 635.991> 1308 120<314.419 583.27>
VStem: 0 128<238.984 554.238> 111 128<949.434 1232.38> 657 128<954.013 1233.89> 768 128<307.231 640>
LayerCount: 5
Back
SplineSet
453.279296875 677.549804688 m 5
 409.115234375 662.254882812 368.334960938 643.155273438 334.971679688 618.141601562 c 4
 300.837890625 592.549804688 272.190429688 559.077148438 253.184570312 521.161132812 c 4
 234.083007812 483.052734375 223.965820312 439.48046875 224 396.044921875 c 4
 224.032226562 354.658203125 233.220703125 313.138671875 250.583984375 276.248046875 c 4
 267.885742188 239.486328125 293.799804688 206.671875 324.961914062 181.303710938 c 4
 357.825195312 154.55078125 397.671875 134.900390625 440.44921875 122.40234375 c 4
 483.568359375 109.805664062 529.453125 103.999023438 575.999023438 104 c 4
 622.4765625 104.000976562 667.873046875 109.849609375 709.72265625 123.0859375 c 4
 749.108398438 135.54296875 785.659179688 155.337890625 814.63671875 181.625 c 5
 453.279296875 677.549804688 l 5
504.91796875 819.422851562 m 5
 522.211914062 824.422851562 539.291015625 829.444335938 555.314453125 834.579101562 c 4
 600.548828125 849.076171875 641.921875 866.27734375 676.263671875 889.698242188 c 4
 710.34765625 912.942382812 739.043945312 943.860351562 757.474609375 979.296875 c 4
 775.490234375 1013.93652344 784.956054688 1054.41992188 785 1095.06152344 c 4
 785.063476562 1153.3359375 764.405273438 1210.59765625 728.549804688 1247.73632812 c 4
 709.663085938 1267.29980469 685.809570312 1282.68652344 659.885742188 1292.67773438 c 4
 633.682617188 1302.77636719 604.89453125 1307.87402344 575.703125 1308.00097656 c 4
 546.731445312 1308.12695312 518.203125 1303.34375 492.284179688 1293.57421875 c 4
 466.65234375 1283.91210938 443.021484375 1268.83886719 424.30078125 1249.58300781 c 4
 405.969726562 1230.72753906 391.163085938 1206.60351562 381.541015625 1180.046875 c 4
 371.829101562 1153.24316406 366.9921875 1123.796875 367 1094.015625 c 4
 367.008789062 1061.75292969 372.939453125 1029.60351562 384.500976562 1000.4140625 c 4
 395.780273438 971.932617188 414.612304688 943.359375 436.84765625 912.842773438 c 6
 504.91796875 819.422851562 l 5
884.315429688 298.739257812 m 5
 894.377929688 337.779296875 896 382.801757812 896 431 c 6
 896 640 l 5
 1024 640 l 5
 1024 431 l 6
 1024 378.043945312 1023.16503906 319.740234375 1005.91113281 260.260742188 c 4
 997.805664062 232.3203125 986.073242188 204.905273438 971.311523438 179.345703125 c 5
 1101.99255796 0 l 5
 946.978135622 0 l 5
 887.533203125 81.58203125 l 5
 846.491210938 48.484375 799.25390625 24.7578125 750.638671875 9.3818359375 c 4
 693.08984375 -8.8193359375 633.775390625 -15.9990234375 576.000976562 -16 c 4
 518.18359375 -16.001953125 459.423828125 -8.83203125 402.3671875 7.8369140625 c 4
 344.96875 24.6064453125 289.110351562 51.5625 241.038085938 90.6962890625 c 4
 195.329101562 127.90625 158.385742188 174.880859375 133.4765625 227.8046875 c 4
 108.62890625 280.599609375 96.0458984375 338.220703125 96 395.956054688 c 4
 95.9521484375 456.623046875 109.790039062 517.239257812 137.338867188 572.198242188 c 4
 164.983398438 627.34765625 205.869140625 675.001953125 255.028320312 711.858398438 c 4
 293.938476562 741.03125 336.668945312 762.48828125 379.217773438 779.19140625 c 5
 331.15234375 845.15625 l 6
 307.387695312 877.7734375 281.987304688 914.5 264.504882812 958.64453125 c 4
 247.302734375 1002.08007812 239.012695312 1048.1328125 239 1093.98535156 c 4
 238.98828125 1135.79980469 245.663085938 1178.12890625 260.341796875 1218.640625 c 4
 275.108398438 1259.39941406 298.122070312 1297.93652344 329.69921875 1330.41699219 c 4
 362.01171875 1363.65332031 401.662109375 1388.75195312 444.536132812 1404.91210938 c 4
 487.123046875 1420.96386719 532.059570312 1428.19238281 576.296875 1428 c 4
 620.853515625 1427.80566406 665.940429688 1420.08789062 708.551757812 1403.66601562 c 4
 751.444335938 1387.13574219 791.114257812 1361.7578125 823.450195312 1328.26269531 c 4
 885.545898438 1263.94335938 913.090820312 1177.69042969 913 1094.93847656 c 4
 912.936523438 1037.30566406 899.85546875 979.250976562 872.525390625 926.703125 c 4
 844.104492188 872.060546875 801.361328125 826.62109375 751.5625 792.658203125 c 4
 702.01953125 758.870117188 648.177734375 737.522460938 596.720703125 721.03125 c 4
 591.357421875 719.3125 585.776367188 717.5703125 580.346679688 715.905273438 c 5
 884.315429688 298.739257812 l 5
EndSplineSet
Fore
SplineSet
756 299 m 1xd8
 767 338 768 383 768 431 c 2
 768 640 l 1
 896 640 l 1
 896 431 l 2
 896 148 742 -16 448 -16 c 0
 163 -16 0 177 0 396 c 0xe4
 0 578 107 722 251 779 c 1
 203 845 l 2
 158 906 111 990 111 1094 c 0
 111 1293 255 1428 448 1428 c 0
 646 1428 785 1285 785 1095 c 0
 785 957 711 853 624 793 c 0
 566 754 511 735 452 716 c 1
 756 299 l 1xd8
377 819 m 1
 441 836 501 858 548 890 c 0
 609 931 657 999 657 1095 c 0
 657 1219 576 1308 448 1308 c 0
 323 1308 239 1223 239 1094 c 0xd8
 239 1013 271 965 309 913 c 2
 377 819 l 1
325 678 m 1
 217 638 128 544 128 396 c 0xe0
 128 235 243 104 448 104 c 0
 548 104 632 132 687 182 c 1
 325 678 l 1
EndSplineSet
Layer: 2
SplineSet
576 1368 m 0
 736.81350708 1368 849 1256.08010864 849 1095 c 0
 849 933.919891357 736.81350708 822 576 822 c 0
 415.18649292 822 303 933.919891357 303 1095 c 0
 303 1256.08010864 415.18649292 1368 576 1368 c 0
  Spiro
    576 1368 o
    718.129 1333.09 o
    814.026 1237.25 o
    849 1095 o
    814.026 952.752 o
    718.129 856.915 o
    576 822 o
    433.871 856.915 o
    337.974 952.752 o
    303 1095 o
    337.974 1237.25 o
    433.871 1333.09 o
    0 0 z
  EndSpiro
576 748 m 4
 821.049538353 748 992 603.693359375 992 396 c 0
 992 188.306640625 821.049538353 44 576 44 c 0
 330.950461647 44 160 188.306640625 160 396 c 0
 160 603.693359375 330.950461647 748 576 748 c 4
  Spiro
    576 748 o
    792.578 702.982 o
    938.707 579.411 o
    992 396 o
    938.707 212.589 o
    792.578 89.018 o
    576 44 o
    359.422 89.018 o
    213.293 212.589 o
    160 396 o
    213.293 579.411 o
    359.422 702.982 o
    0 0 z
  EndSpiro
EndSplineSet
Layer: 3
SplineSet
1152 -175 m 1
 384 879 l 2
 360.999522274 910.565759795 338.883513635 943.216565198 324.502508724 979.529178224 c 0
 310.121503813 1015.84179125 303.010474278 1054.94338651 303 1094 c 0
 302.990399433 1129.79870878 308.746020217 1165.68588502 320.941083894 1199.34339628 c 0
 333.136147571 1233.00090754 352.046011801 1264.33200212 377 1290 c 0
 402.516231913 1316.2463291 434.157544705 1336.33213586 468.410513011 1349.24267592 c 0
 502.663481317 1362.15321598 539.395047794 1368.15923721 576 1368 c 0
 612.874226985 1367.8395914 649.81124465 1361.4324047 684.219004872 1348.17192269 c 0
 718.626765095 1334.91144068 750.388250983 1314.52871386 776 1288 c 0
 824.976059381 1237.27047488 849.077215446 1165.5133544 849 1095 c 0
 848.946192428 1045.86277919 837.673129589 996.593560983 815 953 c 0
 791.574632064 907.960112514 755.85497708 869.782265266 713.912869037 841.178088987 c 0
 671.970760994 812.573912707 624.363283272 793.298944667 576.017880437 777.805031267 c 0
 527.672477602 762.311117867 478.27248261 750.169541002 430.300505276 733.555428978 c 0
 382.328527941 716.941316955 335.618694677 695.454243883 295 665 c 0
 253.353677333 633.77528248 218.587163609 593.212533342 195.261778413 546.679474326 c 0
 171.936393216 500.14641531 159.959000452 448.051873117 160 396 c 0
 160.039037594 346.438968203 170.924366158 296.868912844 192.030060925 252.026443631 c 0
 213.135755692 207.183974418 244.56461151 167.289268262 283 136 c 0
 323.46776169 103.056228616 371.320683023 79.7535546738 421.40853775 65.1200787325 c 0
 471.496392476 50.4866027913 523.818280905 43.9987727462 576 44 c 0
 628.125985829 44.001225943 680.481161795 50.5148324934 730.180585799 66.2337909157 c 0
 779.880009802 81.952749338 826.871933111 107.507279296 864.538572457 143.539801835 c 0
 902.205211802 179.572324369 929.63040288 225.944690768 944.153822553 276.006539322 c 0
 958.677242227 326.068387876 959.999999998 378.874014161 960 431 c 2
 960 640 l 1025
  Spiro
    1152 -175 {
    384 879 ]
    303 1094 o
    377 1290 o
    576 1368 o
    776 1288 o
    849 1095 o
    815 953 o
    295 665 o
    160 396 o
    283 136 o
    576 44 o
    960 431 [
    960 640 v
    0 0 z
  EndSpiro
EndSplineSet
Layer: 4
EndChar
StartChar: parenleft
Encoding: 8 40 63
Width: 896
VWidth: 0
Flags: W
VStem: 240 128<363.874 1042.64>
LayerCount: 5
Back
SplineSet
808 1818 m 0
 492.214405904 1540.44151824 303.716529987 1123.42736814 304 703 c 0
 304.283020518 283.239298424 492.715143281 -132.881639345 808 -410 c 1024
  Spiro
    808 1818 {
    304 703 o
    808 -410 o
    0 0 z
  EndSpiro
EndSplineSet
Fore
SplineSet
740 -256 m 1
 577 -256 l 1
 363 15 240 358 240 703 c 0
 240 1049 362 1392 577 1664 c 1
 740 1664 l 1
 505 1404 368 1054 368 703 c 0
 368 352 506 3 740 -256 c 1
EndSplineSet
Layer: 2
Layer: 3
Layer: 4
EndChar
StartChar: parenright
Encoding: 41 41 64
Width: 896
VWidth: 0
Flags: W
VStem: 528 128<363.874 1042.64>
LayerCount: 5
Back
Fore
SplineSet
156 -256 m 1
 319 -256 l 1
 533 15 656 358 656 703 c 0
 656 1049 534 1392 319 1664 c 1
 156 1664 l 1
 391 1404 528 1054 528 703 c 0
 528 352 390 3 156 -256 c 1
EndSplineSet
Layer: 2
Layer: 3
Layer: 4
EndChar
StartChar: asterisk
Encoding: 10 42 65
Width: 896
VWidth: 0
Flags: W
HStem: 1388 20G<190.358 236.534 660.402 706.642>
VStem: 384 128<512 906>
LayerCount: 5
Back
Fore
SplineSet
384 906 m 1
 16 786 l 1
 -26 899 l 1
 348 1021 l 1
 116 1341 l 1
 222 1408 l 1
 448 1097 l 1
 675 1408 l 1
 781 1341 l 1
 548 1021 l 1
 922 899 l 1
 880 786 l 1
 512 906 l 1
 512 512 l 1
 384 512 l 1
 384 906 l 1
EndSplineSet
Layer: 2
Layer: 3
SplineSet
169 553 m 29
 983 1367 l 1053
169 1367 m 29
 983 553 l 1053
EndSplineSet
Layer: 4
SplineSet
512 601 m 5
 427 640 l 5
 158 906 l 1
 240 1000 l 1
 571 664 l 1
 581 664 l 1
 912 1000 l 1
 994 906 l 1
 664 581 l 1
 664 571 l 1
 994 246 l 1
 912 152 l 1
 581 488 l 1
 571 488 l 1
 240 152 l 1
 158 246 l 1
 427 512 l 5
 512 551 l 5
 512 601 l 5
601 640 m 1
 640 725 l 1
 906 994 l 1
 1000 912 l 1
 664 581 l 1
 664 571 l 1
 1000 240 l 1
 906 158 l 1
 581 488 l 1
 571 488 l 1
 246 158 l 1
 152 240 l 1
 488 571 l 1
 488 581 l 1
 152 912 l 1
 246 994 l 1
 512 725 l 1
 551 640 l 1
 601 640 l 1
640 551 m 1
 725 512 l 1
 994 246 l 1
 912 152 l 1
 581 488 l 1
 571 488 l 1
 240 152 l 1
 158 246 l 1
 488 571 l 1
 488 581 l 1
 158 906 l 1
 240 1000 l 1
 571 664 l 1
 581 664 l 1
 912 1000 l 1
 994 906 l 1
 725 640 l 1
 640 601 l 1
 640 551 l 1
EndSplineSet
Substitution2: "'ss01' Style Set 1 in Latin lookup 0-1" asterisk.alt
EndChar
StartChar: plus
Encoding: 11 43 66
Width: 896
VWidth: 0
Flags: W
HStem: 644 120<0 384 512 896>
VStem: 384 128<256 644 764 1152>
LayerCount: 5
Back
Fore
SplineSet
512 764 m 5
 896 764 l 5
 896 644 l 5
 512 644 l 5
 512 256 l 5
 384 256 l 5
 384 644 l 5
 0 644 l 5
 0 764 l 5
 384 764 l 5
 384 1152 l 5
 512 1152 l 5
 512 764 l 5
EndSplineSet
Layer: 2
Layer: 3
Layer: 4
EndChar
StartChar: comma
Encoding: 44 44 67
Width: 896
VWidth: 0
Flags: W
HStem: -384 640<256 384>
VStem: 256 128<-384 -312.32>
LayerCount: 5
Back
Fore
SplineSet
256 256 m 1
 512 256 l 1
 384 -384 l 1
 256 -384 l 1
 256 256 l 1
EndSplineSet
Layer: 2
Layer: 3
Layer: 4
EndChar
StartChar: period
Encoding: 46 46 68
Width: 896
VWidth: 0
Flags: W
HStem: 0 256<256 512>
VStem: 256 256<0 256>
LayerCount: 5
Back
Fore
SplineSet
256 256 m 1
 512 256 l 1
 512 0 l 1
 256 0 l 1
 256 256 l 1
EndSplineSet
Layer: 2
Layer: 3
Layer: 4
EndChar
StartChar: slash
Encoding: 15 47 69
Width: 896
VWidth: 0
Flags: W
LayerCount: 5
Back
SplineSet
0 -640 m 29
 1152 2048 l 1053
EndSplineSet
Fore
SplineSet
928 1664 m 1
 106 -256 l 1
 -32 -256 l 1
 790 1664 l 1
 928 1664 l 1
EndSplineSet
Layer: 2
Layer: 3
Layer: 4
EndChar
StartChar: three
Encoding: 51 51 73
Width: 896
VWidth: 0
Flags: W
HStem: -16 120<198.136 582.897> 644 120<256 572.622> 1304 120<210.751 572.119>
VStem: 652 128<849.802 1219.37> 672 128<196.54 547.944>
CounterMasks: 1 e0
LayerCount: 5
Back
SplineSet
109.998046875 91.65625 m 5
 154.001953125 204.342773438 l 5
 228.690429688 178.708984375 303.572265625 155.255859375 378.942382812 135.859375 c 4
 447.79296875 118.140625 513.63671875 103.962890625 575.9609375 104 c 4
 594.555664062 104.010742188 612.333984375 105.484375 628.907226562 108.73046875 c 4
 655.260742188 113.89453125 680.388671875 124.228515625 701.655273438 139.135742188 c 4
 723.04296875 154.127929688 742.092773438 174.764648438 756.791015625 198.794921875 c 4
 786.544921875 247.443359375 799.809570312 309.876953125 800 374.16796875 c 4
 800.202148438 442.006835938 785.69921875 507.866210938 752.766601562 557.142578125 c 4
 731.165039062 589.463867188 700.078125 614.686523438 666.4453125 627.926757812 c 4
 633.20703125 641.009765625 590.94921875 644 542 644 c 6
 384 644 l 5
 384 764 l 5
 542 764 l 5
 543 764 l 6
 589.59375 764 629.080078125 767.286132812 659.15234375 780.115234375 c 4
 689.774414062 793.177734375 718.122070312 818.137695312 737.455078125 849.8046875 c 4
 767.987304688 899.815429688 779.958007812 965.540039062 780 1034.03515625 c 4
 780.0390625 1097.51660156 769.767578125 1158.58007812 743.51953125 1207.24707031 c 4
 730.592773438 1231.21484375 713.458984375 1252.01269531 693.9453125 1267.26074219 c 4
 674.565429688 1282.40625 651.319335938 1293.16503906 626.975585938 1298.67675781 c 4
 611.098632812 1302.27148438 593.90625 1303.96582031 575.868164062 1304 c 4
 532.130859375 1304.08496094 485.017578125 1294.93847656 434.909179688 1282.88378906 c 4
 359.108398438 1264.64648438 282.633789062 1242.62402344 204.122070312 1222.18652344 c 5
 169.877929688 1337.8125 l 5
 246.135742188 1357.66308594 323.401367188 1379.94433594 403.090820312 1399.1171875 c 4
 456.07421875 1411.86328125 513.8359375 1424.12011719 576.131835938 1424 c 4
 602.431640625 1423.94921875 629.659179688 1421.51953125 657.024414062 1415.32324219 c 4
 699.987304688 1405.59570312 740.909179688 1386.78417969 775.904296875 1359.43652344 c 4
 810.767578125 1332.19140625 837.913085938 1298.16796875 857.74609375 1261.39648438 c 4
 897.017578125 1188.5859375 908.046875 1108.50292969 908 1033.96484375 c 4
 907.950195312 953.991210938 895.375976562 866.903320312 848.544921875 790.1953125 c 4
 829.484849579 758.975538726 804.621729532 730.660027665 774.797438846 707.662532559 c 5
 809.293203655 684.466984241 838.609908814 654.70703872 861.233398438 620.857421875 c 4
 911.892578125 545.059570312 928.245117188 456.4296875 928 373.833007812 c 4
 927.766601562 295.413085938 912.5390625 212.200195312 867.83203125 139.104492188 c 4
 845.297851562 102.262695312 815.34765625 68.9970703125 778.305664062 43.0302734375 c 4
 741.142578125 16.98046875 698.762695312 -0.1748046875 655.092773438 -8.7314453125 c 4
 628.2421875 -13.9912109375 601.694335938 -15.9853515625 576.0390625 -16 c 4
 493.541015625 -16.0498046875 416.458984375 1.7646484375 345.057617188 20.140625 c 4
 265.169921875 40.7001953125 186.944335938 65.248046875 109.998046875 91.65625 c 5
EndSplineSet
Fore
SplineSet
128 170 m 1xe8
 234 136 353 104 448 104 c 0
 604 104 672 223 672 374 c 0xe8
 672 491 626 593 538 628 c 0
 505 641 463 644 414 644 c 2
 256 644 l 1
 256 764 l 1
 415 764 l 2
 462 764 501 767 531 780 c 0
 615 816 652 919 652 1034 c 0
 652 1181 597 1304 448 1304 c 0
 354 1304 233 1266 128 1236 c 1
 128 1362 l 1
 232 1392 345 1424 448 1424 c 0
 672 1424 780 1248 780 1034 c 0xf0
 780 897 734 775 647 708 c 1
 743 643 801 519 800 374 c 0
 799 157 677 -16 448 -16 c 0
 344 -16 232 11 128 43 c 1
 128 170 l 1xe8
EndSplineSet
Layer: 2
SplineSet
576 1364 m 0
 522.983399173 1364.10310218 470.545829875 1353.4015328 419 1341 c 0
 341.255197591 1322.29519459 264.384529476 1300.14345166 187 1280 c 1
 0 895 l 1
 384 704 l 1
 543 704 l 2
 591.45919514 704 641.085040315 706.488073678 685.658222736 725.501884514 c 0
 730.231405157 744.51569535 767.748750754 778.639777501 793 820 c 0
 831.682058309 883.35918365 843.954259386 959.766007142 844 1034 c 0
 844.042521519 1103.00961404 833.392679198 1173.58361167 800.633107707 1234.32189542 c 0
 784.253321962 1264.6910373 762.112987411 1292.10232944 734.925190856 1313.3486439 c 0
 707.737394301 1334.59495835 675.653045359 1349.38063668 642 1357 c 0
 620.378638615 1361.89527786 598.16856231 1363.95688846 576 1364 c 0
  Spiro
    576 1364 o
    419 1341 o
    187 1280 v
    0 895 v
    384 704 v
    543 704 ]
    793 820 o
    844 1034 o
    642 1357 o
    0 0 z
  EndSpiro
807 589 m 0
 778.910630381 631.028972965 738.26006051 664.731613617 691.221753075 683.247684684 c 0
 644.18344564 701.763755751 592.551431771 704 542 704 c 2
 384 704 l 1
 0 532 l 1
 132 148 l 1
 207.817094658 121.978873323 284.37138086 97.9781972755 362 78 c 0
 432.12616862 59.9526039959 503.588770712 43.9564012775 576 44 c 0
 598.125157314 44.0133215332 620.287676128 45.7458542894 642 50 c 0
 677.012044114 56.8599905827 710.76519992 70.6043780401 739.980216028 91.0832827389 c 0
 769.195232136 111.562187438 793.695432415 138.513775504 812.311094712 168.949935267 c 0
 849.542419305 229.822254793 863.78811813 302.644790509 864 374 c 0
 864.223352011 449.217995483 848.795757664 526.462720143 807 589 c 0
  Spiro
    807 589 o
    542 704 [
    384 704 v
    0 532 v
    132 148 v
    362 78 o
    576 44 o
    642 50 o
    864 374 o
    0 0 z
  EndSpiro
EndSplineSet
Layer: 3
SplineSet
576 1364 m 4
 553.831802792 1364 531.627683605 1361.86541564 510 1357 c 4
 476.318733698 1349.42298146 444.167348932 1334.74286822 416.927495224 1313.53368908 c 4
 389.687641517 1292.32450994 367.524237056 1264.89514465 351.170123291 1234.49149565 c 4
 318.46189576 1173.68419764 308 1103.04603999 308 1034 c 4
 308 964.953960006 318.46189576 894.315802358 351.170123291 833.508504353 c 4
 367.524237056 803.104855351 389.687641517 775.675490058 416.927495224 754.466310921 c 4
 444.167348932 733.257131784 476.318733698 718.577018541 510 711 c 4
 531.627683605 706.134584365 553.831802792 704 576 704 c 4
 598.168197208 704 620.372316395 706.134584365 642 711 c 4
 675.681266302 718.577018541 707.832651068 733.257131784 735.072504776 754.466310921 c 4
 762.312358483 775.675490059 784.475762944 803.104855351 800.829876709 833.508504353 c 4
 833.53810424 894.315802358 844 964.953960006 844 1034 c 4
 844 1103.04603999 833.53810424 1173.68419764 800.829876709 1234.49149565 c 4
 784.475762944 1264.89514465 762.312358483 1292.32450994 735.072504776 1313.53368908 c 4
 707.832651068 1334.74286822 675.681266302 1349.42298146 642 1357 c 4
 620.372316395 1361.86541564 598.168197208 1364 576 1364 c 4
  Spiro
    576 1364 o
    510 1357 o
    308 1034 o
    510 711 o
    576 704 o
    642 711 o
    844 1034 o
    642 1357 o
    0 0 z
  EndSpiro
576 704 m 4
 553.875934641 704 531.720863017 702.204566307 510 698 c 4
 474.928969672 691.211205633 441.06317059 677.63836591 411.735969344 657.242774125 c 4
 382.408768098 636.847182339 357.814620754 609.900635488 339.187230459 579.419736092 c 4
 301.932449867 518.457937301 288 445.444101148 288 374 c 5
 288 302.555898852 301.932449867 229.542062699 339.187230459 168.580263908 c 4
 357.814620754 138.099364512 382.408768098 111.152817661 411.735969344 90.7572258754 c 4
 441.06317059 70.3616340899 474.928969672 56.7887943665 510 50 c 4
 531.720863017 45.7954336926 553.875934641 44 576 44 c 4
 598.124065359 44 620.279136983 45.7954336926 642 50 c 4
 677.071030328 56.7887943665 710.93682941 70.3616340899 740.264030656 90.7572258754 c 4
 769.591231902 111.152817661 794.185379246 138.099364512 812.812769541 168.580263908 c 4
 850.067550133 229.542062699 864 302.555898852 864 374 c 4
 864 445.444101148 850.067550133 518.457937301 812.812769541 579.419736092 c 4
 794.185379246 609.900635488 769.591231902 636.847182339 740.264030656 657.242774125 c 4
 710.93682941 677.63836591 677.071030328 691.211205634 642 698 c 4
 620.279136983 702.204566307 598.124065359 704 576 704 c 4
  Spiro
    576 704 o
    510 698 o
    288 374 o
    510 50 o
    576 44 o
    642 50 o
    864 374 o
    642 698 o
    0 0 z
  EndSpiro
EndSplineSet
Layer: 4
Substitution2: "'locl' Localized Forms in Cyrillic lookup 5-1" three.cyrillic
Substitution2: "'ss02' Style Set 2 in Latin lookup 1-1" three.cyrillic
EndChar
StartChar: eight
Encoding: 24 56 78
Width: 896
VWidth: 0
InSpiro: 1
Flags: W
HStem: -16 120<313.047 582.953> 644 120<322.155 573.845> 1304 120<323.659 572.341>
VStem: 96 128<195.718 551.923> 116 128<847.142 1219.37> 652 128<847.142 1219.37> 672 128<195.718 551.923>
CounterMasks: 1 e0
LayerCount: 5
Back
Fore
SplineSet
448 644 m 0xf2
 292 644 224 526 224 374 c 0
 224 222 292 104 448 104 c 0
 604 104 672 222 672 374 c 0
 672 526 604 644 448 644 c 0xf2
448 1424 m 0
 672 1424 780 1248 780 1034 c 0xec
 780 898 740 777 627 707 c 1
 751 639 800 516 800 374 c 0
 800 156 677 -16 448 -16 c 0
 219 -16 96 156 96 374 c 0xf2
 96 516 145 639 269 707 c 1
 156 777 116 898 116 1034 c 0xe8
 116 1248 224 1424 448 1424 c 0
652 1034 m 0
 652 1181 598 1304 448 1304 c 0
 298 1304 244 1181 244 1034 c 0
 244 887 298 764 448 764 c 0
 598 764 652 887 652 1034 c 0
EndSplineSet
Layer: 2
SplineSet
576 1492 m 0
 736.81350708 1492 849 1380.08010864 849 1219 c 0
 849 1057.91989136 736.81350708 946 576 946 c 0
 415.18649292 946 303 1057.91989136 303 1219 c 0
 303 1380.08010864 415.18649292 1492 576 1492 c 0
  Spiro
    576 1492 o
    718.129 1457.09 o
    814.026 1361.25 o
    849 1219 o
    814.026 1076.75 o
    718.129 980.915 o
    576 946 o
    433.871 980.915 o
    337.974 1076.75 o
    303 1219 o
    337.974 1361.25 o
    433.871 1457.09 o
    0 0 z
  EndSpiro
576 1378 m 0
 736.81350708 1378 849 1266.08010864 849 1105 c 0
 849 943.919891357 736.81350708 832 576 832 c 0
 415.18649292 832 303 943.919891357 303 1105 c 0
 303 1266.08010864 415.18649292 1378 576 1378 c 0
  Spiro
    576 1378 o
    718.129 1343.09 o
    814.026 1247.25 o
    849 1105 o
    814.026 962.752 o
    718.129 866.915 o
    576 832 o
    433.871 866.915 o
    337.974 962.752 o
    303 1105 o
    337.974 1247.25 o
    433.871 1343.09 o
    0 0 z
  EndSpiro
576 620 m 4
 745.649680398 620 864 501.930930398 864 332 c 4
 864 162.069069602 745.649680398 44 576 44 c 4
 406.350319602 44 288 162.069069602 288 332 c 4
 288 501.930930398 406.350319602 620 576 620 c 4
  Spiro
    576 620 o
    725.939 583.167 o
    827.105 482.063 o
    864 332 o
    827.105 181.937 o
    725.939 80.8329 o
    576 44 o
    426.061 80.8329 o
    324.895 181.937 o
    288 332 o
    324.895 482.063 o
    426.061 583.167 o
    0 0 z
  EndSpiro
576 832 m 0
 745.649414062 832 864 713.930664062 864 544 c 0
 864 374.069335938 745.649414062 256 576 256 c 0
 406.350585938 256 288 374.069335938 288 544 c 0
 288 713.930664062 406.350585938 832 576 832 c 0
  Spiro
    576 832 o
    725.939 795.167 o
    827.105 694.063 o
    864 544 o
    827.105 393.937 o
    725.939 292.833 o
    576 256 o
    426.061 292.833 o
    324.895 393.937 o
    288 544 o
    324.895 694.063 o
    426.061 795.167 o
    0 0 z
  EndSpiro
EndSplineSet
Layer: 3
SplineSet
576 1364 m 0
 553.831802792 1364 531.627683605 1361.86541564 510 1357 c 0
 476.318733698 1349.42298146 444.167348932 1334.74286822 416.927495224 1313.53368908 c 0
 389.687641517 1292.32450994 367.524237056 1264.89514465 351.170123291 1234.49149565 c 0
 318.46189576 1173.68419764 308 1103.04603999 308 1034 c 0
 308 964.953960006 318.46189576 894.315802358 351.170123291 833.508504353 c 0
 367.524237056 803.104855351 389.687641517 775.675490058 416.927495224 754.466310921 c 0
 444.167348932 733.257131784 476.318733698 718.577018541 510 711 c 0
 531.627683605 706.134584365 553.831802792 704 576 704 c 0
 598.168197208 704 620.372316395 706.134584365 642 711 c 0
 675.681266302 718.577018541 707.832651068 733.257131784 735.072504776 754.466310921 c 0
 762.312358483 775.675490059 784.475762944 803.104855351 800.829876709 833.508504353 c 0
 833.53810424 894.315802358 844 964.953960006 844 1034 c 0
 844 1103.04603999 833.53810424 1173.68419764 800.829876709 1234.49149565 c 0
 784.475762944 1264.89514465 762.312358483 1292.32450994 735.072504776 1313.53368908 c 0
 707.832651068 1334.74286822 675.681266302 1349.42298146 642 1357 c 0
 620.372316395 1361.86541564 598.168197208 1364 576 1364 c 0
  Spiro
    576 1364 o
    510 1357 o
    308 1034 o
    510 711 o
    576 704 o
    642 711 o
    844 1034 o
    642 1357 o
    0 0 z
  EndSpiro
576 704 m 0
 553.875934641 704 531.720863017 702.204566307 510 698 c 0
 474.928969672 691.211205633 441.06317059 677.63836591 411.735969344 657.242774125 c 0
 382.408768098 636.847182339 357.814620754 609.900635488 339.187230459 579.419736092 c 0
 301.932449867 518.457937301 288 445.444101148 288 374 c 1
 288 302.555898852 301.932449867 229.542062699 339.187230459 168.580263908 c 0
 357.814620754 138.099364512 382.408768098 111.152817661 411.735969344 90.7572258754 c 0
 441.06317059 70.3616340899 474.928969672 56.7887943665 510 50 c 0
 531.720863017 45.7954336926 553.875934641 44 576 44 c 0
 598.124065359 44 620.279136983 45.7954336926 642 50 c 0
 677.071030328 56.7887943665 710.93682941 70.3616340899 740.264030656 90.7572258754 c 0
 769.591231902 111.152817661 794.185379246 138.099364512 812.812769541 168.580263908 c 0
 850.067550133 229.542062699 864 302.555898852 864 374 c 0
 864 445.444101148 850.067550133 518.457937301 812.812769541 579.419736092 c 0
 794.185379246 609.900635488 769.591231902 636.847182339 740.264030656 657.242774125 c 0
 710.93682941 677.63836591 677.071030328 691.211205634 642 698 c 0
 620.279136983 702.204566307 598.124065359 704 576 704 c 0
  Spiro
    576 704 o
    510 698 o
    288 374 o
    510 50 o
    576 44 o
    642 50 o
    864 374 o
    642 698 o
    0 0 z
  EndSpiro
EndSplineSet
Layer: 4
EndChar
StartChar: nine
Encoding: 25 57 79
Width: 896
VWidth: 0
Flags: W
HStem: -16 120<132.158 549.227> 496 120<300.095 557.463> 1304 120<300.518 563.381>
VStem: 96 128<700.253 1219.51> 640 128<202.021 621 700.891 1219.11>
LayerCount: 5
Back
Fore
SplineSet
432 1424 m 0
 590 1424 692 1341 736 1224 c 0
 761 1157 768 1087 768 993 c 2
 768 416 l 2
 768 356 768 245 707 143 c 0
 652 51 556 -16 408 -16 c 0
 315 -16 217 6 128 23 c 1
 128 146 l 1
 216 129 320 104 408 104 c 0
 504 104 559 143 596 202 c 0
 640 273 640 369 640 416 c 2
 640 621 l 1
 630 621 l 1
 575 536 510 496 412 496 c 0
 264 496 167 579 124 696 c 0
 96 773 96 858 96 960 c 0
 96 1042 96 1137 128 1224 c 0
 171 1341 274 1424 432 1424 c 0
432 1304 m 0
 245 1304 224 1147 224 960 c 0
 224 773 245 616 432 616 c 0
 619 616 640 773 640 960 c 0
 640 1147 619 1304 432 1304 c 0
EndSplineSet
Layer: 2
Layer: 3
Layer: 4
EndChar
StartChar: colon
Encoding: 58 58 80
Width: 896
VWidth: 0
Flags: W
HStem: 0 256<256 512> 768 256<256 512>
VStem: 256 256<0 256 768 1024>
LayerCount: 5
Back
Fore
SplineSet
256 256 m 1
 512 256 l 1
 512 0 l 1
 256 0 l 1
 256 256 l 1
256 1024 m 1
 512 1024 l 1
 512 768 l 1
 256 768 l 1
 256 1024 l 1
EndSplineSet
Layer: 2
Layer: 3
Layer: 4
EndChar
StartChar: less
Encoding: 60 60 82
Width: 896
VWidth: 0
Flags: W
LayerCount: 5
Back
SplineSet
136 67 m 5
 857 576 l 5
 136 1085 l 1029
EndSplineSet
Fore
SplineSet
767 355 m 1
 272 699 l 1
 272 709 l 1
 767 1053 l 1
 767 1203 l 1
 128 752 l 1
 128 656 l 1
 767 205 l 1
 767 355 l 1
EndSplineSet
Layer: 2
Layer: 3
Layer: 4
EndChar
StartChar: equal
Encoding: 61 61 83
Width: 896
VWidth: 0
Flags: W
HStem: 388 120<0 896> 900 120<0 896>
LayerCount: 5
Back
Fore
SplineSet
0 1020 m 1
 896 1020 l 1
 896 900 l 1
 0 900 l 1
 0 1020 l 1
0 508 m 1
 896 508 l 1
 896 388 l 1
 0 388 l 1
 0 508 l 1
EndSplineSet
Layer: 2
Layer: 3
Layer: 4
EndChar
StartChar: greater
Encoding: 62 62 84
Width: 896
VWidth: 0
Flags: W
VStem: 128 639
LayerCount: 5
Back
Fore
SplineSet
128 355 m 1
 623 699 l 1
 623 709 l 1
 128 1053 l 1
 128 1203 l 1
 767 752 l 1
 767 656 l 1
 128 205 l 1
 128 355 l 1
EndSplineSet
Layer: 2
Layer: 3
Layer: 4
EndChar
StartChar: at
Encoding: 64 64 86
Width: 896
VWidth: 0
Flags: W
HStem: 0 120<262.985 896> 368 120<448.403 674.062> 896 110<450.102 768> 1288 120<265.967 690.423>
VStem: 0 128<258.128 1149.86> 256 128<553.682 827.808> 768 128<384 507 577.512 896 1006 1211.56>
LayerCount: 5
Back
Fore
SplineSet
768 805 m 6
 768 896 l 5
 604 896 l 6
 549 896 491.083272506 895.92123209 440 842 c 4
 404 804 384 746 384 687 c 4
 384 578 457 488 564 488 c 4
 654 488 715.967374495 548.013794261 746 619 c 4
 768 671 768 733 768 805 c 6
768 1006 m 5
 768 1054.42589977 767.65697016 1100.37211936 758 1139 c 4
 740 1211 692.920594459 1258.6974897 620 1278 c 4
 586 1287 545 1288 499 1288 c 4
 440 1288 384.951268933 1287.18927174 338 1275 c 4
 234 1248 167.718677468 1179.81942699 141 1075 c 4
 128 1024 128 972 128 913 c 6
 128 495 l 6
 128 436 128.349673261 384.087857984 141 333 c 4
 167 228 233.892057635 159.580751242 338 133 c 4
 385 121 440 120 499 120 c 6
 896 120 l 5
 896 0 l 5
 499 0 l 6
 439 0 373.056010408 0.225631237525 305 17 c 4
 163 52 53.01412028 152.003371327 16 307 c 4
 0 374 0 436 0 495 c 6
 0 913 l 6
 0 972 0.00610373800001 1033.99854268 16 1101 c 4
 53 1256 163.116866649 1355.52921666 305 1391 c 4
 373 1408 439 1408 499 1408 c 4
 546 1408 597.995950206 1407.98408046 653 1394 c 4
 771 1364 853.529176941 1281.88329224 883 1164 c 4
 896 1112 896 1061 896 1016 c 6
 896 384 l 5
 768 384 l 5
 768 507 l 5
 758 507 l 5
 702 419 635 368 540 368 c 4
 487 368 379 394 315 490 c 4
 281 541 256 608 256 685 c 4
 256 767 280.649033277 854.352932907 344 917 c 4
 434 1006 544 1006 606 1006 c 6
 768 1006 l 5
EndSplineSet
Layer: 2
Layer: 3
Layer: 4
EndChar
StartChar: A
Encoding: 65 65 29
Width: 896
VWidth: 0
Flags: W
HStem: 0 21G<-25 115 781 921> 388 120<171 725> 1289 119<419.5 476.5>
LayerCount: 5
Back
Fore
SplineSet
725 508 m 1
 666 800 581 1061 453 1289 c 1
 443 1289 l 1
 315 1061 230 800 171 508 c 1
 725 508 l 1
-25 0 m 1
 19 496 111 971 388 1408 c 1
 508 1408 l 1
 785 971 877 496 921 0 c 1
 786 0 l 1
 776 136 763 265 746 388 c 1
 150 388 l 1
 133 265 120 136 110 0 c 1
 -25 0 l 1
EndSplineSet
Layer: 2
Layer: 3
Layer: 4
EndChar
StartChar: F
Encoding: 38 70 34
Width: 896
VWidth: 0
Flags: W
HStem: 0 21G<128 256> 644 120<256 768> 1288 120<256 896>
VStem: 128 128<0 644 764 1288>
LayerCount: 5
Back
Fore
SplineSet
128 1408 m 1
 896 1408 l 1
 896 1288 l 1
 256 1288 l 1
 256 764 l 1
 768 764 l 1
 768 644 l 1
 256 644 l 1
 256 0 l 1
 128 0 l 1
 128 1408 l 1
EndSplineSet
Layer: 2
Layer: 3
Layer: 4
EndChar
StartChar: G
Encoding: 39 71 35
Width: 896
VWidth: 0
Flags: W
HStem: -16 120<328.525 764.627> 648 120<512 768> 1304 120<328.747 799.818>
VStem: 0 128<339.164 1068.83> 768 128<130.103 648>
LayerCount: 5
Back
SplineSet
643 1424 m 4
 765.651707429 1424 884.952236124 1394.67718608 994 1366.70527418 c 5
 994 1242.71900976 l 5
 880.542495955 1271.95940944 755.025860491 1304 643 1304 c 4
 430 1304 312.309419947 1187.92054939 268 1016 c 4
 243 919 240 813.350482315 240 704 c 4
 240 594.649414062 243.1745791 489.044827153 268 392 c 4
 312 220 430 104 643 104 c 4
 723.524278831 104 811.037241413 120.400617627 896 140.349059888 c 5
 896 648 l 5
 640 648 l 5
 640 768 l 5
 1024 768 l 5
 1024 49 l 5
 907 19 777 -16 643 -16 c 4
 542.661132812 -16 436.330382085 6.51015014331 347 64 c 4
 246 129 175.339592524 236.87194663 143 364 c 4
 114 478 112 594 112 704 c 4
 112 814 113.552151487 930.114863929 143 1044 c 4
 175.83902439 1171 246.37354134 1278.42320672 347 1344 c 4
 436 1402 542.661016949 1424 643 1424 c 4
EndSplineSet
Fore
SplineSet
515 1424 m 4
 638 1424 757 1395 866 1367 c 5
 866 1243 l 5
 753 1272 627 1304 515 1304 c 4
 311 1304 200 1187 156 1016 c 4
 131 919 128 813 128 704 c 4
 128 595 131 489 156 392 c 4
 200 221 311 104 515 104 c 4
 596 104 683 120 768 140 c 5
 768 648 l 5
 512 648 l 5
 512 768 l 5
 896 768 l 5
 896 49 l 5
 779 19 649 -16 515 -16 c 4
 420 -16 320 9 235 64 c 4
 134 129 63 237 31 364 c 4
 2 478 0 594 0 704 c 4
 0 814 2 930 31 1044 c 4
 64 1171 134 1278 235 1344 c 4
 321 1400 420 1424 515 1424 c 4
EndSplineSet
Layer: 2
Layer: 3
Layer: 4
EndChar
StartChar: H
Encoding: 72 72 36
Width: 896
VWidth: 0
Flags: W
HStem: 0 21G<0 128 768 896> 641 120<128 768> 1388 20G<0 128 768 896>
VStem: 0 128<0 641 761 1408> 768 128<0 641 761 1408>
LayerCount: 5
Back
Fore
SplineSet
0 1408 m 1
 128 1408 l 1
 128 761 l 1
 768 761 l 5
 768 1408 l 5
 896 1408 l 5
 896 0 l 5
 768 0 l 5
 768 641 l 5
 128 641 l 1
 128 0 l 1
 0 0 l 1
 0 1408 l 1
EndSplineSet
Layer: 2
Layer: 3
Layer: 4
EndChar
StartChar: I
Encoding: 41 73 37
Width: 896
VWidth: 0
Flags: W
HStem: 0 120<128 384 512 768> 1288 120<128 384 512 768>
VStem: 384 128<120 1288>
LayerCount: 5
Back
Fore
SplineSet
768 1408 m 1
 768 1288 l 1
 512 1288 l 1
 512 120 l 1
 768 120 l 1
 768 0 l 1
 128 0 l 1
 128 120 l 1
 384 120 l 1
 384 1288 l 1
 128 1288 l 1
 128 1408 l 1
 768 1408 l 1
EndSplineSet
Layer: 2
Layer: 3
Layer: 4
EndChar
StartChar: J
Encoding: 42 74 38
Width: 896
VWidth: 0
Flags: W
HStem: -16 120<101.959 541.737> 1288 120<128 640>
VStem: 640 128<210.579 1288>
LayerCount: 5
Back
Fore
SplineSet
768 512 m 2
 768 391 766 286 728 193 c 0
 681 78 575 -16 406 -16 c 0
 323 -16 223 -1 96 25 c 1
 96 148 l 1
 224 121 330 104 406 104 c 0
 507 104 572 152 608 235 c 0
 640 308 640 410 640 512 c 2
 640 1288 l 1
 128 1288 l 1
 128 1408 l 1
 341 1408 555 1408 768 1408 c 1
 768 512 l 2
EndSplineSet
Layer: 2
Layer: 3
Layer: 4
EndChar
StartChar: K
Encoding: 75 75 39
Width: 896
VWidth: 0
Flags: W
HStem: 0 21G<0 128 694.253 874> 1388 20G<0 128 616.323 781>
VStem: 0 128<0 598 765 1408>
LayerCount: 5
Back
SplineSet
502 768 m 5
 1052 -138 l 1029
320 520 m 5
 1152 1806 l 1029
384 1408 m 5
 384 0 l 5
 256 0 l 5
 256 1408 l 5
 384 1408 l 5
512 752 m 1
 1052 -138 l 1025
320 520 m 1
 1152 1806 l 1025
EndSplineSet
Fore
SplineSet
128 0 m 1
 0 0 l 1
 0 1408 l 1
 128 1408 l 1
 128 765 l 1
 632 1408 l 1
 781 1408 l 1
 328 832 l 1
 874 0 l 1
 707 0 l 1
 236 739 l 1
 128 598 l 5
 128 0 l 1
EndSplineSet
Layer: 2
Layer: 3
Layer: 4
EndChar
StartChar: M
Encoding: 45 77 28
Width: 896
VWidth: 0
Flags: W
HStem: 0 21G<0 128 768 896> 1388 20G<0 138.194 757.838 896>
VStem: 0 128<0 1140> 768 128<0 1140>
LayerCount: 5
Back
SplineSet
192 0 m 29
 192 1521 l 29
 576 900 l 29
 960 1521 l 29
 960 0 l 1053
EndSplineSet
Fore
SplineSet
128 0 m 5
 0 0 l 5
 0 1408 l 5
 128 1408 l 5
 443 790 l 5
 454 790 l 5
 768 1408 l 5
 896 1408 l 5
 896 0 l 5
 768 0 l 5
 768 1140 l 5
 758 1140 l 5
 503 640 l 5
 393 640 l 5
 138 1140 l 5
 128 1140 l 5
 128 0 l 5
EndSplineSet
Layer: 2
Layer: 3
Layer: 4
EndChar
StartChar: N
Encoding: 78 78 41
Width: 896
VWidth: 0
Flags: W
HStem: 0 21G<0 128 757.024 896> 1388 20G<0 137.993 768 896>
VStem: 0 128<0 1148> 768 128<260 1408>
LayerCount: 5
Back
SplineSet
192 0 m 5
 192 1521 l 5
 960 15 l 5
 960 1536 l 1029
EndSplineSet
Fore
SplineSet
128 0 m 1
 0 0 l 1
 0 1408 l 1
 127 1408 l 1
 758 260 l 1
 768 260 l 1
 768 1408 l 1
 896 1408 l 1
 896 0 l 1
 768 0 l 1
 138 1148 l 1
 128 1148 l 1
 128 0 l 1
EndSplineSet
Layer: 2
Layer: 3
Layer: 4
EndChar
StartChar: O
Encoding: 79 79 42
Width: 896
VWidth: 0
Flags: W
HStem: -16 120<299.212 596.788> 1304 120<299.212 596.788>
VStem: 0 128<318.538 1089.46> 768 128<318.538 1089.46>
LayerCount: 5
Back
SplineSet
576 1304 m 0
 520.84375 1304 465.482421875 1289.16113281 418.938476562 1260.72949219 c 0
 380.189453125 1237.05957031 346.14453125 1202.93066406 320.438476562 1162.74804688 c 0
 294.64453125 1122.42871094 276.434570312 1075.35351562 264.592773438 1025.59863281 c 0
 240.665039062 925.064453125 240 816.177734375 240 704 c 0
 240 591.821289062 240.665039062 482.935546875 264.592773438 382.401367188 c 0
 276.434570312 332.64453125 294.64453125 285.571289062 320.438476562 245.251953125 c 0
 346.145507812 205.067382812 380.188476562 170.940429688 418.938476562 147.270507812 c 0
 465.483398438 118.837890625 520.841796875 104 576 104 c 0
 631.157226562 104 686.517578125 118.838867188 733.060546875 147.270507812 c 0
 771.811523438 170.940429688 805.854492188 205.068359375 831.561523438 245.251953125 c 0
 857.35546875 285.572265625 875.565429688 332.645507812 887.407226562 382.401367188 c 0
 911.334960938 482.935546875 912 591.821289062 912 704 c 0
 912 816.178710938 911.334960938 925.064453125 887.407226562 1025.59863281 c 0
 875.565429688 1075.35449219 857.35546875 1122.42773438 831.561523438 1162.74902344 c 0
 805.85546875 1202.93066406 771.810546875 1237.05957031 733.060546875 1260.73046875 c 0
 686.517578125 1289.16113281 631.15625 1304 576 1304 c 0
  Spiro
    576 1304 o
    521.164 1299.11 o
    468.036 1284.56 o
    418.938 1260.73 o
    381.927 1233.77 o
    348.759 1200.71 o
    320.438 1162.75 o
    297.148 1120.37 o
    278.586 1074.26 o
    264.593 1025.6 o
    247.593 922.573 o
    241.056 814.784 o
    240 704 o
    241.056 593.216 o
    247.593 485.427 o
    264.593 382.401 o
    278.586 333.737 o
    297.148 287.627 o
    320.438 245.252 o
    348.759 207.285 o
    381.927 174.233 o
    418.938 147.271 o
    468.036 123.435 o
    521.163 108.89 o
    576 104 o
    630.837 108.89 o
    683.964 123.435 o
    733.061 147.271 o
    770.073 174.233 o
    803.241 207.286 o
    831.562 245.252 o
    854.852 287.628 o
    873.414 333.738 o
    887.407 382.401 o
    904.407 485.427 o
    910.944 593.216 o
    912 704 o
    910.944 814.784 o
    904.407 922.573 o
    887.407 1025.6 o
    873.414 1074.26 o
    854.852 1120.37 o
    831.562 1162.75 o
    803.241 1200.71 o
    770.072 1233.77 o
    733.061 1260.73 o
    683.964 1284.57 o
    630.836 1299.11 o
    0 0 z
  EndSpiro
576 1424 m 0
 655.310546875 1424 734.732421875 1402.93457031 802.939453125 1361.27050781 c 0
 859.890625 1326.48144531 906.60546875 1278.75292969 941.333007812 1224.46875 c 0
 975.97265625 1170.32128906 998.211914062 1111.07128906 1012.33496094 1051.73144531 c 0
 1040.33886719 934.073242188 1040 816.107421875 1040 704 c 0
 1040 591.891601562 1040.33886719 473.926757812 1012.33496094 356.268554688 c 0
 998.211914062 296.927734375 975.97265625 237.677734375 941.333007812 183.53125 c 0
 906.606445312 129.248046875 859.889648438 81.517578125 802.939453125 46.7294921875 c 0
 734.732421875 5.0654296875 655.309570312 -16 576 -16 c 0
 496.69140625 -16 417.266601562 5.0654296875 349.061523438 46.7294921875 c 0
 292.110351562 81.517578125 245.393554688 129.248046875 210.666992188 183.53125 c 0
 176.02734375 237.677734375 153.788085938 296.928710938 139.665039062 356.267578125 c 0
 111.661132812 473.926757812 112 591.891601562 112 704 c 0
 112 816.108398438 111.661132812 934.073242188 139.665039062 1051.73144531 c 0
 153.788085938 1111.07226562 176.02734375 1170.3203125 210.666992188 1224.46875 c 0
 245.39453125 1278.75292969 292.109375 1326.48046875 349.061523438 1361.27050781 c 0
 417.267578125 1402.93359375 496.689453125 1424 576 1424 c 0
  Spiro
    576 1424 o
    654.85 1417.01 o
    731.488 1396.02 o
    802.939 1361.27 o
    856.364 1322.45 o
    902.717 1276.28 o
    941.333 1224.47 o
    971.971 1168.86 o
    995.368 1110.8 o
    1012.33 1051.73 o
    1031.94 934.316 o
    1039.05 817.717 o
    1040 704 o
    1039.05 590.283 o
    1031.94 473.684 o
    1012.33 356.269 o
    995.368 297.202 o
    971.971 239.136 o
    941.333 183.531 o
    902.717 131.718 o
    856.364 85.5523 o
    802.939 46.7295 o
    731.488 11.9768 o
    654.85 -9.00946 o
    576 -16 o
    497.151 -9.00946 o
    420.512 11.9768 o
    349.062 46.7295 o
    295.637 85.5523 o
    249.283 131.718 o
    210.667 183.531 o
    180.029 239.136 o
    156.632 297.203 o
    139.665 356.268 o
    120.059 473.683 o
    112.946 590.283 o
    112 704 o
    112.946 817.717 o
    120.059 934.316 o
    139.665 1051.73 o
    156.632 1110.8 o
    180.029 1168.86 o
    210.667 1224.47 o
    249.283 1276.28 o
    295.637 1322.45 o
    349.062 1361.27 o
    420.512 1396.02 o
    497.15 1417.01 o
    0 0 z
  EndSpiro
EndSplineSet
Fore
SplineSet
448 1424 m 0
 677 1424 822 1256 868 1053 c 4
 896 935 896 816 896 704 c 4
 896 592 896 473 868 355 c 4
 822 152 677 -16 448 -16 c 0
 219 -16 74 152 28 355 c 0
 0 473 0 592 0 704 c 0
 0 816 0 935 28 1053 c 0
 74 1256 219 1424 448 1424 c 0
448 1304 m 0
 285 1304 187 1178 153 1026 c 0
 129 923 128 816 128 704 c 0
 128 592 129 485 153 382 c 0
 187 230 285 104 448 104 c 0
 611 104 709 230 743 382 c 4
 767 485 768 592 768 704 c 4
 768 816 767 923 743 1026 c 4
 709 1178 611 1304 448 1304 c 0
EndSplineSet
Layer: 2
SplineSet
576 1492 m 4
 811.625 1492 976 1328.015625 976 1092 c 4
 976 865.425 811.625 708 576 708 c 4
 340.375 708 176 865.425 176 1092 c 4
 176 1328.015625 340.375 1492 576 1492 c 4
  Spiro
    576 1492 o
    784.248 1440.84 o
    924.757 1300.42 o
    976 1092 o
    924.757 891.915 o
    784.248 757.11 o
    576 708 o
    367.752 757.11 o
    227.243 891.915 o
    176 1092 o
    227.243 1300.42 o
    367.752 1440.84 o
    0 0 z
  EndSpiro
576 828 m 4
 811.625 828 976 670.575 976 444 c 4
 976 207.984375 811.625 44 576 44 c 4
 340.375 44 176 207.984375 176 444 c 4
 176 670.575 340.375 828 576 828 c 4
  Spiro
    576 828 o
    784.248 778.89 o
    924.757 644.085 o
    976 444 o
    924.757 235.578 o
    784.248 95.1567 o
    576 44 o
    367.752 95.1567 o
    227.243 235.578 o
    176 444 o
    227.243 644.085 o
    367.752 778.89 o
    0 0 z
  EndSpiro
EndSplineSet
Layer: 3
SplineSet
576 1364 m 0
 643.232974455 1364 710.624752961 1346.04787984 768 1311 c 0
 815.850534785 1281.77032553 856.230827797 1240.84198324 886.44733169 1193.60840999 c 0
 916.663835583 1146.37483675 936.888479806 1093.21313869 949.871199277 1038.6650265 c 0
 975.836638219 929.568802112 976 816.143614152 976 704 c 0
 976 591.856385848 975.836638219 478.431197888 949.871199277 369.3349735 c 0
 936.888479806 314.786861307 916.663835583 261.625163249 886.44733169 214.391590007 c 0
 856.230827797 167.158016764 815.850534786 126.229674468 768 97 c 0
 710.624752961 61.9521201594 643.232974455 44 576 44 c 0
 508.767025545 44 441.375247039 61.9521201594 384 97 c 0
 336.149465215 126.229674468 295.769172203 167.158016764 265.55266831 214.391590006 c 0
 235.336164417 261.625163249 215.111520194 314.786861307 202.128800723 369.3349735 c 0
 176.163361781 478.431197888 176 591.856385848 176 704 c 0
 176 816.143614152 176.163361781 929.568802112 202.128800723 1038.6650265 c 0
 215.111520194 1093.21313869 235.336164417 1146.37483675 265.55266831 1193.60840999 c 0
 295.769172203 1240.84198324 336.149465214 1281.77032553 384 1311 c 0
 441.375247039 1346.04787984 508.767025545 1364 576 1364 c 0
  Spiro
    576 1364 o
    768 1311 o
    976 704 o
    768 97 o
    576 44 o
    384 97 o
    176 704 o
    384 1311 o
    0 0 z
  EndSpiro
EndSplineSet
Layer: 4
EndChar
StartChar: P
Encoding: 48 80 43
Width: 896
VWidth: 0
Flags: W
HStem: 0 21G<128 256> 640 120<256 660.624> 1288 120<256 660.624>
VStem: 128 128<0 640 760 1288> 768 128<867.249 1180.75>
LayerCount: 5
Back
Fore
SplineSet
256 0 m 1
 128 0 l 1
 128 1408 l 1
 433 1408 l 6
 510 1408 562 1408 617 1395 c 4
 776 1357 896 1220 896 1024 c 4
 896 828 776 691 617 653 c 4
 562 640 510 640 433 640 c 6
 256 640 l 1
 256 0 l 1
433 760 m 6
 509 760 549 762 585 770 c 4
 693 794 768 890 768 1024 c 4
 768 1158 693 1254 585 1278 c 4
 549 1286 509 1288 433 1288 c 6
 256 1288 l 1
 256 760 l 1
 433 760 l 6
EndSplineSet
Layer: 2
SplineSet
572 1476 m 4
 800.55625 1476 960 1316.93515625 960 1088 c 4
 960 859.06484375 800.55625 700 572 700 c 4
 343.44375 700 184 859.06484375 184 1088 c 4
 184 1316.93515625 343.44375 1476 572 1476 c 4
  Spiro
    572 1476 o
    774.001 1426.38 o
    910.294 1290.17 o
    960 1088 o
    910.294 885.831 o
    774.001 749.622 o
    572 700 o
    369.999 749.622 o
    233.706 885.831 o
    184 1088 o
    233.706 1290.17 o
    369.999 1426.38 o
    0 0 z
  EndSpiro
EndSplineSet
Layer: 3
SplineSet
517 1476 m 6
 572.903034518 1476 629.339292821 1474.95593565 683.66489599 1461.76965078 c 4
 737.990499158 1448.58336591 789.609774882 1423.39822133 831.972144218 1386.92111985 c 4
 874.334513552 1350.44401836 907.152850694 1303.32006314 928.465475546 1251.63910639 c 4
 949.778100397 1199.95814965 960.000000002 1143.90303452 960 1088 c 4
 960 1032.09696548 949.778100393 976.041850352 928.46547554 924.360893606 c 4
 907.152850686 872.67993686 874.334513542 825.555981637 831.972144206 789.078880155 c 4
 789.609774872 752.601778673 737.99049915 727.416634092 683.664895984 714.230349222 c 4
 629.339292817 701.044064351 572.903034516 700.000000001 517 700 c 6
 128 700 l 5
 128 1476 l 5
 517 1476 l 6
  Spiro
    517 1476 ]
    960 1088 o
    517 700 [
    128 700 v
    128 1476 v
    0 0 z
  EndSpiro
EndSplineSet
Layer: 4
EndChar
StartChar: Q
Encoding: 81 81 44
Width: 896
VWidth: 0
Flags: W
HStem: -400 120<602.773 893.586> -12 116<300.099 385 513 597.831> 1304 120<299.212 596.788>
VStem: 0 128<320.274 1089.46> 385 128<-183.596 -3.35798> 768 128<320.28 1089.46>
LayerCount: 5
Back
Fore
SplineSet
448 1304 m 0
 285 1304 187 1178 153 1026 c 0
 129 923 128 816 128 704 c 0
 128 592 129 485 153 382 c 0
 187 230 285 104 448 104 c 0
 611 104 709 230 743 382 c 4
 767 485 768 592 768 704 c 4
 768 816 767 923 743 1026 c 4
 709 1178 611 1304 448 1304 c 0
448 1424 m 0
 677 1424 822 1256 868 1053 c 4
 896 935 896 816 896 704 c 4
 896 592 896 473 868 355 c 4
 827 171 705 16 513 -12 c 1
 515 -62 523 -129 556 -182 c 0
 593 -241 648 -280 744 -280 c 0
 792 -280 844 -272 896 -263 c 1
 896 -385 l 1
 845 -394 794 -400 744 -400 c 0
 596 -400 500 -333 445 -241 c 0
 397 -160 387 -74 385 -12 c 1
 193 15 70 171 28 355 c 0
 0 473 0 592 0 704 c 0
 0 816 0 935 28 1053 c 0
 74 1256 219 1424 448 1424 c 0
EndSplineSet
Layer: 2
Layer: 3
Layer: 4
EndChar
StartChar: R
Encoding: 82 82 45
Width: 896
VWidth: 0
Flags: W
HStem: 0 21G<0 128 667.461 809> 640 120<128 433> 1288 120<128 548.624>
VStem: 0 128<0 640 760 1288> 656 128<868.856 1180.75>
LayerCount: 5
Back
Fore
SplineSet
321 760 m 2
 397 760 437 762 473 770 c 0
 581 794 656 890 656 1024 c 0
 656 1158 581 1254 473 1278 c 0
 437 1286 397 1288 321 1288 c 2
 128 1288 l 1
 128 760 l 1
 321 760 l 2
128 0 m 1
 0 0 l 1
 0 1408 l 1
 321 1408 l 2
 398 1408 450 1408 505 1395 c 0
 664 1357 784 1220 784 1024 c 0
 784 851 690 723 558 670 c 1
 809 0 l 1
 675 0 l 1
 433 642 l 1
 400 640 365 640 321 640 c 2
 128 640 l 1
 128 0 l 1
EndSplineSet
Layer: 2
SplineSet
439 760 m 6
 524 760 575 761 620 772 c 4
 755 805 848 925 848 1088 c 4
 848 1251 755 1371 620 1404 c 4
 575 1415 524 1416 439 1416 c 6
 256 1416 l 5
 256 760 l 5
 439 760 l 6
534.4140625 641.071289062 m 5
 505.526367188 640 474.323242188 640 439 640 c 6
 256 640 l 5
 256 0 l 5
 128 0 l 5
 128 1536 l 5
 439 1536 l 6
 526 1536 588 1536 652 1520 c 4
 838 1475 976 1312 976 1088 c 4
 976 868.202148438 843.12890625 707.13671875 662.416992188 658.657226562 c 5
 912.923828125 0 l 5
 769.30078125 0 l 5
 534.4140625 641.071289062 l 5
EndSplineSet
Layer: 3
Layer: 4
EndChar
StartChar: S
Encoding: 51 83 46
Width: 896
VWidth: 0
Flags: W
HStem: -16 120<131.035 639.354> 1304 120<274.92 715.308>
VStem: 24 128<889.025 1186.02> 768 128<226.376 515.486>
LayerCount: 5
Back
SplineSet
62.322265625 70.0732421875 m 1
 95.677734375 185.926757812 l 1
 160.537109375 169.514648438 225.755859375 154.717773438 291.272460938 141.6953125 c 0
 339.938476562 132.0234375 388.416992188 123.29296875 436.760742188 116.297851562 c 0
 484.592773438 109.377929688 531.252929688 104.375976562 576.578125 103.998046875 c 0
 578.330078125 103.983398438 580.08203125 103.975585938 581.834960938 103.975585938 c 0
 632.537109375 103.975585938 681.481445312 110.244140625 725.694335938 125.395507812 c 0
 771.243164062 141.004882812 812.998046875 166.887695312 844.524414062 201.174804688 c 0
 886.708984375 247.053710938 911.939453125 310.842773438 912.000976562 374.606445312 c 1
 912.000976562 426.345703125 895.388671875 478.463867188 865.961914062 519.2421875 c 0
 836.676757812 559.82421875 793.012695312 591.0390625 744.27734375 609.2734375 c 0
 692.721679688 628.563476562 631.33203125 635.135742188 563.602539062 643.5703125 c 0
 495.211914062 652.088867188 419.110351562 664.786132812 348.1484375 702.958007812 c 0
 287.973632812 735.328125 237.254882812 783.62109375 203.174804688 842.383789062 c 0
 168.831054688 901.598632812 151.985351562 968.373046875 151.985351562 1036.12109375 c 0
 151.985351562 1136.86425781 190.62109375 1238.62109375 265.987304688 1311.70410156 c 0
 307.635742188 1352.09082031 358.413085938 1381.76855469 412.728515625 1399.98242188 c 0
 464.653320312 1417.39550781 518.194335938 1424.03320312 569.991210938 1424.03320312 c 0
 572.250976562 1424.03320312 574.483398438 1424.02148438 576.76171875 1423.99609375 c 0
 624.48046875 1423.46386719 670.510742188 1417.63378906 714.614257812 1410.00390625 c 0
 757.97265625 1402.50292969 800.346679688 1393.11816406 841.911132812 1383.11621094 c 0
 924.791015625 1363.171875 1006.53613281 1340.34375 1087.43847656 1316.16601562 c 1
 1048.56152344 1201.83496094 l 1
 969.221679688 1225.54589844 889.8125 1247.69921875 810.088867188 1266.88378906 c 0
 770.153320312 1276.49414062 730.626953125 1285.20703125 691.385742188 1291.99609375 c 0
 651.536132812 1298.88964844 612.71484375 1303.58691406 575.23828125 1304.00488281 c 0
 573.512695312 1304.0234375 571.739257812 1304.03320312 569.991210938 1304.03320312 c 0
 529.842773438 1304.03320312 491.053710938 1298.80273438 455.83984375 1286.99316406 c 0
 419.219726562 1274.71289062 385.219726562 1254.6796875 358.012695312 1228.29589844 c 0
 309.076171875 1180.84277344 279.985351562 1108.54492188 279.985351562 1036.12109375 c 0
 279.985351562 986.958984375 292.233398438 940.040039062 315.625976562 899.706054688 c 0
 338.250976562 860.6953125 372.487304688 828.216796875 411.8515625 807.041015625 c 0
 458.399414062 782.001953125 516.440429688 770.499023438 580.459960938 762.525390625 c 0
 645.142578125 754.469726562 718.305664062 748.1953125 791.72265625 720.725585938 c 0
 862.153320312 694.374023438 926.809570312 649.078125 971.979492188 586.483398438 c 0
 1016.7734375 524.408203125 1040.00097656 449.6328125 1040.00097656 374.580078125 c 0
 1039.91210938 282.134765625 1004.72851562 191.6171875 941.475585938 122.825195312 c 0
 894.341796875 71.564453125 834.030273438 34.755859375 769.639648438 12.689453125 c 0
 707.592773438 -8.5732421875 643.5078125 -16.0244140625 581.834960938 -16.0244140625 c 0
 579.697265625 -16.0244140625 577.55859375 -16.015625 575.421875 -15.9970703125 c 0
 520.963867188 -15.54296875 468.165039062 -9.666015625 417.239257812 -2.2978515625 c 0
 365.776367188 5.1484375 314.971679688 14.318359375 264.727539062 24.3046875 c 0
 196.822265625 37.8017578125 129.337890625 53.1142578125 62.322265625 70.0732421875 c 1
  Spiro
    62.3223 70.0732 v
    95.6777 185.927 v
    160.59 170.074 o
    225.923 155.289 o
    291.272 141.695 o
    339.829 132.376 o
    388.419 123.834 o
    436.761 116.298 o
    484.149 110.123 o
    530.86 105.814 o
    576.578 103.998 o
    578.328 103.986 o
    580.084 103.978 o
    581.835 103.976 o
    631.792 106.157 o
    680.061 113.118 o
    725.694 125.396 o
    769.698 144.338 o
    809.864 169.787 o
    844.524 201.175 o
    880.723 252.304 o
    903.87 311.56 o
    912.001 374.606 v
    906.615 425.987 o
    890.956 475.165 o
    865.962 519.242 o
    832.266 556.534 o
    790.933 586.873 o
    744.277 609.273 o
    689.631 624.852 o
    629.026 635.225 o
    563.603 643.57 o
    493.19 654.257 o
    420.275 672.512 o
    348.148 702.958 o
    291.445 740.391 o
    242.491 787.364 o
    203.175 842.384 o
    174.662 903.811 o
    157.613 969.008 o
    151.985 1036.12 o
    164.768 1136 o
    202.986 1230.25 o
    265.987 1311.7 o
    310.425 1348.46 o
    359.851 1378 o
    412.729 1399.98 o
    465.015 1413.95 o
    517.79 1421.67 o
    569.991 1424.03 o
    572.242 1424.03 o
    574.498 1424.02 o
    576.762 1424 o
    623.862 1421.83 o
    669.923 1416.9 o
    714.614 1410 o
    757.608 1401.93 o
    800.112 1392.86 o
    841.911 1383.12 o
    924.341 1362.29 o
    1006.33 1339.81 o
    1087.44 1316.17 v
    1048.56 1201.83 v
    969.269 1224.95 o
    889.637 1246.78 o
    810.089 1266.88 o
    770.325 1276.15 o
    730.687 1284.61 o
    691.386 1292 o
    651.93 1298.08 o
    613.113 1302.24 o
    575.238 1304 o
    573.501 1304.02 o
    571.743 1304.03 o
    569.991 1304.03 o
    530.417 1302.24 o
    492.126 1296.65 o
    455.84 1286.99 o
    420.282 1272.2 o
    387.298 1252.49 o
    358.013 1228.3 o
    316.069 1173.54 o
    289.322 1107.52 o
    279.985 1036.12 o
    284.019 987.915 o
    296.005 942.03 o
    315.626 899.706 o
    341.852 863.084 o
    374.472 831.78 o
    411.852 807.041 o
    461.973 786.161 o
    518.697 772.035 o
    580.46 762.525 o
    647.595 754.222 o
    718.767 741.965 o
    791.723 720.726 o
    859.656 688.159 o
    920.879 643.2 o
    971.979 586.483 o
    1009.49 520.704 o
    1032.34 449.007 o
    1040 374.58 o
    1028.5 283.6 o
    995.068 198.045 o
    941.476 122.825 o
    890.341 76.4342 o
    832.273 39.6273 o
    769.64 12.6895 o
    707.141 -4.1922 o
    644.084 -13.3108 o
    581.835 -16.0244 o
    579.699 -16.0215 o
    577.557 -16.0124 o
    575.422 -15.9971 o
    521.578 -13.8846 o
    468.729 -9.01739 o
    417.239 -2.29785 o
    366.043 5.68089 o
    315.112 14.6334 o
    264.728 24.3047 o
    197.032 38.386 o
    129.425 53.6852 o
    0 0 z
  EndSpiro
EndSplineSet
Fore
SplineSet
442 1304 m 0
 251 1304 152 1178 152 1036 c 0
 152 928 210 847 284 807 c 0
 388 749 523 770 648 721 c 4
 779 672 896 547 896 375 c 4
 896 192 758 -16 454 -16 c 0
 337 -16 191 11 64 39 c 1
 64 163 l 1
 191 133 340 104 454 104 c 0
 675 104 768 240 768 375 c 4
 768 493 691 575 600 609 c 4
 477 657 353 629 220 703 c 0
 112 761 24 880 24 1036 c 0
 24 1222 160 1424 442 1424 c 0
 543 1424 683 1393 802 1361 c 1
 802 1236 l 1
 682 1270 541 1304 442 1304 c 0
EndSplineSet
Layer: 2
SplineSet
576 1364 m 4
 788.0625 1364 936 1234.61328125 936 1034 c 4
 936 842.827148438 788.0625 704 576 704 c 4
 363.9375 704 216 842.827148438 216 1034 c 4
 216 1234.61328125 363.9375 1364 576 1364 c 4
  Spiro
    576 1364 o
    763.423 1323.1 o
    889.881 1208.57 o
    936 1034 o
    889.881 863.625 o
    763.423 746.99 o
    576 704 o
    388.577 746.99 o
    262.119 863.625 o
    216 1034 o
    262.119 1208.57 o
    388.577 1323.1 o
    0 0 z
  EndSpiro
576 704 m 4
 811.625 704 976 562.8125 976 374 c 4
 976 175.747070312 811.625 44 576 44 c 4
 340.375 44 176 175.747070312 176 374 c 4
 176 562.8125 340.375 704 576 704 c 4
  Spiro
    576 704 o
    784.248 660.486 o
    924.757 543.326 o
    976 374 o
    924.757 200.479 o
    784.248 85.4188 o
    576 44 o
    367.752 85.4188 o
    227.243 200.479 o
    176 374 o
    227.243 543.326 o
    367.752 660.486 o
    0 0 z
  EndSpiro
EndSplineSet
Layer: 3
SplineSet
79 128 m 0
 144.937293333 111.314584254 211.289256081 96.2592004484 278 83 c 0
 327.455314491 73.1704299853 377.096925986 64.2202342125 427 57 c 0
 476.379220837 49.8555595677 526.108353076 44.4171891802 576 44 c 0
 577.94434705 43.9837415559 579.889238634 43.9755192265 581.834520801 43.9755192265 c 0
 638.022896611 43.9755192265 694.537140116 50.8354955705 747.667241846 69.0429610748 c 0
 802.636746084 87.88078219 853.669434506 119.225983138 893 162 c 0
 945.716298149 219.331690954 975.925889087 296.50286806 976.000554053 374.579368562 c 0
 976.000554053 438.003563074 956.084104364 501.431969773 918.970350955 552.863430049 c 0
 881.743588313 604.451496148 827.583341456 642.706820736 768 665 c 0
 705.513526136 688.379389766 638.236986955 694.802966978 572.031499459 703.048493467 c 0
 505.826011962 711.294019955 438.755329727 723.393568528 380 755 c 0
 330.230633982 781.772584951 287.75299194 822.157935526 259.400105435 871.044282553 c 0
 230.531977888 920.819013638 215.985328117 977.666399 215.985328117 1036.12032969 c 0
 215.985328117 1122.70456949 249.848762541 1209.7323259 312 1270 c 0
 346.427948532 1303.38457072 388.816377042 1328.24085802 434.284278106 1343.48825698 c 0
 477.853707721 1358.09901447 524.018555187 1364.03357611 569.99169427 1364.03357611 c 0
 571.994903694 1364.03357611 573.997749131 1364.02230847 576 1364 c 0
 618.59754119 1363.52539123 661.023359854 1358.26205556 703 1351 c 0
 744.299681825 1343.85505979 785.250117737 1334.80617076 826 1325 c 0
 907.301538861 1305.43536009 987.879007681 1282.94455983 1068 1259 c 1024
  Spiro
    79 128 {
    278 83 o
    427 57 o
    576 44 o
    893 162 o
    976 374 o
    768 665 o
    380 755 o
    216 1033 o
    312 1270 o
    576 1364 o
    703 1351 o
    826 1325 o
    1068 1259 o
    0 0 z
  EndSpiro
EndSplineSet
Layer: 4
EndChar
StartChar: T
Encoding: 84 84 47
Width: 896
VWidth: 0
Flags: W
HStem: 0 21G<384 512> 1288 120<0 384 512 896>
VStem: 384 128<0 1288>
LayerCount: 5
Back
Fore
SplineSet
896 1408 m 1
 896 1288 l 1
 512 1288 l 1
 512 0 l 1
 384 0 l 1
 384 1288 l 1
 0 1288 l 1
 0 1408 l 1
 896 1408 l 1
EndSplineSet
Layer: 2
Layer: 3
Layer: 4
EndChar
StartChar: U
Encoding: 53 85 48
Width: 896
VWidth: 0
Flags: W
HStem: -16 120<276.736 619.179> 1388 20G<0 128 768 896>
VStem: 0 128<252.382 1408> 768 128<252.382 1408>
LayerCount: 5
Back
SplineSet
128 1536 m 1
 256 1536 l 1
 256 482 l 0
 256 427.328125 257.407226562 376.099609375 268.498046875 330.474609375 c 0
 279.609375 284.774414062 300.8046875 242.052734375 329.9921875 208.208007812 c 0
 359.318359375 174.203125 397.6953125 147.424804688 439.845703125 130.07421875 c 0
 482.264648438 112.61328125 528.96875 104 576 104 c 0
 623.03125 104 669.735351562 112.61328125 712.154296875 130.07421875 c 0
 754.3046875 147.424804688 792.681640625 174.203125 822.0078125 208.208007812 c 0
 851.1953125 242.051757812 872.391601562 284.775390625 883.500976562 330.473632812 c 0
 894.59375 376.1015625 896 427.328125 896 482 c 0
 896 1535 l 1
 1024 1535 l 1
 1024 482 l 0
 1024 426.075195312 1023.33398438 365.647460938 1008.30175781 303.80859375 c 0
 993.284179688 242.041015625 964.5859375 182.669921875 921.544921875 132.76171875 c 0
 878.640625 83.0126953125 823.734375 44.9462890625 763.61328125 20.1982421875 c 0
 703.760742188 -4.4384765625 639.56640625 -16 576 -16 c 0
 512.43359375 -16 448.239257812 -4.4384765625 388.38671875 20.1982421875 c 0
 328.265625 44.9462890625 273.359375 83.0126953125 230.455078125 132.76171875 c 0
 187.4140625 182.669921875 158.71484375 242.041992188 143.69921875 303.807617188 c 0
 128.665039062 365.649414062 128 426.075195312 128 482 c 0
 128 1536 l 1
  Spiro
    128 1536 v
    256 1536 v
    256 482 [
    256.774 428.608 o
    260.334 377.838 o
    268.498 330.475 o
    282.876 286.029 o
    303.57 244.754 o
    329.992 208.208 o
    362.105 176.722 o
    399.188 150.462 o
    439.846 130.074 o
    483.502 115.565 o
    529.271 106.874 o
    576 104 o
    622.729 106.874 o
    668.498 115.565 o
    712.154 130.074 o
    752.812 150.462 o
    789.895 176.722 o
    822.008 208.208 o
    848.43 244.754 o
    869.125 286.029 o
    883.501 330.474 o
    891.666 377.839 o
    895.226 428.608 o
    896 482 ]
    896 1535 v
    1024 1535 v
    1024 482 [
    1023.27 424.747 o
    1019.05 365.002 o
    1008.3 303.809 o
    988.724 243.161 o
    959.796 185.507 o
    921.545 132.762 o
    874.941 87.0093 o
    821.689 49.2917 o
    763.613 20.1982 o
    702.56 -0.120048 o
    639.528 -12.098 o
    576 -16 o
    512.472 -12.098 o
    449.44 -0.120048 o
    388.387 20.1982 o
    330.311 49.2917 o
    277.059 87.0093 o
    230.455 132.762 o
    192.204 185.507 o
    163.276 243.161 o
    143.699 303.808 o
    132.954 365.003 o
    128.727 424.748 o
    128 482 ]
    0 0 z
  EndSpiro
EndSplineSet
Fore
SplineSet
0 1408 m 1
 128 1408 l 1
 128 512 l 2
 128 437 128 378 140 330 c 0
 173 196 288 104 448 104 c 0
 608 104 723 196 756 330 c 0
 768 378 768 437 768 512 c 2
 768 1408 l 1
 896 1408 l 1
 896 512 l 2
 896 426 896 371 880 303 c 0
 836 118 669 -16 448 -16 c 0
 227 -16 59 118 16 303 c 0
 0 371 0 426 0 512 c 2
 0 1408 l 1
EndSplineSet
Layer: 2
SplineSet
576 812 m 4
 802.2 812 960 654.575 960 428 c 4
 960 201.425 802.2 44 576 44 c 4
 349.8 44 192 201.425 192 428 c 4
 192 654.575 349.8 812 576 812 c 4
EndSplineSet
Layer: 3
SplineSet
192 1536 m 1
 192 482 l 2
 192 426.701625656 193.035856564 370.874340729 206.098947229 317.14105619 c 0
 219.162037895 263.40777165 244.109140936 212.36082041 280.224013825 170.484500593 c 0
 316.338886714 128.608180778 362.980658982 96.1855593791 414.116334248 75.1367370804 c 0
 465.252009514 54.0879147817 520.701625656 43.9999999981 576 44 c 0
 631.298374344 44 686.747990487 54.0879147857 737.883665753 75.1367370865 c 0
 789.019341019 96.1855593872 835.661113286 128.608180789 871.775986175 170.484500605 c 0
 907.890859062 212.36082042 932.837962104 263.407771658 945.901052769 317.141056196 c 0
 958.964143435 370.874340733 959.999999999 426.701625658 960 482 c 2
 960 1535 l 1025
  Spiro
    192 1536 {
    192 482 ]
    576 44 o
    960 482 [
    960 1535 v
    0 0 z
  EndSpiro
EndSplineSet
Layer: 4
EndChar
StartChar: V
Encoding: 54 86 49
Width: 896
VWidth: 0
Flags: W
HStem: 0 119<427.421 468.579> 1388 20G<5 168 728 891>
VStem: 5 135<1063.43 1408> 756 135<1063.43 1408>
LayerCount: 5
Back
Fore
SplineSet
5 1408 m 5
 140 1408 l 5
 196 900 274 468 443 119 c 5
 453 119 l 5
 622 468 700 900 756 1408 c 5
 891 1408 l 5
 837.532226562 912 756.398350146 437 513 0 c 5
 383 0 l 5
 139.601649854 437 58.4677734375 912 5 1408 c 5
EndSplineSet
Layer: 2
Layer: 3
Layer: 4
EndChar
StartChar: W
Encoding: 87 87 50
Width: 896
VWidth: 0
Flags: W
HStem: 0 21G<159 288.321 607.679 737> 1388 20G<18 149 747 878>
VStem: 18 131<944.379 1408> 747 131<944.379 1408>
LayerCount: 5
Back
Fore
SplineSet
386 896 m 1
 510 896 l 1
 654 210 l 1
 664 210 l 1
 729 579 747 991 747 1408 c 1
 878 1408 l 1
 878 936 830 467 737 2 c 1
 612 0 l 1
 453 736 l 1
 443 736 l 1
 284 0 l 5
 159 2 l 5
 66 467 18 936 18 1408 c 5
 149 1408 l 5
 149 991 168 579 232 210 c 5
 242 210 l 5
 386 896 l 1
EndSplineSet
Layer: 2
Layer: 3
Layer: 4
EndChar
StartChar: Y
Encoding: 57 89 52
Width: 896
VWidth: 0
Flags: W
HStem: 0 21G<384 512> 1388 20G<5 160.309 735.691 891>
VStem: 5 125<1242.39 1408> 384 128<0 675.518> 766 125<1242.39 1408>
CounterMasks: 1 38
LayerCount: 5
Back
Fore
SplineSet
5 1408 m 1
 130 1408 l 1
 190.617465763 1144.73492286 280.070342789 920.819074333 433 740 c 1
 463 740 l 1
 615.929657211 920.819074333 705.382534237 1144.73492286 766 1408 c 5
 891 1408 l 5
 832.621026895 1133.63285024 728.603942619 871.480676329 512 630 c 1
 512 0 l 1
 384 0 l 1
 384 630 l 1
 167.396057381 871.480676329 63.3789731051 1133.63285024 5 1408 c 1
EndSplineSet
Layer: 2
Layer: 3
Layer: 4
EndChar
StartChar: Z
Encoding: 58 90 53
Width: 896
VWidth: 0
Flags: W
HStem: 0 120<165 896> 1288 120<20 711>
LayerCount: 5
Back
Fore
SplineSet
20 1288 m 1
 20 1408 l 1
 876 1408 l 1
 876 1318 l 1
 165 130 l 1
 165 120 l 1
 896 120 l 1
 896 0 l 1
 0 0 l 1
 0 92 l 1
 711 1278 l 1
 711 1288 l 1
 20 1288 l 1
EndSplineSet
Layer: 2
Layer: 3
Layer: 4
EndChar
StartChar: bracketleft
Encoding: 59 91 87
Width: 896
VWidth: 0
Flags: W
HStem: -256 120<384 768> 1542 120<384 768>
VStem: 256 128<-136 1542>
LayerCount: 5
Back
Fore
SplineSet
256 -256 m 1
 256 383 256 1023 256 1662 c 1
 427 1662 597 1662 768 1662 c 1
 768 1542 l 1
 384 1542 l 1
 384 -136 l 1
 768 -136 l 1
 768 -256 l 1
 256 -256 l 1
EndSplineSet
Layer: 2
Layer: 3
Layer: 4
EndChar
StartChar: backslash
Encoding: 92 92 26
Width: 896
VWidth: 0
Flags: W
LayerCount: 5
Back
Fore
SplineSet
-32 1664 m 1
 790 -256 l 1
 928 -256 l 1
 106 1664 l 1
 -32 1664 l 1
EndSplineSet
Layer: 2
Layer: 3
Layer: 4
EndChar
StartChar: bracketright
Encoding: 93 93 88
Width: 896
VWidth: 0
Flags: W
HStem: -256 120<128 512> 1542 120<128 512>
VStem: 512 128<-136 1542>
LayerCount: 5
Back
Fore
SplineSet
640 1662 m 1
 640 1023 640 383 640 -256 c 1
 469 -256 299 -256 128 -256 c 1
 128 -136 l 1
 512 -136 l 1
 512 1542 l 1
 128 1542 l 1
 128 1662 l 1
 640 1662 l 1
EndSplineSet
Layer: 2
Layer: 3
Layer: 4
EndChar
StartChar: asciicircum
Encoding: 94 94 89
Width: 896
VWidth: 0
Flags: W
HStem: 1289 119<397.096 443 453 498.904>
VStem: 73 135<896 1037.82> 688 135<896 1037.82>
LayerCount: 5
Back
Fore
SplineSet
73 896 m 1
 208 896 l 1
 238 1051 314 1183 443 1289 c 1
 453 1289 l 1
 582 1183 658 1051 688 896 c 1
 823 896 l 1
 792 1076 705 1249 508 1408 c 1
 388 1408 l 1
 191 1249 104 1076 73 896 c 1
EndSplineSet
Layer: 2
Layer: 3
Layer: 4
EndChar
StartChar: underscore
Encoding: 63 95 90
Width: 896
VWidth: 0
Flags: W
HStem: -124 120<0 896>
LayerCount: 5
Back
Fore
SplineSet
0 -4 m 1
 896 -4 l 1
 896 -124 l 1
 0 -124 l 1
 0 -4 l 1
EndSplineSet
Layer: 2
Layer: 3
Layer: 4
EndChar
StartChar: grave
Encoding: 64 96 27
Width: 896
VWidth: 0
Flags: W
HStem: 1024 384
VStem: 231 304
LayerCount: 5
Back
Fore
SplineSet
535 1024 m 5
 397 1024 l 5
 231 1408 l 5
 369 1408 l 5
 535 1024 l 5
EndSplineSet
Layer: 2
SplineSet
216 1603 m 5
 576 768 l 1029
EndSplineSet
Layer: 3
Layer: 4
EndChar
StartChar: a
Encoding: 65 97 2
Width: 896
VWidth: 0
Flags: W
HStem: -16 120<288.403 532.71> 0 21G<640 768> 512 110<290.102 640> 920 120<196.593 610.851>
VStem: 96 128<169.682 443.733> 640 128<0 123 195.803 512 622 892.213>
LayerCount: 5
Back
SplineSet
768 632 m 1
 768 753 l 0
 768 786.59765625 766.82421875 815.489257812 760.07421875 838.161132812 c 0
 753.428710938 860.481445312 740.28125 879.923828125 724.893554688 892.01171875 c 0
 712.224609375 901.96484375 695.642578125 909.465820312 676.8359375 913.853515625 c 0
 656.897460938 918.505859375 637.103515625 919.981445312 609.676757812 920.000976562 c 1
 581.82421875 920.000976562 549.240234375 917.883789062 517.703125 915.23828125 c 0
 476.079101562 911.747070312 434.53515625 907.196289062 393.108398438 901.610351562 c 0
 351.5078125 896.002929688 310.107421875 889.239257812 268.989257812 881.249023438 c 1
 243.010742188 998.751953125 l 1
 286.791015625 1007.25878906 330.78125 1014.44238281 374.891601562 1020.38867188 c 0
 418.546875 1026.27539062 462.370117188 1031.07714844 506.296875 1034.76171875 c 0
 539.239257812 1037.52441406 575.524414062 1040.00097656 609.724609375 1040.00097656 c 1
 642.782226562 1039.97753906 673.041015625 1038.40039062 707.75390625 1030.29980469 c 0
 742.09375 1022.28808594 776.861328125 1007.74804688 807.106445312 983.98828125 c 0
 845.296875 953.986328125 870.565429688 913.404296875 883.361328125 870.420898438 c 0
 896.052734375 827.79296875 896 787.538085938 896 753 c 0
 896 421 l 0
 896 418.314453125 896.000976562 415.612304688 896.000976562 412.893554688 c 0
 896.000976562 344.844726562 896.893554688 266.544921875 864.5 189.8984375 c 0
 836.067382812 122.625976562 784.34765625 67.2763671875 720.962890625 31.5703125 c 0
 666.552734375 0.919921875 604.043945312 -16.185546875 540.2734375 -16.185546875 c 0
 536.033203125 -16.185546875 531.78125 -16.109375 527.51953125 -15.955078125 c 0
 449.284179688 -13.1240234375 371.506835938 17.5302734375 315.217773438 74.0556640625 c 0
 252.6875 136.846679688 223.981445312 221.85546875 223.981445312 305.404296875 c 0
 223.981445312 387.861328125 251.4375 473.241210938 311.978515625 537.663085938 c 0
 345.70703125 573.5546875 388.740234375 600.840820312 436.819335938 615.958984375 c 0
 485.34375 631.217773438 531.985351562 632 572 632 c 0
 768 632 l 1
  Spiro
    768 632 v
    768 753 [
    767.446 784.943 o
    765.126 813.499 o
    760.074 838.161 o
    751.43 859.336 o
    739.363 877.655 o
    724.894 892.012 o
    710.998 901.115 o
    694.821 908.459 o
    676.836 913.854 o
    656.678 917.508 o
    634.824 919.434 o
    609.677 920.001 v
    580.491 919.355 o
    549.344 917.647 o
    517.703 915.238 o
    476.149 911.399 o
    434.531 906.845 o
    393.108 901.61 o
    351.619 895.621 o
    310.157 888.826 o
    268.989 881.249 v
    243.011 998.752 v
    286.814 1006.81 o
    330.869 1014.03 o
    374.892 1020.39 o
    418.557 1025.91 o
    462.451 1030.71 o
    506.297 1034.76 o
    540.118 1037.35 o
    575.065 1039.26 o
    609.725 1040 v
    642.086 1039.28 o
    674.29 1036.41 o
    707.754 1030.3 o
    742.019 1020.02 o
    775.57 1004.76 o
    807.106 983.988 o
    840.977 950.799 o
    866.412 912.26 o
    883.361 870.421 o
    892.273 828.749 o
    895.545 789.282 o
    896 753 o
    896 421 o
    896 418.312 o
    896.001 415.604 o
    896.001 412.894 o
    895.036 341.942 o
    887.05 266.579 o
    864.5 189.898 o
    828.778 126.945 o
    779.975 73.4903 o
    720.963 31.5703 o
    664.165 5.588 o
    603.308 -10.6266 o
    540.273 -16.1855 o
    536.034 -16.1601 o
    531.774 -16.0833 o
    527.52 -15.9551 o
    450.291 -3.94307 o
    377.822 26.2653 o
    315.218 74.0557 o
    263.813 143.301 o
    233.72 222.328 o
    223.981 305.404 o
    233.323 387.869 o
    262.296 467.215 o
    311.979 537.663 o
    348.611 570.524 o
    390.624 596.94 o
    436.819 615.959 o
    484.494 626.892 o
    529.996 631.234 o
    572 632 ]
    0 0 z
  EndSpiro
768 512 m 1
 572 512 l 0
 534.643554688 512 502.80859375 510.139648438 477.524414062 502.188476562 c 0
 451.796875 494.098632812 427.27734375 478.827148438 408.021484375 458.336914062 c 0
 372.45703125 420.491210938 351.981445312 363.358398438 351.981445312 305.404296875 c 0
 351.981445312 247.048828125 372.884765625 191.9921875 408.782226562 155.9453125 c 0
 440.366210938 124.227539062 486.264648438 105.626953125 532.48046875 103.955078125 c 0
 535.06640625 103.861328125 537.6640625 103.814453125 540.2734375 103.814453125 c 0
 579.463867188 103.814453125 619.708984375 114.528320312 655.037109375 134.4296875 c 0
 694.697265625 156.771484375 727.889648438 192.435546875 745.5 234.102539062 c 0
 766.096679688 282.833007812 768.000976562 344.514648438 768.000976562 412.893554688 c 0
 768.000976562 415.5859375 768 418.287109375 768 421 c 0
 768 512 l 1
  Spiro
    768 512 v
    572 512 [
    536.556 511.225 o
    504.925 508.262 o
    477.524 502.188 o
    452.374 491.79 o
    428.859 476.998 o
    408.021 458.337 o
    377.711 414.795 o
    358.594 362.345 o
    351.981 305.404 o
    358.717 248.785 o
    378.127 197.7 o
    408.782 155.945 o
    444.58 128.764 o
    486.933 111.116 o
    532.48 103.955 o
    536.368 103.85 o
    540.273 103.814 o
    579.555 107.322 o
    618.329 117.661 o
    655.037 134.43 o
    692.169 160.911 o
    723.06 194.744 o
    745.5 234.103 o
    760.478 286.862 o
    766.748 347.042 o
    768.001 412.894 o
    768.001 415.586 o
    768 418.294 o
    768 421 ]
    0 0 z
  EndSpiro
EndSplineSet
Fore
SplineSet
480 1040 m 0xbc
 576 1040 677 1021 738 913 c 0
 768 860 768 785 768 749 c 2
 768 0 l 1
 640 0 l 1x7c
 640 123 l 1
 630 123 l 1
 566 35 489 -16 380 -16 c 0
 327 -16 219 10 155 106 c 0
 121 157 96 224 96 301 c 0
 96 383 121 470 184 533 c 0
 274 622 384 622 446 622 c 2
 640 622 l 1
 640 744 l 2
 640 788 640 831 622 862 c 0
 601 898 568 920 480 920 c 0
 421 920 290 906 192 891 c 1
 192 1013 l 1
 289 1027 417 1040 480 1040 c 0xbc
640 512 m 1
 444 512 l 2
 389 512 331 512 280 458 c 0
 244 420 224 362 224 303 c 0
 224 194 297 104 404 104 c 0xbc
 510 104 587 162 618 235 c 0
 640 287 640 349 640 421 c 2
 640 512 l 1
EndSplineSet
Layer: 2
SplineSet
640 980 m 4
 753.1 980 832 901.2875 832 788 c 4
 832 674.7125 753.1 596 640 596 c 4
 526.9 596 448 674.7125 448 788 c 4
 448 901.2875 526.9 980 640 980 c 4
  Spiro
    640 980 o
    739.959 955.445 o
    807.403 888.042 o
    832 788 o
    807.403 687.958 o
    739.959 620.555 o
    640 596 o
    540.041 620.555 o
    472.597 687.958 o
    448 788 o
    472.597 888.042 o
    540.041 955.445 o
    0 0 z
  EndSpiro
530 648 m 0
 707.896484375 648 832 524.19140625 832 346 c 0
 832 167.80859375 707.896484375 44 530 44 c 0
 352.103515625 44 228 167.80859375 228 346 c 0
 228 524.19140625 352.103515625 648 530 648 c 0
  Spiro
    530 648 o
    687.227 609.377 o
    793.311 503.358 o
    832 346 o
    793.311 188.642 o
    687.227 82.6234 o
    530 44 o
    372.773 82.6234 o
    266.689 188.642 o
    228 346 o
    266.689 503.358 o
    372.773 609.377 o
    0 0 z
  EndSpiro
530 572 m 0
 658.415833716 572 748 463.770565257 748 308 c 0
 748 152.229434743 658.415833716 44 530 44 c 0
 400.174621582 44 288 152.229434743 288 308 c 0
 288 463.770565257 400.174621582 572 530 572 c 0
  Spiro
    530 572 o
    643.495 538.237 o
    720.072 445.558 o
    748 308 o
    720.072 170.442 o
    643.495 77.7634 o
    530 44 o
    409.667 77.7634 o
    321.826 170.442 o
    288 308 o
    321.826 445.558 o
    409.667 538.237 o
    0 0 z
  EndSpiro
EndSplineSet
Layer: 3
SplineSet
798 572 m 1
 572 572 l 2
 533.314771203 572 494.076087576 570.678786497 457.172350778 559.074427945 c 0
 420.26861398 547.470069392 386.492077281 526.190721317 360 498 c 0
 311.947263836 446.866173106 287.981201153 375.609337513 287.981201153 305.404730188 c 0
 287.981201153 234.451975462 312.78628906 164.41960592 362 115 c 0
 405.93668744 70.8794950186 467.774736965 46.2512448185 530 44 c 0
 533.423814351 43.8761299842 536.849058237 43.8145693516 540.273846003 43.8145693516 c 0
 591.753735765 43.8145693516 643.130566268 57.7240515552 688 83 c 0
 739.52202676 112.023501833 781.978691441 157.530721941 805 212 c 0
 831.495481996 274.689302499 832.00079465 344.680006573 832.00079465 412.893718175 c 0
 832.00079465 415.598795317 832 418.301077976 832 421 c 2
 832 753 l 2
 832 787.067507676 831.438521313 821.640646179 821.71756104 854.291802523 c 0
 811.996600767 886.942958867 792.78935185 916.954199785 766 938 c 0
 744.543049897 954.856648403 718.867697608 965.876369778 692.295134361 972.076868596 c 0
 665.722571113 978.277367413 638.286387406 979.980882532 611 980 c 0
 610.496344617 980.000176321 l 0
 577.613249573 980.000176321 544.768439117 977.74836546 512 975 c 0
 469.224748792 971.412339858 426.540587814 966.735138154 384 961 c 0
 341.144530926 955.222410916 298.449053443 948.249219781 256 940 c 1024
  Spiro
    798 572 {
    572 572 ]
    360 498 o
    288 302 o
    362 115 o
    530 44 o
    688 83 o
    805 212 o
    832 421 [
    832 753 ]
    766 938 o
    611 980 o
    512 975 o
    384 961 o
    256 940 o
    0 0 z
  EndSpiro
EndSplineSet
Layer: 4
EndChar
StartChar: d
Encoding: 100 100 4
Width: 896
VWidth: 0
Flags: W
HStem: -16 120<317.978 540.384> 920 120<317.978 540.384>
VStem: 96 128<213.326 810.674> 640 128<212.637 811.363>
LayerCount: 5
Back
Fore
SplineSet
432 920 m 4
 528 920 588 847 614 768 c 4
 639 692 640 604 640 512 c 4
 640 420 639 332 614 256 c 4
 588 177 528 104 432 104 c 4
 336 104 276 177 250 256 c 4
 225 332 224 420 224 512 c 4
 224 604 225 692 250 768 c 4
 276 847 336 920 432 920 c 4
412 1040 m 4
 281 1040 171 953 124 803 c 4
 96 713 96 624 96 512 c 4
 96 400 96 311 124 221 c 4
 171 71 281 -16 412 -16 c 4
 495 -16 571 33 630 125 c 5
 640 125 l 5
 640 0 l 5
 768 0 l 5
 768 1536 l 5
 640 1536 l 5
 640 899 l 5
 630 899 l 5
 571 991 495 1040 412 1040 c 4
EndSplineSet
Layer: 2
Layer: 3
Layer: 4
EndChar
StartChar: f
Encoding: 102 102 6
Width: 896
VWidth: 0
Flags: W
HStem: 0 21G<256 384> 904 120<0 256 384 768> 1432 120<413.54 764.604>
VStem: 256 128<0 904 1024 1385.26>
LayerCount: 5
Back
Fore
SplineSet
384 0 m 5
 256 0 l 5
 256 904 l 5
 0 904 l 5
 0 1024 l 5
 256 1024 l 5
 256 1257 l 6
 256 1309 256 1387 308 1457 c 4
 352 1516 433 1552 532 1552 c 4
 594 1552 696.09375 1535 768 1523 c 5
 768 1403 l 5
 696.09375 1414 583 1432 532 1432 c 4
 476 1432 435 1417 412 1387 c 4
 384 1350 384 1301 384 1257 c 6
 384 1024 l 5
 768 1024 l 5
 768 904 l 5
 384 904 l 5
 384 0 l 5
EndSplineSet
Layer: 2
SplineSet
576 1024 m 1
 576 1257 l 2
 576 1285.90673474 576.287679267 1315.01505815 581.945221544 1343.36274816 c 0
 587.602763822 1371.71043817 598.728519398 1399.17598401 616.137789655 1422.2523057 c 0
 633.547059913 1445.32862739 657.057107751 1463.69179233 683.522334142 1475.31896334 c 0
 709.987560532 1486.94613434 739.093632146 1491.85435987 768 1492 c 0
 788.089750259 1492.10121901 808.140866137 1490.03695785 828 1487 c 0
 877.984517403 1479.35611817 927.121817117 1466.95392402 976 1454 c 0
 1025.14199449 1440.97615939 1073.85556538 1426.3300172 1122 1410 c 1024
  Spiro
    576 1024 {
    576 1257 ]
    768 1492 o
    828 1487 o
    976 1454 o
    1122 1410 o
    0 0 z
  EndSpiro
EndSplineSet
Layer: 3
Layer: 4
EndChar
StartChar: g
Encoding: 71 103 7
Width: 896
VWidth: 0
Flags: W
HStem: -528 120<132.158 549.227> -16 120<317.978 540.384> 920 120<317.978 540.384> 1004 20G<640 768>
VStem: 96 128<213.326 810.674> 640 128<-309.979 125 212.637 811.363 899 1024>
LayerCount: 5
Back
Fore
SplineSet
412 1040 m 0xec
 495 1040 571 991 630 899 c 1
 640 899 l 1
 640 1024 l 1
 768 1024 l 1xdc
 768 -96 l 2
 768 -156 768 -267 707 -369 c 0
 652 -461 556 -528 408 -528 c 0
 315 -528 217 -506 128 -489 c 1
 128 -366 l 1
 216 -383 320 -408 408 -408 c 0
 504 -408 559 -369 596 -310 c 0
 640 -239 640 -143 640 -96 c 2
 640 125 l 1
 630 125 l 1
 571 33 495 -16 412 -16 c 0
 281 -16 171 71 124 221 c 0
 96 311 96 400 96 512 c 0
 96 624 96 713 124 803 c 0
 171 953 281 1040 412 1040 c 0xec
432 920 m 0xec
 336 920 276 847 250 768 c 0
 225 692 224 604 224 512 c 0
 224 420 225 332 250 256 c 0
 276 177 336 104 432 104 c 0
 528 104 588 177 614 256 c 0
 639 332 640 420 640 512 c 0
 640 604 639 692 614 768 c 0
 588 847 528 920 432 920 c 0xec
EndSplineSet
Layer: 2
Layer: 3
SplineSet
560 256 m 0
 540.531058528 255.947221234 521.068001614 253.93112987 502 250 c 0
 429.609085841 235.075620889 363.438945309 190.787450634 323.3553728 128.686816502 c 0
 295.049798907 84.8335874058 280.159157176 32.615220877 280.159157176 -19.5380184051 c 0
 280.159157176 -41.2390721402 282.737332713 -62.9288497008 288 -84 c 1
 209 -374 l 1
 242.96542309 -380.84150246 276.961124633 -387.533850806 311 -394 c 0
 348.904671387 -401.200509937 386.85129422 -408.230450311 425 -414 c 0
 461.90225773 -419.581038865 499.006770216 -423.98450874 536.377578814 -424.000158115 c 0
 559.041833588 -424.000158115 581.745827027 -422.289510396 604 -418 c 0
 640.10095022 -411.041511745 674.92790157 -396.960217035 705.038701814 -375.864272538 c 0
 735.149502059 -354.768328042 760.351981447 -326.936162582 779.427369943 -295.506419991 c 0
 817.886880116 -232.13824769 832.002686517 -156.82331051 832.002686517 -82.2233925653 c 0
 832.002686517 -11.0094668425 819.032413309 61.5201974215 784.179541127 123.59687694 c 0
 766.608167036 154.893366725 743.26464813 183.100056667 714.856993763 205.036980648 c 0
 686.449339397 226.973904628 653.075441808 242.38837453 618 250 c 0
 598.968519222 254.12996947 579.474370882 256.052793484 560 256 c 0
  Spiro
    560 256 o
    502 250 o
    288 -84 v
    209 -374 v
    311 -394 o
    425 -414 o
    536 -424 o
    604 -418 o
    832 -84 o
    618 250 o
    0 0 z
  EndSpiro
EndSplineSet
Layer: 4
EndChar
StartChar: i
Encoding: 105 105 9
Width: 896
VWidth: 0
Flags: W
HStem: 0 120<128 384 512 768> 904 120<128 384> 1328 224<325.032 506.968>
VStem: 304 224<1349.03 1530.97> 384 128<120 904>
LayerCount: 5
Back
Fore
SplineSet
128 0 m 1xe8
 128 120 l 1
 384 120 l 1
 384 904 l 1
 128 904 l 1
 128 1024 l 1
 512 1024 l 1
 512 120 l 1
 768 120 l 1
 768 0 l 1
 128 0 l 1xe8
416 1552 m 0
 482 1552 528 1506 528 1440 c 0
 528 1374 482 1328 416 1328 c 0
 350 1328 304 1374 304 1440 c 0xf0
 304 1506 350 1552 416 1552 c 0
EndSplineSet
Layer: 2
Layer: 3
Layer: 4
EndChar
StartChar: k
Encoding: 107 107 11
Width: 896
VWidth: 0
Flags: W
HStem: 0 21G<128 256 705.964 874> 1004 20G<636.815 827> 1516 20G<128 256>
VStem: 128 128<0 435 607 1536>
LayerCount: 5
Back
SplineSet
384 0 m 5
 256 0 l 5
 256 1536 l 5
 384 1536 l 5
 384 495.726689051 l 5
 912.272646996 1024 l 5
 1087.72664541 1024 l 5
 596.727400787 533.000138275 l 5
 1129.72753906 0 l 5
 954.2734375 -2.84217094304e-14 l 5
 509.000405135 445.273032365 l 5
 384 320.272470124 l 5
 384 0 l 5
EndSplineSet
Fore
SplineSet
256 0 m 1
 128 0 l 1
 128 1536 l 1
 256 1536 l 1
 256 607 l 1
 656 1024 l 1
 827 1024 l 1
 464 645 l 1
 874 0 l 1
 718 0 l 1
 381 560 l 1
 256 435 l 1
 256 0 l 1
EndSplineSet
Layer: 2
SplineSet
515 527 m 29
 1460 -418 l 1053
330 354 m 29
 1107 1131 l 1053
EndSplineSet
Layer: 3
Layer: 4
EndChar
StartChar: m
Encoding: 77 109 13
Width: 896
VWidth: 0
Flags: W
HStem: 0 21G<0 128 384 512 768 896> 920 120<177.688 356.007 540.183 740.188> 1004 20G<0 128>
VStem: 0 128<0 892.675 949 1024> 384 128<0 892.675> 768 128<0 891.29>
CounterMasks: 1 1c
LayerCount: 5
Back
SplineSet
798 1040 m 4
 873.575757576 1040 934.907880149 1003.9316998 972 954 c 4
 1024 884 1024 814 1024 730 c 6
 1024 0 l 5
 896 0 l 5
 896 730 l 6
 896 797 895.999862231 844.999878439 866 879 c 4
 844.900390625 902.913085938 811 920 768 920 c 4
 725 920 691.099403425 902.912657215 670 879 c 4
 640 845 640 797 640 730 c 6
 640 0 l 5
 512 0 l 5
 512 1024 l 5
 640 1024 l 5
 640 949 l 5
 650 949 l 5
 690.46875 1007.70967742 737.757911392 1040 798 1040 c 4
414 1040 m 4
 489.575757576 1040 550.907880149 1003.9316998 588 954 c 4
 640 884 640 814 640 730 c 6
 640 0 l 5
 512 0 l 5
 512 730 l 6
 512 797 511.999862231 844.999878439 482 879 c 4
 460.900390625 902.913085938 427 920 384 920 c 4
 341 920 307.099403425 902.912657215 286 879 c 4
 256 845 256 797 256 730 c 6
 256 0 l 5
 128 0 l 5
 128 1024 l 5
 256 1024 l 5
 256 949 l 5
 266 949 l 5
 306.46875 1007.70967742 353.757911392 1040 414 1040 c 4
EndSplineSet
Fore
SplineSet
286 1040 m 0xdc
 370 1040 434 992 469 929 c 1
 524 1001 588 1040 670 1040 c 0
 746 1040 807 1004 844 954 c 0
 896 884 896 814 896 730 c 2
 896 0 l 1
 768 0 l 1
 768 730 l 2
 768 797 768 845 738 879 c 0
 717 903 683 920 640 920 c 0
 597 920 563 903 542 879 c 0
 512 845 512 797 512 730 c 2
 512 0 l 1
 384 0 l 1
 384 730 l 2
 384 797 384 845 354 879 c 0
 333 903 299 920 256 920 c 0xdc
 213 920 179 903 158 879 c 0
 128 845 128 797 128 730 c 2
 128 0 l 1
 0 0 l 1
 0 1024 l 1
 128 1024 l 1xbc
 128 949 l 1
 138 949 l 1
 178 1008 226 1040 286 1040 c 0xdc
EndSplineSet
Layer: 2
SplineSet
384 980 m 0
 497.099786932 980 576 901.287286932 576 788 c 0
 576 674.712713068 497.099786932 596 384 596 c 0
 270.900213068 596 192 674.712713068 192 788 c 0
 192 901.287286932 270.900213068 980 384 980 c 0
EndSplineSet
Layer: 3
SplineSet
192 1024 m 1
 192 0 l 1025
  Spiro
    192 1024 {
    192 0 v
    0 0 z
  EndSpiro
192 0 m 1
 192 760 l 2
 192 787.714711887 192.512031429 815.691153786 199.014153359 842.632342798 c 0
 205.51627529 869.57353181 217.939956758 895.189749935 235.965433786 916.241767246 c 0
 253.990910815 937.293784557 277.303335918 953.63755532 302.899995799 964.263761507 c 0
 328.49665568 974.889967693 356.285288113 980.000000001 384 980 c 0
 411.714711887 980 439.503344321 974.889967691 465.100004202 964.263761504 c 0
 490.696664082 953.637555316 514.009089185 937.293784552 532.034566213 916.24176724 c 0
 550.060043242 895.18974993 562.483724709 869.573531806 568.98584664 842.632342795 c 0
 575.487968571 815.691153784 576 787.714711886 576 760 c 2
 576 0 l 1025
  Spiro
    192 0 {
    192 760 ]
    384 980 o
    576 760 [
    576 0 v
    0 0 z
  EndSpiro
EndSplineSet
Layer: 4
EndChar
StartChar: p
Encoding: 112 112 16
Width: 896
VWidth: 0
Flags: W
HStem: -16 120<355.616 578.022> 920 120<355.616 578.022>
VStem: 128 128<212.637 811.363> 672 128<213.326 810.674>
LayerCount: 5
Back
Fore
SplineSet
464 104 m 4
 368 104 308 177 282 256 c 4
 257 332 256 420 256 512 c 4
 256 604 257 692 282 768 c 4
 308 847 368 920 464 920 c 4
 560 920 620 847 646 768 c 4
 671 692 672 604 672 512 c 4
 672 420 671 332 646 256 c 4
 620 177 560 104 464 104 c 4
484 -16 m 4
 615 -16 725 71 772 221 c 4
 800 311 800 400 800 512 c 4
 800 624 800 713 772 803 c 4
 725 953 615 1040 484 1040 c 4
 401 1040 325 991 266 899 c 5
 256 899 l 5
 256 1024 l 5
 128 1024 l 5
 128 -512 l 5
 256 -512 l 5
 256 125 l 5
 266 125 l 5
 325 33 401 -16 484 -16 c 4
EndSplineSet
Layer: 2
Layer: 3
Layer: 4
EndChar
StartChar: q
Encoding: 113 113 17
Width: 896
VWidth: 0
Flags: W
HStem: -16 120<317.978 540.384> 920 120<317.978 540.384> 1004 20G<640 768>
VStem: 96 128<213.326 810.674> 640 128<-512 125 212.637 811.363 899 1024>
LayerCount: 5
Back
Fore
SplineSet
432 104 m 4xd8
 528 104 588 177 614 256 c 4
 639 332 640 420 640 512 c 4
 640 604 639 692 614 768 c 4
 588 847 528 920 432 920 c 4
 336 920 276 847 250 768 c 4
 225 692 224 604 224 512 c 4
 224 420 225 332 250 256 c 4
 276 177 336 104 432 104 c 4xd8
412 -16 m 4
 281 -16 171 71 124 221 c 4
 96 311 96 400 96 512 c 4
 96 624 96 713 124 803 c 4
 171 953 281 1040 412 1040 c 4xd8
 495 1040 571 991 630 899 c 5
 640 899 l 5
 640 1024 l 5
 768 1024 l 5xb8
 768 -512 l 5
 640 -512 l 5
 640 125 l 5
 630 125 l 5
 571 33 495 -16 412 -16 c 4
EndSplineSet
Layer: 2
Layer: 3
Layer: 4
EndChar
StartChar: v
Encoding: 86 118 1
Width: 896
VWidth: 0
Flags: W
HStem: 0 119<426.551 469.449> 1004 20G<73 228.222 667.778 823>
VStem: 73 135<735.781 1024> 688 135<735.781 1024>
LayerCount: 5
Back
Fore
SplineSet
73 1024 m 5
 208 1024 l 5
 248.444444444 667.171428571 324 364.125714286 443 119 c 5
 453 119 l 5
 572 364.125714286 647.555555556 667.171428571 688 1024 c 5
 823 1024 l 5
 783.617376775 663 702.492063492 318 528 0 c 5
 368 0 l 5
 193.507936508 318 112.382623225 663 73 1024 c 5
EndSplineSet
Layer: 2
SplineSet
64 1536 m 5
 640 20 l 5
 1216 1536 l 1029
EndSplineSet
Layer: 3
Layer: 4
EndChar
StartChar: w
Encoding: 87 119 22
Width: 896
VWidth: 0
Flags: W
HStem: 0 21G<129 289.417 606.583 767> 1004 20G<8 139 757 888>
VStem: 8 131<559.059 1024> 757 131<559.059 1024>
LayerCount: 5
Back
SplineSet
1138 1124 m 5
 896 14 l 5
 640 1009 l 5
 384 14 l 5
 142 1124 l 1029
EndSplineSet
Fore
SplineSet
386 767 m 1
 510 767 l 1
 674 140 l 1
 684 140 l 1
 734.26493069 412.584766585 757 716.663390663 757 1024 c 5
 888 1024 l 5
 888 681 847.132450331 340 767 2 c 1
 612 0 l 1
 453 587 l 1
 443 587 l 1
 284 0 l 1
 129 2 l 1
 48.8675496689 340 8 681 8 1024 c 1
 139 1024 l 1
 139 716.663390663 161.73506931 412.584766585 212 140 c 1
 222 140 l 1
 386 767 l 1
EndSplineSet
Layer: 2
Layer: 3
Layer: 4
EndChar
StartChar: y
Encoding: 89 121 24
Width: 896
VWidth: 0
Flags: W
HStem: -528 114<128 293.108> 1004 20G<73 229.261 663.724 823>
VStem: 73 135<738.514 1024> 688 135<794.6 1024>
LayerCount: 5
Back
Fore
SplineSet
369 0 m 5
 189.221001859 328 113.296495957 663 73 1024 c 5
 208 1024 l 5
 250.522033898 651.11663067 330.284745763 332.399568035 464 78 c 5
 474 78 l 5
 573.043249091 406.264324494 639.447334291 719.649011292 688 1024 c 5
 823 1024 l 5
 730.14273855 536.225537016 635.864794847 33.8576774691 418 -401 c 4
 372.35865925 -492.100021227 277.044038811 -528 128 -528 c 5
 128 -414 l 5
 225.844538719 -414 279.789942502 -403.543610306 307 -352 c 4
 365.61342364 -240.969456718 413.039075525 -129.902169034 457 0 c 5
 369 0 l 5
EndSplineSet
Layer: 2
SplineSet
391 -728 m 5
 391 -728 1005.36170213 962.091816367 1216 1536 c 1029
  Spiro
    391 -728 {
    557.788 -269.387 o
    908.89 694.973 o
    1216 1536 v
    0 0 z
  EndSpiro
653 5 m 5
 64 1536 l 1029
  Spiro
    653 5 {
    64 1536 v
    0 0 z
  EndSpiro
EndSplineSet
Layer: 3
SplineSet
596 -54 m 1
 466 -358 l 2
 457.563898426 -377.727499064 448.453103785 -397.460990346 434.85359019 -414.056027528 c 0
 421.254076596 -430.65106471 403.53896582 -443.783312939 383.822117037 -452.244276427 c 0
 364.105268254 -460.705239913 342.71200732 -464.662751865 321.32882854 -466.42391464 c 0
 299.94564976 -468.185077414 278.455582701 -468.000000003 257 -468 c 2
 256 -468 l 1025
  Spiro
    596 -54 {
    466 -358 ]
    257 -468 [
    256 -468 o
    0 0 z
  EndSpiro
EndSplineSet
Layer: 4
EndChar
StartChar: z
Encoding: 90 122 25
Width: 896
VWidth: 0
Flags: W
HStem: 0 120<273 768> 904 120<148 603>
VStem: 128 640<0 92>
LayerCount: 5
Back
Fore
SplineSet
148 904 m 1
 148 1024 l 1
 748 1024 l 1
 748 934 l 1
 273 130 l 1
 273 120 l 1
 768 120 l 1
 768 0 l 1
 128 0 l 1
 128 92 l 1
 603 894 l 1
 603 904 l 1
 148 904 l 1
EndSplineSet
Layer: 2
Layer: 3
Layer: 4
EndChar
StartChar: braceleft
Encoding: 91 123 91
Width: 896
VWidth: 0
Flags: W
HStem: -256 120<589.254 768> 643 120<128 307.539> 1542 120<589.254 768>
VStem: 384 128<-67.9502 574.95 831.05 1473.95>
CounterMasks: 1 e0
LayerCount: 5
Back
SplineSet
640 416 m 6
 640 91 l 6
 640 33 640.077917467 0.0374864260535 654 -29 c 4
 689 -102 798 -136 896 -136 c 5
 896 -256 l 5
 744 -256 591.519026057 -195.761096283 537 -78 c 4
 512 -24 512 23 512 91 c 6
 512 416 l 6
 512 474 511.921896754 506.962901055 498 536 c 4
 463 609 354 643 256 643 c 5
 256 763 l 5
 354 763 463 797 498 870 c 4
 511.921896754 899.037098945 512 932 512 990 c 6
 512 1315 l 6
 512 1383 512 1430 537 1484 c 4
 591.51880786 1601.76062498 744 1662 896 1662 c 5
 896 1542 l 5
 798 1542 689 1508 654 1435 c 4
 640.078103246 1405.96290106 640 1373 640 1315 c 6
 640 990 l 6
 640 922 640 875 615 821 c 4
 592.032657898 771.39054106 551.679778223 731.989468327 501.301407315 703 c 5
 551.679778223 674.010531673 592.032657898 634.60945894 615 585 c 4
 640 531 640 484 640 416 c 6
EndSplineSet
Fore
SplineSet
353 698 m 1
 412 674 463 637 487 585 c 0
 512 531 512 484 512 416 c 2
 512 91 l 2
 512 33 512 0 526 -29 c 0
 561 -102 670 -136 768 -136 c 1
 768 -256 l 1
 616 -256 464 -196 409 -78 c 0
 384 -24 384 23 384 91 c 2
 384 416 l 2
 384 474 384 507 370 536 c 0
 335 609 226 643 128 643 c 1
 128 763 l 1
 226 763 335 797 370 870 c 0
 384 899 384 932 384 990 c 2
 384 1315 l 2
 384 1383 384 1430 409 1484 c 0
 464 1602 616 1662 768 1662 c 1
 768 1542 l 1
 670 1542 561 1508 526 1435 c 0
 512 1406 512 1373 512 1315 c 2
 512 990 l 2
 512 922 512 875 487 821 c 0
 463 769 412 732 353 708 c 1
 353 698 l 1
EndSplineSet
Layer: 2
SplineSet
256 703 m 1
 333.445417677 702.89678855 412.590410469 686.465515421 478 645 c 0
 510.941316011 624.117302879 539.571697007 595.426230467 556.378441743 560.230340495 c 0
 564.781814111 542.632395509 570.189315691 523.668689539 573.000642208 504.371001125 c 0
 575.811968726 485.073312712 576 465.501393153 576 446 c 2
 576 61 l 2
 576 41.4986068473 576.188031274 21.9266872881 578.999357792 2.62899887457 c 0
 581.810684309 -16.668689539 587.218185889 -35.632395509 595.621558257 -53.2303404953 c 0
 612.428302993 -88.4262304676 641.058683989 -117.117302879 674 -138 c 0
 739.409589531 -179.465515421 818.554582323 -195.89678855 896 -196 c 1
 -284 -340 l 1
 256 703 l 1
  Spiro
    256 703 v
    478 645 o
    576 446 [
    576 61 ]
    674 -138 o
    896 -196 v
    -284 -340 v
    0 0 z
  EndSpiro
EndSplineSet
Layer: 3
SplineSet
777 -256 m 5
 629 -256 l 5
 460 34 368 368 368 703 c 4
 368 1039 459 1374 629 1664 c 5
 777 1664 l 5
 596 1379 496 1041 496 703 c 4
 496 365 596 28 777 -256 c 5
EndSplineSet
Layer: 4
EndChar
StartChar: braceright
Encoding: 125 125 93
Width: 640
VWidth: 0
Flags: W
HStem: -256 120<128 306.746> 643 120<588.461 768> 1542 120<128 306.746>
VStem: 384 128<-67.9502 91 416 574.95 831.05 990 1315 1473.95>
CounterMasks: 1 e0
LayerCount: 5
Back
Fore
SplineSet
543 698 m 1
 484 674 433 637 409 585 c 0
 384 531 384 484 384 416 c 2
 384 91 l 2
 384 33 384 0 370 -29 c 0
 335 -102 226 -136 128 -136 c 1
 128 -256 l 1
 280 -256 432 -196 487 -78 c 0
 512 -24 512 23 512 91 c 2
 512 416 l 2
 512 474 512 507 526 536 c 0
 561 609 670 643 768 643 c 1
 768 763 l 1
 670 763 561 797 526 870 c 0
 512 899 512 932 512 990 c 2
 512 1315 l 2
 512 1383 512 1430 487 1484 c 0
 432 1602 280 1662 128 1662 c 1
 128 1542 l 1
 226 1542 335 1508 370 1435 c 0
 384 1406 384 1373 384 1315 c 2
 384 990 l 2
 384 922 384 875 409 821 c 0
 433 769 484 732 543 708 c 1
 543 698 l 1
EndSplineSet
Layer: 2
Layer: 3
Layer: 4
EndChar
StartChar: tilde
Encoding: 126 126 94
Width: 896
VWidth: 0
Flags: W
HStem: 508 120<561.238 736.98> 780 120<159.02 334.762>
VStem: 0 128<512 753.595> 768 128<654.405 896>
LayerCount: 5
Back
SplineSet
51 313 m 1
 59.4921569579 379.262446475 61.1959483506 446.195882261 61 513 c 0
 60.7930687626 583.548482312 59.1868690242 656.479768866 86.0785717934 721.70221515 c 0
 99.5244231781 754.313438291 120.47878841 784.221970268 148.575346675 805.549562909 c 0
 176.671904941 826.87715555 211.725608068 839.008251079 247 839 c 0
 289.072266421 838.990158821 329.971054602 821.803130875 363.16626989 795.954467842 c 0
 396.361485178 770.105804809 422.426831329 736.407914386 447.999999987 703.000000003 c 0
 473.573168649 669.592085618 499.638514805 635.894195193 532.833730097 610.045532158 c 0
 566.028945389 584.196869124 606.927733575 567.009841177 649 567 c 0
 684.274391932 566.991748921 719.328095059 579.122844451 747.424653324 600.450437092 c 0
 775.52121159 621.778029733 796.475576822 651.68656171 809.921428206 684.297784851 c 0
 836.813130975 749.520231134 835.206931237 822.451517689 835 893 c 0
 834.804051649 959.804117739 836.507843042 1026.73755353 845 1093 c 1
 51 313 l 1
  Spiro
    51 313 v
    61 513 o
    247 839 o
    649 567 o
    835 893 o
    845 1093 v
    0 0 z
  EndSpiro
EndSplineSet
Fore
SplineSet
128 512 m 5
 0 512 l 5
 0 731.129533679 36.556 900 247 900 c 4
 474 900 508 628 649 628 c 4
 762.147540984 628 768 723.714285714 768 896 c 5
 896 896 l 5
 896 676.870466321 859.444 508 649 508 c 4
 422 508 388 780 247 780 c 4
 133.852459016 780 128 684.285714286 128 512 c 5
EndSplineSet
Layer: 2
SplineSet
125 514.165039062 m 5
 -3 513.834960938 l 5
 -3.203125 583.14453125 -6.576171875 664.3984375 26.3828125 744.334960938 c 4
 43.0703125 784.806640625 69.53515625 823.75390625 108.301757812 853.180664062 c 4
 147.288085938 882.7734375 196.099609375 900.01171875 247.016601562 900 c 4
 307.869140625 899.985351562 362.120117188 875.765625 404.05859375 843.110351562 c 4
 445.59375 810.766601562 474.380859375 772.4453125 499.99609375 738.982421875 c 4
 525.526367188 705.630859375 548.872070312 676.5546875 573.725585938 657.201171875 c 4
 598.1796875 638.159179688 625.724609375 628.005859375 649.015625 628 c 4
 668.649414062 627.995117188 689.94140625 635.018554688 707.151367188 648.08203125 c 4
 724.58203125 661.3125 740.017578125 682.172851562 750.2265625 706.930664062 c 4
 771.051757812 757.440429688 771.2109375 822.044921875 771 893.834960938 c 5
 899 894.165039062 l 5
 899.203125 824.857421875 902.575195312 743.600585938 869.6171875 663.666015625 c 4
 852.93359375 623.201171875 826.4609375 584.2421875 787.698242188 554.819335938 c 4
 748.71484375 525.228515625 699.899414062 507.98828125 648.984375 508 c 4
 588.130859375 508.014648438 533.87890625 532.235351562 491.942382812 564.889648438 c 4
 450.405273438 597.234375 421.620117188 635.553710938 396.00390625 669.016601562 c 4
 370.47265625 702.37109375 347.12890625 731.444335938 322.2734375 750.799804688 c 4
 297.821289062 769.83984375 270.275390625 779.995117188 246.983398438 780 c 4
 227.3515625 780.004882812 206.055664062 772.98046875 188.848632812 759.91796875 c 4
 171.421875 746.690429688 155.978515625 725.819335938 145.7734375 701.068359375 c 4
 124.94921875 650.561523438 124.7890625 585.953125 125 514.165039062 c 5
EndSplineSet
Layer: 3
Layer: 4
EndChar
StartChar: exclamdown
Encoding: 161 161 101
Width: 896
VWidth: 0
Flags: W
VStem: 320 256
LayerCount: 5
Back
Fore
SplineSet
320 640 m 1
 576 640 l 1
 576 896 l 1
 320 896 l 1
 320 640 l 1
512 384 m 1
 384 384 l 1
 374 -512 l 1
 522 -512 l 1
 512 384 l 1
EndSplineSet
Layer: 2
Layer: 3
Layer: 4
EndChar
StartChar: brokenbar
Encoding: 166 166 315
Width: 896
VWidth: 0
Flags: W
HStem: 1024 21G<384 512>
VStem: 384 128<-248 384 1024 1660>
LayerCount: 5
Back
Fore
SplineSet
512 1660 m 1
 512 1024 l 5
 384 1024 l 5
 384 1660 l 1
 512 1660 l 1
512 384 m 1
 512 -248 l 1
 384 -248 l 1
 384 384 l 1
 512 384 l 1
EndSplineSet
Layer: 2
Layer: 3
Layer: 4
EndChar
StartChar: dieresis
Encoding: 168 168 316
Width: 896
VWidth: 0
Flags: W
HStem: 1136 224<133.032 314.968 581.032 762.968>
VStem: 112 224<1157.03 1338.97> 560 224<1157.03 1338.97>
LayerCount: 5
Back
Fore
SplineSet
224 1360 m 4
 290 1360 336 1314 336 1248 c 4
 336 1182 290 1136 224 1136 c 4
 158 1136 112 1182 112 1248 c 4
 112 1314 158 1360 224 1360 c 4
672 1360 m 4
 738 1360 784 1314 784 1248 c 4
 784 1182 738 1136 672 1136 c 4
 606 1136 560 1182 560 1248 c 4
 560 1314 606 1360 672 1360 c 4
EndSplineSet
Layer: 2
Layer: 3
Layer: 4
EndChar
StartChar: guillemotleft
Encoding: 171 171 314
Width: 896
VWidth: 0
Flags: W
LayerCount: 5
Back
Fore
SplineSet
509 581 m 5
 809 971 l 5
 705 1039 l 5
 384 610 l 5
 384 542 l 5
 705 113 l 5
 809 181 l 5
 509 571 l 5
 509 581 l 5
125 581 m 5
 425 971 l 5
 321 1039 l 5
 0 610 l 5
 0 542 l 5
 321 113 l 5
 425 181 l 5
 125 571 l 5
 125 581 l 5
EndSplineSet
Layer: 2
Layer: 3
Layer: 4
EndChar
StartChar: logicalnot
Encoding: 172 172 318
Width: 896
VWidth: 0
Flags: W
HStem: 644 120<0 768>
VStem: 768 128<384 644>
LayerCount: 5
Back
Fore
SplineSet
896 764 m 5
 896 384 l 5
 768 384 l 5
 768 644 l 5
 0 644 l 5
 0 764 l 5
 896 764 l 5
EndSplineSet
Layer: 2
Layer: 3
Layer: 4
EndChar
StartChar: macron
Encoding: 175 175 319
Width: 896
VWidth: 0
Flags: W
HStem: 1156 120<128 768>
VStem: 128 640<1156 1276>
LayerCount: 5
Back
Fore
SplineSet
128 1276 m 5
 768 1276 l 5
 768 1156 l 5
 128 1156 l 5
 128 1276 l 5
EndSplineSet
Layer: 2
Layer: 3
Layer: 4
EndChar
StartChar: degree
Encoding: 176 176 317
Width: 896
VWidth: 0
Flags: W
HStem: 1008 100<363.338 532.662> 1324 100<363.338 532.662>
VStem: 240 108<1121.57 1310.43> 548 108<1121.57 1310.43>
LayerCount: 5
Back
Fore
SplineSet
448 1324 m 4
 390 1324 348 1290 348 1216 c 4
 348 1142 390 1108 448 1108 c 4
 506 1108 548 1142 548 1216 c 4
 548 1290 506 1324 448 1324 c 4
448 1424 m 4
 571 1424 656 1330 656 1216 c 4
 656 1102 571 1008 448 1008 c 4
 325 1008 240 1102 240 1216 c 4
 240 1330 325 1424 448 1424 c 4
EndSplineSet
Layer: 2
Layer: 3
Layer: 4
EndChar
StartChar: acute
Encoding: 180 180 311
Width: 896
VWidth: 0
Flags: W
HStem: 1024 384
LayerCount: 5
Back
Fore
SplineSet
617 1024 m 5
 755 1024 l 5
 921 1408 l 5
 783 1408 l 5
 617 1024 l 5
EndSplineSet
Layer: 2
Layer: 3
Layer: 4
EndChar
StartChar: paragraph
Encoding: 182 182 312
Width: 896
VWidth: 0
Flags: W
HStem: 0 21G<384 512 640 768> 1288 120<512.299 640>
VStem: 112 400<832.979 1210.6> 384 128<0 668.749> 640 128<0 1288>
LayerCount: 5
Back
Fore
SplineSet
512 1288 m 1xd8
 512 0 l 1
 384 0 l 1
 384 655 l 1xd8
 228 695 112 831 112 1024 c 0xe8
 112 1220 232 1357 391 1395 c 0
 446 1408 498 1408 575 1408 c 2
 768 1408 l 1
 768 0 l 1
 640 0 l 1
 640 1288 l 1
 512 1288 l 1xd8
EndSplineSet
Layer: 2
Layer: 3
Layer: 4
EndChar
StartChar: periodcentered
Encoding: 183 183 95
Width: 896
VWidth: 0
Flags: W
HStem: 384 256<256 512>
VStem: 256 256<384 640>
LayerCount: 5
Back
Fore
SplineSet
256 640 m 1
 512 640 l 1
 512 384 l 1
 256 384 l 1
 256 640 l 1
EndSplineSet
Layer: 2
Layer: 3
Layer: 4
EndChar
StartChar: guillemotright
Encoding: 109 187 313
Width: 896
VWidth: 0
Flags: W
HStem: 1019 20G<160.412 205.965 544.412 589.965>
LayerCount: 5
Back
SplineSet
520 147 m 5
 841 576 l 5
 520 1005 l 1029
EndSplineSet
Fore
SplineSet
387 581 m 5
 87 971 l 5
 191 1039 l 5
 512 610 l 5
 512 542 l 5
 191 113 l 5
 87 181 l 5
 387 571 l 5
 387 581 l 5
771 581 m 5
 471 971 l 5
 575 1039 l 5
 896 610 l 5
 896 542 l 5
 575 113 l 5
 471 181 l 5
 771 571 l 5
 771 581 l 5
EndSplineSet
Layer: 2
Layer: 3
Layer: 4
EndChar
StartChar: questiondown
Encoding: 191 191 102
Width: 896
VWidth: 0
Flags: W
HStem: -528 120<317.923 718.932> 640 256<320 576>
VStem: 116 128<-336.744 -42.9988> 320 256<640 896> 384 128<246.095 384>
LayerCount: 5
Back
Fore
SplineSet
576 640 m 1xf0
 320 640 l 1
 320 896 l 1
 576 896 l 1
 576 640 l 1xf0
512 384 m 1xe8
 512 100 244 50 244 -196 c 0
 244 -332 325 -408 460 -408 c 0
 544 -408 667 -376 768 -351 c 1
 768 -475 l 1
 664 -501 549 -528 460 -528 c 0
 255 -528 116 -402 116 -196 c 0
 116 90 383 169 384 384 c 1
 512 384 l 1xe8
EndSplineSet
Layer: 2
Layer: 3
Layer: 4
EndChar
StartChar: Acircumflex
Encoding: 194 194 98
Width: 896
VWidth: 0
Flags: HW
HStem: 0 21G<5 145 751 891> 388 120<206 690> 1161 119<422.442 473.558> 1408 21G<72 256.585 639.415 824>
LayerCount: 5
Back
Refer: 89 94 N 1 0 0 1 0 650 2
Refer: 29 65 N 1 0 0 1 0 0 3
Fore
SplineSet
5 0 m 1
 46 451 131 882 388 1280 c 1
 508 1280 l 1
 765 882 850 451 891 0 c 5
 756 0 l 5
 746 136 733 265 716 388 c 5
 180 388 l 1
 163 265 150 136 140 0 c 1
 5 0 l 1
690 508 m 5
 639 752 565 970 453 1161 c 1
 443 1161 l 1
 331 970 257 752 206 508 c 1
 690 508 l 5
369 1664 m 1
 527 1664 l 1
 824 1408 l 1
 666 1408 l 1
 448 1572 l 1
 230 1408 l 1
 72 1408 l 1
 369 1664 l 1
EndSplineSet
Layer: 2
Layer: 3
Layer: 4
EndChar
StartChar: Atilde
Encoding: 195 195 99
Width: 896
VWidth: 0
Flags: W
HStem: 0 21G<5 145 751 891> 388 120<206 690> 1161 119<422.442 473.558> 1412 120<495.658 628.749> 1540 120<267.276 400.342>
VStem: 125 128<1433 1533.1> 643 128<1539.78 1639>
LayerCount: 5
Back
Refer: 94 126 N 1 0 0 1 0 1036 2
Refer: 29 65 N 1 0 0 1 0 0 3
Fore
SplineSet
5 0 m 1
 46 451 131 882 388 1280 c 1
 508 1280 l 1
 765 882 850 451 891 0 c 5
 756 0 l 5
 746 136 733 265 716 388 c 5
 180 388 l 1
 163 265 150 136 140 0 c 1
 5 0 l 1
690 508 m 5
 639 752 565 970 453 1161 c 1
 443 1161 l 1
 331 970 257 752 206 508 c 1
 690 508 l 5
320 1540 m 0
 269 1540 256 1481 253 1427 c 1
 125 1433 l 1
 129 1551 191 1660 320 1660 c 0
 466 1660 499 1532 576 1532 c 0
 627 1532 640 1591 643 1645 c 1
 771 1639 l 1
 768 1523 705 1412 576 1412 c 0
 430 1412 397 1540 320 1540 c 0
EndSplineSet
Layer: 2
Layer: 3
Layer: 4
EndChar
StartChar: Adieresis
Encoding: 196 196 105
Width: 896
VWidth: 0
Flags: W
HStem: 0 21G<5 145 751 891> 388 120<206 690> 1161 119<422.442 473.558> 1456 224<133.032 314.968 581.032 762.968>
VStem: 112 224<1477.03 1658.97> 560 224<1477.03 1658.97>
LayerCount: 5
Back
Fore
SplineSet
5 0 m 1
 46 451 131 882 388 1280 c 1
 508 1280 l 1
 765 882 850 451 891 0 c 5
 756 0 l 5
 746 136 733 265 716 388 c 5
 180 388 l 1
 163 265 150 136 140 0 c 1
 5 0 l 1
690 508 m 5
 639 752 565 970 453 1161 c 1
 443 1161 l 1
 331 970 257 752 206 508 c 1
 690 508 l 5
672 1680 m 0
 738 1680 784 1634 784 1568 c 0
 784 1502 738 1456 672 1456 c 0
 606 1456 560 1502 560 1568 c 0
 560 1634 606 1680 672 1680 c 0
224 1680 m 0
 290 1680 336 1634 336 1568 c 0
 336 1502 290 1456 224 1456 c 0
 158 1456 112 1502 112 1568 c 0
 112 1634 158 1680 224 1680 c 0
EndSplineSet
Layer: 2
Layer: 3
Layer: 4
EndChar
StartChar: Aring
Encoding: 197 197 105
Width: 896
VWidth: 0
Flags: W
HStem: 0 21G<5 145 751 891> 388 120<206 690> 1229 135<422.442 473.558> 1580 100<363.338 532.662>
VStem: 240 108<1377.71 1566.43> 548 108<1377.71 1566.43>
LayerCount: 5
Back
Fore
SplineSet
690 508 m 5
 639 777 565 1018 453 1229 c 1
 443 1229 l 1
 331 1018 257 777 206 508 c 1
 690 508 l 5
448 1580 m 0
 390 1580 348 1546 348 1472 c 0
 348 1398 390 1364 448 1364 c 0
 506 1364 548 1398 548 1472 c 0
 548 1546 506 1580 448 1580 c 0
448 1680 m 0
 571 1680 656 1586 656 1472 c 0
 656 1392 614 1322 547 1287 c 1
 774 885 852 452 891 0 c 5
 756 0 l 5
 746 136 733 265 716 388 c 5
 180 388 l 1
 163 265 150 136 140 0 c 1
 5 0 l 1
 44 452 122 885 349 1287 c 1
 282 1322 240 1392 240 1472 c 0
 240 1586 325 1680 448 1680 c 0
EndSplineSet
Layer: 2
Layer: 3
Layer: 4
EndChar
StartChar: AE
Encoding: 117 198 106
Width: 896
VWidth: 0
Flags: W
HStem: 0 120<640 896> 388 120<165 512> 644 120<640 896> 1288 120<273.721 512 640 896>
VStem: 5 135<0 367.797> 512 384<0 120 644 764> 512 128<120 388 508 644 764 1288>
LayerCount: 5
Back
Fore
SplineSet
512 508 m 1xfa
 512 1288 l 1
 284 1288 l 1
 228 1060 191 800 165 508 c 5
 512 508 l 1xfa
512 388 m 1
 144 388 l 5
 140 278 140 155 140 0 c 5
 5 0 l 5
 5 496 79 971 229 1408 c 1
 896 1408 l 1
 896 1288 l 1xfc
 640 1288 l 1
 640 764 l 1xfa
 896 764 l 1
 896 644 l 1xfc
 640 644 l 1
 640 120 l 1xfa
 896 120 l 1
 896 0 l 1
 512 0 l 1xfc
 512 388 l 1
EndSplineSet
Layer: 2
Layer: 3
Layer: 4
EndChar
StartChar: Eacute
Encoding: 201 201 109
Width: 896
VWidth: 0
Flags: W
HStem: 0 120<256 896> 644 120<256 768> 1160 120<256 896>
VStem: 128 128<120 644 764 1160>
LayerCount: 5
Back
Fore
SplineSet
128 1280 m 1
 896 1280 l 1
 896 1160 l 1
 256 1160 l 1
 256 764 l 1
 768 764 l 1
 768 644 l 1
 256 644 l 1
 256 120 l 1
 896 120 l 1
 896 0 l 1
 128 0 l 1
 128 1280 l 1
360 1408 m 1
 498 1408 l 1
 664 1664 l 1
 526 1664 l 1
 360 1408 l 1
EndSplineSet
Layer: 2
Layer: 3
Layer: 4
EndChar
StartChar: Ecircumflex
Encoding: 121 202 110
Width: 896
VWidth: 0
Flags: W
HStem: 0 120<256 896> 644 120<256 768> 1160 120<256 896> 1408 21G<72 256.585 639.415 824>
VStem: 128 128<120 644 764 1160>
LayerCount: 5
Back
Fore
SplineSet
128 1280 m 1
 896 1280 l 1
 896 1160 l 1
 256 1160 l 1
 256 764 l 1
 768 764 l 1
 768 644 l 1
 256 644 l 1
 256 120 l 1
 896 120 l 1
 896 0 l 1
 128 0 l 1
 128 1280 l 1
369 1664 m 1
 527 1664 l 1
 824 1408 l 1
 666 1408 l 1
 448 1572 l 1
 230 1408 l 1
 72 1408 l 1
 369 1664 l 1
EndSplineSet
Layer: 2
Layer: 3
Layer: 4
EndChar
StartChar: Edieresis
Encoding: 203 203 111
Width: 896
VWidth: 0
Flags: W
HStem: 0 120<256 896> 644 120<256 768> 1160 120<256 896> 1456 224<133.032 314.968 581.032 762.968>
VStem: 112 224<1477.03 1658.97> 128 128<120 644 764 1160> 560 224<1477.03 1658.97>
LayerCount: 5
Back
Fore
SplineSet
128 1280 m 1xf6
 896 1280 l 1
 896 1160 l 1
 256 1160 l 1
 256 764 l 1
 768 764 l 1
 768 644 l 1
 256 644 l 1
 256 120 l 1
 896 120 l 1
 896 0 l 1
 128 0 l 1
 128 1280 l 1xf6
672 1680 m 0
 738 1680 784 1634 784 1568 c 0
 784 1502 738 1456 672 1456 c 0
 606 1456 560 1502 560 1568 c 0
 560 1634 606 1680 672 1680 c 0
224 1680 m 0
 290 1680 336 1634 336 1568 c 0
 336 1502 290 1456 224 1456 c 0
 158 1456 112 1502 112 1568 c 0xfa
 112 1634 158 1680 224 1680 c 0
EndSplineSet
Layer: 2
Layer: 3
Layer: 4
EndChar
StartChar: Igrave
Encoding: 204 204 112
Width: 896
VWidth: 0
Flags: W
HStem: 0 120<128 384 512 768> 1160 120<128 384 512 768> 1408 21G<385.031 536>
VStem: 384 128<120 1160>
LayerCount: 5
Back
Fore
SplineSet
768 1280 m 1
 768 1160 l 1
 512 1160 l 1
 512 120 l 1
 768 120 l 1
 768 0 l 1
 128 0 l 1
 128 120 l 1
 384 120 l 1
 384 1160 l 1
 128 1160 l 1
 128 1280 l 1
 768 1280 l 1
536 1408 m 1
 398 1408 l 1
 232 1664 l 1
 370 1664 l 1
 536 1408 l 1
EndSplineSet
Layer: 2
Layer: 3
Layer: 4
EndChar
StartChar: Icircumflex
Encoding: 125 206 114
Width: 896
VWidth: 0
Flags: W
HStem: 0 120<128 384 512 768> 1160 120<128 384 512 768> 1408 21G<72 256.585 639.415 824>
VStem: 384 128<120 1160>
LayerCount: 5
Back
Fore
SplineSet
768 1280 m 1
 768 1160 l 1
 512 1160 l 1
 512 120 l 1
 768 120 l 1
 768 0 l 1
 128 0 l 1
 128 120 l 1
 384 120 l 1
 384 1160 l 1
 128 1160 l 1
 128 1280 l 1
 768 1280 l 1
369 1664 m 1
 527 1664 l 1
 824 1408 l 1
 666 1408 l 1
 448 1572 l 1
 230 1408 l 1
 72 1408 l 1
 369 1664 l 1
EndSplineSet
Layer: 2
Layer: 3
Layer: 4
EndChar
StartChar: Eth
Encoding: 127 208 116
Width: 896
VWidth: 0
Flags: W
HStem: 0 120<256 569.496> 644 120<0 128 256 512> 1288 120<256 568.764>
VStem: 128 128<120 644 764 1288> 784 128<352.628 1040.49>
CounterMasks: 1 e0
LayerCount: 5
Back
Fore
SplineSet
376 1408 m 2
 480 1408 588 1378 679 1317 c 0
 782 1247 849 1137 883 1008 c 0
 910 905 912 803 912 704 c 0
 912 605 909 503 883 400 c 0
 850 271 780 163 679 91 c 0
 590 27 481 0 376 0 c 0
 297 0 225 0 128 0 c 1
 128 644 l 1
 0 644 l 1
 0 764 l 1
 128 764 l 1
 128 1408 l 1
 376 1408 l 2
376 120 m 2
 537 120 636 189 701 278 c 1
 772 384 784 525 784 704 c 0
 784 800 780 893 758 982 c 0
 716 1155 597 1288 376 1288 c 0
 323 1288 303 1288 256 1288 c 1
 256 764 l 1
 512 764 l 1
 512 644 l 1
 256 644 l 1
 256 120 l 1
 376 120 l 2
EndSplineSet
Layer: 2
Layer: 3
Layer: 4
EndChar
StartChar: Otilde
Encoding: 213 213 121
Width: 896
VWidth: 0
Flags: W
HStem: -16 120<288.143 607.857> 1176 120<288.143 607.857> 1412 120<495.658 628.749> 1540 120<267.276 400.342>
VStem: 0 128<298.492 981.508> 125 128<1433 1533.1> 643 128<1539.78 1639> 768 128<298.492 981.508>
LayerCount: 5
Back
Fore
SplineSet
128 640 m 4xf9
 128 537 130 438 154 348 c 4
 192 206 287 104 448 104 c 4
 609 104 704 206 742 348 c 4
 766 438 768 537 768 640 c 4
 768 743 766 842 742 932 c 4
 704 1074 609 1176 448 1176 c 4
 287 1176 192 1074 154 932 c 4
 130 842 128 743 128 640 c 4xf9
0 640 m 4
 0 744 1 853 30 962 c 4
 81 1153 225 1296 448 1296 c 4
 671 1296 815 1153 866 962 c 4
 895 853 896 744 896 640 c 4
 896 536 895 427 866 318 c 4
 815 127 671 -16 448 -16 c 4
 225 -16 81 127 30 318 c 4
 1 427 0 536 0 640 c 4
320 1540 m 0
 269 1540 256 1481 253 1427 c 1
 125 1433 l 1
 129 1551 191 1660 320 1660 c 0
 466 1660 499 1532 576 1532 c 0
 627 1532 640 1591 643 1645 c 1
 771 1639 l 1xf6
 768 1523 705 1412 576 1412 c 0
 430 1412 397 1540 320 1540 c 0
EndSplineSet
Layer: 2
Layer: 3
Layer: 4
EndChar
StartChar: Odieresis
Encoding: 214 214 122
Width: 896
VWidth: 0
Flags: W
HStem: -16 120<288.143 607.857> 1176 120<288.143 607.857> 1456 224<133.032 314.968 581.032 762.968>
VStem: 0 128<298.492 981.508> 112 224<1477.03 1658.97> 560 224<1477.03 1658.97> 768 128<298.492 981.508>
LayerCount: 5
Back
Fore
SplineSet
128 640 m 4xf2
 128 537 130 438 154 348 c 4
 192 206 287 104 448 104 c 4
 609 104 704 206 742 348 c 4
 766 438 768 537 768 640 c 4
 768 743 766 842 742 932 c 4
 704 1074 609 1176 448 1176 c 4
 287 1176 192 1074 154 932 c 4
 130 842 128 743 128 640 c 4xf2
0 640 m 4
 0 744 1 853 30 962 c 4
 81 1153 225 1296 448 1296 c 4
 671 1296 815 1153 866 962 c 4
 895 853 896 744 896 640 c 4
 896 536 895 427 866 318 c 4
 815 127 671 -16 448 -16 c 4
 225 -16 81 127 30 318 c 4
 1 427 0 536 0 640 c 4
672 1680 m 0
 738 1680 784 1634 784 1568 c 0
 784 1502 738 1456 672 1456 c 0
 606 1456 560 1502 560 1568 c 0xe4
 560 1634 606 1680 672 1680 c 0
224 1680 m 0
 290 1680 336 1634 336 1568 c 0
 336 1502 290 1456 224 1456 c 0
 158 1456 112 1502 112 1568 c 0xe8
 112 1634 158 1680 224 1680 c 0
EndSplineSet
Layer: 2
Layer: 3
Layer: 4
EndChar
StartChar: multiply
Encoding: 215 215 124
Width: 896
VWidth: 0
Flags: W
LayerCount: 5
Back
Fore
SplineSet
597 640 m 1
 512 679 l 1
 512 729 l 1
 597 768 l 1
 872 1040 l 1
 778 1122 l 1
 512 853 l 1
 473 768 l 1
 423 768 l 1
 384 853 l 1
 118 1122 l 1
 24 1040 l 1
 299 768 l 1
 384 729 l 1
 384 679 l 1
 299 640 l 1
 24 368 l 1
 118 286 l 1
 384 555 l 1
 423 640 l 1
 473 640 l 1
 512 555 l 1
 778 286 l 1
 872 368 l 1
 597 640 l 1
EndSplineSet
Layer: 2
Layer: 3
Layer: 4
EndChar
StartChar: Oslash
Encoding: 216 216 124
Width: 896
VWidth: 0
Flags: W
HStem: -16 120<289.534 603.729> 1304 120<292.271 606.466>
VStem: -16 128<318.692 1084.8> 784 128<323.197 1089.31>
LayerCount: 5
Back
Fore
SplineSet
448 1304 m 0
 276 1304 173 1178 137 1026 c 0
 113 923 112 816 112 704 c 0
 112 567 115 421 158 314 c 1
 680 1193 l 1
 626 1260 549 1304 448 1304 c 0
73 -26 m 1
 -13 26 l 1
 82 186 l 1
 50 237 26 294 12 355 c 0
 -16 473 -16 592 -16 704 c 0
 -16 816 -16 935 12 1053 c 0
 60 1256 210 1424 448 1424 c 0
 572 1424 673 1378 747 1305 c 1
 823 1434 l 1
 909 1382 l 1
 814 1222 l 1
 846 1171 870 1114 884 1053 c 0
 912 935 912 816 912 704 c 0
 912 592 912 473 884 355 c 0
 836 152 686 -16 448 -16 c 0
 324 -16 223 30 149 103 c 1
 73 -26 l 1
216 215 m 1
 270 148 347 104 448 104 c 0
 620 104 723 230 759 382 c 0
 783 485 784 592 784 704 c 0
 784 841 781 987 738 1094 c 1
 216 215 l 1
EndSplineSet
Layer: 2
Layer: 3
Layer: 4
EndChar
StartChar: Uacute
Encoding: 137 218 126
Width: 896
VWidth: 0
Flags: W
HStem: -16 120<276.736 619.179>
VStem: 0 128<252.382 1280> 768 128<252.382 1280>
LayerCount: 5
Back
Fore
SplineSet
0 1280 m 1
 128 1280 l 1
 128 512 l 2
 128 437 128 378 140 330 c 0
 173 196 288 104 448 104 c 0
 608 104 723 196 756 330 c 0
 768 378 768 437 768 512 c 2
 768 1280 l 1
 896 1280 l 1
 896 512 l 2
 896 426 896 371 880 303 c 0
 836 118 669 -16 448 -16 c 0
 227 -16 59 118 16 303 c 0
 0 371 0 426 0 512 c 2
 0 1280 l 1
360 1408 m 1
 498 1408 l 1
 664 1664 l 1
 526 1664 l 1
 360 1408 l 1
EndSplineSet
Layer: 2
Layer: 3
Layer: 4
EndChar
StartChar: Udieresis
Encoding: 139 220 128
Width: 896
VWidth: 0
Flags: W
HStem: -16 120<276.736 619.179> 1456 224<133.032 314.968 581.032 762.968>
VStem: 0 128<252.382 1280> 112 224<1477.03 1658.97> 560 224<1477.03 1658.97> 768 128<252.382 1280>
LayerCount: 5
Back
Fore
SplineSet
0 1280 m 1xe4
 128 1280 l 1
 128 512 l 2
 128 437 128 378 140 330 c 0
 173 196 288 104 448 104 c 0
 608 104 723 196 756 330 c 0
 768 378 768 437 768 512 c 2
 768 1280 l 1
 896 1280 l 1
 896 512 l 2
 896 426 896 371 880 303 c 0
 836 118 669 -16 448 -16 c 0
 227 -16 59 118 16 303 c 0
 0 371 0 426 0 512 c 2
 0 1280 l 1xe4
672 1680 m 0
 738 1680 784 1634 784 1568 c 0
 784 1502 738 1456 672 1456 c 0
 606 1456 560 1502 560 1568 c 0xc8
 560 1634 606 1680 672 1680 c 0
224 1680 m 0
 290 1680 336 1634 336 1568 c 0
 336 1502 290 1456 224 1456 c 0
 158 1456 112 1502 112 1568 c 0xd0
 112 1634 158 1680 224 1680 c 0
EndSplineSet
Layer: 2
Layer: 3
Layer: 4
EndChar
StartChar: Thorn
Encoding: 222 222 130
Width: 896
VWidth: 0
Flags: W
HStem: 0 21G<128 256> 384 120<256 676.624> 1032 120<256 676.624> 1388 20G<128 256>
VStem: 128 128<0 384 504 1032 1152 1408> 784 128<611.249 924.751>
LayerCount: 5
Back
Fore
SplineSet
256 0 m 1
 128 0 l 1
 128 1408 l 1
 256 1408 l 1
 256 1152 l 1
 449 1152 l 2
 526 1152 578 1152 633 1139 c 0
 792 1101 912 964 912 768 c 0
 912 572 792 435 633 397 c 0
 578 384 526 384 449 384 c 2
 256 384 l 1
 256 0 l 1
449 504 m 2
 525 504 565 506 601 514 c 0
 709 538 784 634 784 768 c 0
 784 902 709 998 601 1022 c 0
 565 1030 525 1032 449 1032 c 2
 256 1032 l 1
 256 504 l 1
 449 504 l 2
EndSplineSet
Layer: 2
Layer: 3
Layer: 4
EndChar
StartChar: germandbls
Encoding: 223 223 131
Width: 896
VWidth: 0
Flags: W
HStem: -16 120<391.217 590.888> 0 21G<128 256> 772 120<434 544.167> 1304 120<305.467 541.969>
VStem: 128 128<0 1254> 596 128<940.559 1250.62> 672 128<196.451 666.78>
LayerCount: 5
Back
SplineSet
592 920 m 4xbc
 496 920 436 847 410 768 c 0
 385 692 384 604 384 512 c 0
 384 420 385 332 410 256 c 4
 436 177 496 104 592 104 c 4
 688 104 748 177 774 256 c 4
 799 332 800 420 800 512 c 4
 800 604 799 692 774 768 c 4
 748 847 688 920 592 920 c 4xbc
612 1040 m 4
 743 1040 853 953 900 803 c 4
 928 713 928 624 928 512 c 4
 928 400 928 311 900 221 c 4
 853 71 743 -16 612 -16 c 4xbc
 529 -16 453 33 394 125 c 5
 384 125 l 1
 384 0 l 1
 256 0 l 1x7c
 256 1536 l 1
 384 1536 l 1
 384 899 l 1
 394 899 l 1
 453 991 529 1040 612 1040 c 4
EndSplineSet
Fore
SplineSet
602 833 m 1x7c
 760 779 800 646 800 438 c 0
 800 178 713 -16 484 -16 c 0
 443 -16 405 -10 376 -5 c 1
 392 113 l 1
 418 108 446 104 464 104 c 0
 644 104 672 264 672 438 c 0xba
 672 631 621 772 434 772 c 1
 434 892 l 1
 548 892 596 969 596 1098 c 0
 596 1227 538 1304 434 1304 c 0
 292 1304 256 1218 256 1078 c 2
 256 0 l 1
 128 0 l 1
 128 1078 l 2
 128 1278 225 1424 434 1424 c 0
 612 1424 724 1283 724 1098 c 0
 724 991 704 893 602 843 c 1
 602 833 l 1x7c
EndSplineSet
Layer: 2
SplineSet
320 0 m 5
 320 1196 l 5
 320 1288.5482934 332 1356 389 1414 c 4
 436 1462 504.720168777 1492 592 1492 c 4
 742.79971591 1492 848 1387.04971591 848 1236 c 4
 848 1084.95028409 742.79971591 980 592 980 c 1028
EndSplineSet
Layer: 3
Layer: 4
EndChar
StartChar: adieresis
Encoding: 228 228 136
Width: 896
VWidth: 0
Flags: W
HStem: -16 120<288.403 532.71> 0 21G<640 768> 512 110<290.102 640> 920 120<196.593 610.851> 1200 224<133.032 314.968 581.032 762.968>
VStem: 96 128<169.682 443.733> 112 224<1221.03 1402.97> 560 224<1221.03 1402.97> 640 128<0 123 195.803 512 622 892.213>
LayerCount: 5
Back
Fore
SplineSet
640 512 m 1xbc80
 444 512 l 2
 389 512 331 512 280 458 c 0
 244 420 224 362 224 303 c 0
 224 194 297 104 404 104 c 0
 510 104 587 162 618 235 c 0
 640 287 640 349 640 421 c 2
 640 512 l 1xbc80
480 1040 m 0
 576 1040 677 1021 738 913 c 0
 768 860 768 785 768 749 c 2
 768 0 l 1
 640 0 l 1x7c80
 640 123 l 1
 630 123 l 1
 566 35 489 -16 380 -16 c 0
 327 -16 219 10 155 106 c 0
 121 157 96 224 96 301 c 0
 96 383 121 470 184 533 c 0
 274 622 384 622 446 622 c 2
 640 622 l 1
 640 744 l 2
 640 788 640 831 622 862 c 0
 601 898 568 920 480 920 c 0
 421 920 290 906 192 891 c 1
 192 1013 l 1
 289 1027 417 1040 480 1040 c 0
672 1424 m 0
 738 1424 784 1378 784 1312 c 0
 784 1246 738 1200 672 1200 c 0
 606 1200 560 1246 560 1312 c 0x39
 560 1378 606 1424 672 1424 c 0
224 1424 m 0x3c
 290 1424 336 1378 336 1312 c 0x3a
 336 1246 290 1200 224 1200 c 0x3c
 158 1200 112 1246 112 1312 c 0x3a
 112 1378 158 1424 224 1424 c 0x3c
EndSplineSet
Layer: 2
Layer: 3
Layer: 4
EndChar
StartChar: ae
Encoding: 149 230 138
Width: 896
VWidth: 0
Flags: W
HStem: -16 120<139.742 315.082 585.887 893.063> 512 120<140.732 384 513 799> 920 120<3.55744 358.731 578.448 744.503>
VStem: -32 128<147.047 465.701> 384 128<188.512 512 632 840.755> 799 127<632 859.3>
LayerCount: 5
Back
Fore
SplineSet
799 632 m 1
 797 729 784 817 747 873 c 0
 724 902 696 920 662 920 c 0
 589 920 548 842 530 773 c 0
 518 729 514 682 513 632 c 1
 799 632 l 1
446 148 m 1
 399 49 321 -16 220 -16 c 0
 49 -16 -32 144 -32 309 c 0
 -32 443 23 565 125 611 c 0
 167 630 209 632 242 632 c 2
 384 632 l 1
 384 748 l 2
 384 862 364 924 224 924 c 0
 178 924 76 914 0 904 c 1
 0 1026 l 1
 75 1035 175 1044 224 1044 c 0
 312 1044 405 1034 465 907 c 1
 475 907 l 1
 516 990 577 1040 662 1040 c 0
 800 1040 879 917 907 802 c 0
 926 725 926 649 926 577 c 2
 926 512 l 1
 512 512 l 1
 512 469 l 2
 512 289 526 104 704 104 c 0
 760 104 834 119 896 129 c 1
 896 7 l 1
 833 -3 763 -16 701 -16 c 0
 596 -16 508 34 456 148 c 1
 446 148 l 1
96 309 m 0
 96 215 132 104 220 104 c 0
 290 104 347 171 366 230 c 0
 384 286 384 351 384 421 c 2
 384 512 l 1
 249 512 l 2
 186 512 165 503 139 466 c 0
 110 424 96 367 96 309 c 0
EndSplineSet
Layer: 2
Layer: 3
Layer: 4
EndChar
StartChar: iacute
Encoding: 237 237 145
Width: 896
VWidth: 0
Flags: W
HStem: 0 120<128 384 512 768> 904 120<128 384>
VStem: 384 128<120 904>
LayerCount: 5
Back
Fore
SplineSet
128 0 m 1
 128 120 l 1
 384 120 l 1
 384 904 l 1
 128 904 l 1
 128 1024 l 1
 512 1024 l 1
 512 120 l 1
 768 120 l 1
 768 0 l 1
 128 0 l 1
360 1152 m 1
 498 1152 l 1
 664 1408 l 1
 526 1408 l 1
 360 1152 l 1
EndSplineSet
Layer: 2
Layer: 3
Layer: 4
EndChar
StartChar: idieresis
Encoding: 239 239 147
Width: 896
VWidth: 0
Flags: W
HStem: 0 120<128 384 512 768> 904 120<128 384> 1200 224<133.032 314.968 581.032 762.968>
VStem: 112 224<1221.03 1402.97> 384 128<120 904> 560 224<1221.03 1402.97>
CounterMasks: 1 1c
LayerCount: 5
Back
Fore
SplineSet
128 0 m 1
 128 120 l 1
 384 120 l 1
 384 904 l 1
 128 904 l 1
 128 1024 l 1
 512 1024 l 1
 512 120 l 1
 768 120 l 1
 768 0 l 1
 128 0 l 1
672 1424 m 0
 738 1424 784 1378 784 1312 c 0
 784 1246 738 1200 672 1200 c 0
 606 1200 560 1246 560 1312 c 0
 560 1378 606 1424 672 1424 c 0
224 1424 m 0
 290 1424 336 1378 336 1312 c 0
 336 1246 290 1200 224 1200 c 0
 158 1200 112 1246 112 1312 c 0
 112 1378 158 1424 224 1424 c 0
EndSplineSet
Layer: 2
Layer: 3
Layer: 4
EndChar
StartChar: eth
Encoding: 240 240 148
Width: 896
VWidth: 0
Flags: W
HStem: -16 120<316.324 578.552> 920 120<317.166 564.729> 1516 20G<274.231 327>
VStem: 96 128<209.24 814.76> 672 128<209.24 809.017>
LayerCount: 5
Back
SplineSet
864 202 m 1
 864 512 l 2
 864 705.208007812 855.663085938 903.294921875 780.227539062 1081.16796875 c 0
 704.791015625 1259.04101562 564.948242188 1410.00878906 390 1492 c 1024
  Spiro
    864 202 {
    864 512 ]
    390 1492 o
    0 0 z
  EndSpiro
EndSplineSet
Fore
SplineSet
448 920 m 0
 352 920 288 868 256 789 c 0
 226 714 224 614 224 512 c 0
 224 410 226 310 256 235 c 0
 288 156 352 104 448 104 c 0
 544 104 608 156 640 235 c 0
 670 310 672 410 672 512 c 0
 672 614 670 714 640 789 c 0
 608 868 544 920 448 920 c 0
278 1143 m 1
 234 1209 l 1
 412 1330 l 1
 361 1382 304 1425 243 1458 c 1
 285 1536 l 1
 369 1498 442 1450 504 1392 c 1
 700 1525 l 1
 744 1459 l 1
 560 1334 l 1
 728 1141 800 861 800 512 c 0
 800 391 798 290 760 195 c 0
 714 80 608 -16 468 -16 c 0
 278 -16 183 78 136 195 c 0
 98 290 96 391 96 512 c 0
 96 633 96 734 132 829 c 0
 176 945 276 1040 428 1040 c 0
 515 1040 570 1001 626 938 c 1
 636 938 l 1
 600 1064 541 1177 466 1270 c 1
 278 1143 l 1
EndSplineSet
Layer: 2
SplineSet
928 512 m 5
 800 512 l 5
 800 703.924804688 790.759765625 893.935546875 720.755859375 1059 c 4
 650.625976562 1224.36230469 520.490234375 1363.765625 361.3828125 1438.33203125 c 5
 418.6171875 1545.66796875 l 5
 609.40625 1456.25292969 758.956054688 1293.72070312 839.69921875 1103.3359375 c 4
 920.56640625 912.654296875 928 706.491210938 928 512 c 5
576 920 m 4
 480 920 416 868 384 789 c 4
 354 714 352 614 352 512 c 4
 352 410 354 310 384 235 c 4
 416 156 480 104 576 104 c 4
 672 104 736 156 768 235 c 4
 798 310 800 410 800 512 c 4
 800 614 798 714 768 789 c 4
 736 868 672 920 576 920 c 4
  Spiro
    576 920 o
    490.741 903.624 o
    426.613 858.016 o
    384 789 o
    362.385 706.608 o
    353.625 612.383 o
    352 512 o
    353.625 411.617 o
    362.385 317.392 o
    384 235 o
    426.613 165.984 o
    490.741 120.376 o
    576 104 o
    661.259 120.376 o
    725.387 165.984 o
    768 235 o
    789.615 317.392 o
    798.375 411.617 o
    800 512 o
    798.375 612.383 o
    789.615 706.608 o
    768 789 o
    725.387 858.016 o
    661.259 903.624 o
    0 0 z
  EndSpiro
576 1040 m 4
 736 1040 842 945 888 829 c 4
 926 734 928 633 928 512 c 4
 928 391 926 290 888 195 c 4
 842 79 736 -16 576 -16 c 4
 416 -16 310 79 264 195 c 4
 226 290 224 391 224 512 c 4
 224 633 226 734 264 829 c 4
 310 945 416 1040 576 1040 c 4
  Spiro
    576 1040 o
    717.654 1011.13 o
    822.308 935.165 o
    888 829 o
    915.241 731.582 o
    926.079 626.743 o
    928 512 o
    926.079 397.257 o
    915.241 292.418 o
    888 195 o
    822.308 88.8345 o
    717.654 12.8708 o
    576 -16 o
    434.346 12.8708 o
    329.692 88.8345 o
    264 195 o
    236.759 292.418 o
    225.921 397.257 o
    224 512 o
    225.921 626.743 o
    236.759 731.582 o
    264 829 o
    329.692 935.165 o
    434.346 1011.13 o
    0 0 z
  EndSpiro
EndSplineSet
Layer: 3
Layer: 4
EndChar
StartChar: ograve
Encoding: 242 242 151
Width: 896
VWidth: 0
Flags: W
HStem: -16 120<318.155 577.845> 920 120<318.155 577.845> 1388 20G<232 382.969>
VStem: 96 128<209.24 814.76> 672 128<209.24 814.76>
LayerCount: 5
Back
Fore
SplineSet
448 1040 m 0
 608 1040 714 945 760 829 c 0
 798 734 800 633 800 512 c 0
 800 391 798 290 760 195 c 0
 714 79 608 -16 448 -16 c 0
 288 -16 182 79 136 195 c 0
 98 290 96 391 96 512 c 0
 96 633 98 734 136 829 c 0
 182 945 288 1040 448 1040 c 0
448 920 m 0
 352 920 288 868 256 789 c 0
 226 714 224 614 224 512 c 0
 224 410 226 310 256 235 c 0
 288 156 352 104 448 104 c 0
 544 104 608 156 640 235 c 0
 670 310 672 410 672 512 c 0
 672 614 670 714 640 789 c 0
 608 868 544 920 448 920 c 0
536 1152 m 1
 398 1152 l 1
 232 1408 l 1
 370 1408 l 1
 536 1152 l 1
EndSplineSet
Layer: 2
Layer: 3
Layer: 4
EndChar
StartChar: otilde
Encoding: 245 245 153
Width: 896
VWidth: 0
Flags: W
HStem: -16 120<318.155 577.845> 920 120<318.155 577.845> 1156 120<495.658 628.749> 1284 120<267.276 400.342>
VStem: 96 128<209.24 814.76> 125 128<1177 1277.1> 643 128<1283.78 1383> 672 128<209.24 814.76>
LayerCount: 5
Back
Fore
SplineSet
448 1040 m 0xf9
 608 1040 714 945 760 829 c 0
 798 734 800 633 800 512 c 0
 800 391 798 290 760 195 c 0
 714 79 608 -16 448 -16 c 0
 288 -16 182 79 136 195 c 0
 98 290 96 391 96 512 c 0
 96 633 98 734 136 829 c 0
 182 945 288 1040 448 1040 c 0xf9
448 920 m 0
 352 920 288 868 256 789 c 0
 226 714 224 614 224 512 c 0
 224 410 226 310 256 235 c 0
 288 156 352 104 448 104 c 0
 544 104 608 156 640 235 c 0
 670 310 672 410 672 512 c 0
 672 614 670 714 640 789 c 0
 608 868 544 920 448 920 c 0
320 1284 m 0
 269 1284 256 1225 253 1171 c 1
 125 1177 l 1
 129 1295 191 1404 320 1404 c 0
 466 1404 499 1276 576 1276 c 0
 627 1276 640 1335 643 1389 c 1
 771 1383 l 1xf6
 768 1267 705 1156 576 1156 c 0
 430 1156 397 1284 320 1284 c 0
EndSplineSet
Layer: 2
Layer: 3
Layer: 4
EndChar
StartChar: odieresis
Encoding: 165 246 154
Width: 896
VWidth: 0
Flags: W
HStem: -16 120<318.155 577.845> 920 120<318.155 577.845> 1200 224<133.032 314.968 581.032 762.968>
VStem: 96 128<209.24 814.76> 112 224<1221.03 1402.97> 560 224<1221.03 1402.97> 672 128<209.24 814.76>
LayerCount: 5
Back
Fore
SplineSet
448 1040 m 0xf2
 608 1040 714 945 760 829 c 0
 798 734 800 633 800 512 c 0
 800 391 798 290 760 195 c 0
 714 79 608 -16 448 -16 c 0
 288 -16 182 79 136 195 c 0
 98 290 96 391 96 512 c 0
 96 633 98 734 136 829 c 0
 182 945 288 1040 448 1040 c 0xf2
448 920 m 0
 352 920 288 868 256 789 c 0
 226 714 224 614 224 512 c 0
 224 410 226 310 256 235 c 0
 288 156 352 104 448 104 c 0
 544 104 608 156 640 235 c 0
 670 310 672 410 672 512 c 0
 672 614 670 714 640 789 c 0
 608 868 544 920 448 920 c 0
672 1424 m 0
 738 1424 784 1378 784 1312 c 0xe4
 784 1246 738 1200 672 1200 c 0xe2
 606 1200 560 1246 560 1312 c 0xe4
 560 1378 606 1424 672 1424 c 0
224 1424 m 0xf0
 290 1424 336 1378 336 1312 c 0xe8
 336 1246 290 1200 224 1200 c 0xf0
 158 1200 112 1246 112 1312 c 0xe8
 112 1378 158 1424 224 1424 c 0xf0
EndSplineSet
Layer: 2
Layer: 3
Layer: 4
EndChar
StartChar: divide
Encoding: 247 247 155
Width: 896
VWidth: 0
Flags: W
HStem: 176 224<357.032 538.968> 644 120<0 896> 1008 224<357.032 538.968>
VStem: 336 224<197.032 378.968 1029.03 1210.97>
CounterMasks: 1 e0
LayerCount: 5
Back
Fore
SplineSet
448 1232 m 0
 514 1232 560 1186 560 1120 c 0
 560 1054 514 1008 448 1008 c 0
 382 1008 336 1054 336 1120 c 0
 336 1186 382 1232 448 1232 c 0
448 400 m 0
 514 400 560 354 560 288 c 0
 560 222 514 176 448 176 c 0
 382 176 336 222 336 288 c 0
 336 354 382 400 448 400 c 0
896 764 m 1
 896 644 l 1
 0 644 l 1
 0 764 l 1
 896 764 l 1
EndSplineSet
Layer: 2
Layer: 3
Layer: 4
EndChar
StartChar: oslash
Encoding: 167 248 156
Width: 896
VWidth: 0
Flags: W
HStem: -16 120<317.606 577.845> 920 120<318.155 578.394>
VStem: 96 128<296.118 814.76> 672 128<209.24 727.882>
LayerCount: 5
Back
Fore
SplineSet
448 920 m 0
 352 920 288 868 256 789 c 0
 226 714 224 614 224 512 c 0
 224 435 225 358 239 293 c 1
 611 841 l 1
 575 890 521 920 448 920 c 0
746 861 m 1
 796 765 800 646 800 512 c 0
 800 391 798 290 760 195 c 0
 714 79 608 -16 448 -16 c 0
 348 -16 269 21 213 77 c 1
 141 -28 l 1
 59 28 l 1
 150 163 l 1
 100 259 96 378 96 512 c 0
 96 633 98 734 136 829 c 0
 182 945 288 1040 448 1040 c 0
 548 1040 627 1003 683 947 c 1
 755 1052 l 1
 837 996 l 1
 746 861 l 1
285 183 m 1
 321 134 375 104 448 104 c 0
 544 104 608 156 640 235 c 0
 670 310 672 410 672 512 c 0
 672 589 671 666 657 731 c 1
 285 183 l 1
EndSplineSet
Layer: 2
Layer: 3
Layer: 4
EndChar
StartChar: ugrave
Encoding: 249 249 157
Width: 896
VWidth: 0
Flags: W
HStem: -16 120<319.689 552.727> 0 21G<640 768> 1004 20G<128 256 640 768> 1388 20G<232 382.969>
VStem: 128 128<169.924 1024> 640 128<0 112 166.016 1024>
LayerCount: 5
Back
Fore
SplineSet
428 -16 m 0xbc
 328 -16 247 29 197 91 c 0
 128 177 128 273 128 367 c 2
 128 1024 l 1
 256 1024 l 1
 256 367 l 2
 256 280 256 218 301 166 c 0
 333 129 384 104 448 104 c 0xbc
 512 104 563 129 595 166 c 0
 640 218 640 280 640 367 c 2
 640 1024 l 1
 768 1024 l 1
 768 0 l 1
 640 0 l 1x7c
 640 112 l 1
 630 112 l 1
 581 35 504 -16 428 -16 c 0xbc
536 1152 m 1
 398 1152 l 1
 232 1408 l 1
 370 1408 l 1
 536 1152 l 1
EndSplineSet
Layer: 2
Layer: 3
Layer: 4
EndChar
StartChar: ucircumflex
Encoding: 251 251 159
Width: 896
VWidth: 0
Flags: W
HStem: -16 120<319.689 552.727> 0 21G<640 768> 1004 20G<128 256 640 768> 1388 20G<345.797 550.203>
VStem: 128 128<169.924 1024> 640 128<0 112 166.016 1024>
LayerCount: 5
Back
Fore
SplineSet
428 -16 m 0xbc
 328 -16 247 29 197 91 c 0
 128 177 128 273 128 367 c 2
 128 1024 l 1
 256 1024 l 1
 256 367 l 2
 256 280 256 218 301 166 c 0
 333 129 384 104 448 104 c 0xbc
 512 104 563 129 595 166 c 0
 640 218 640 280 640 367 c 2
 640 1024 l 1
 768 1024 l 1
 768 0 l 1
 640 0 l 1x7c
 640 112 l 1
 630 112 l 1
 581 35 504 -16 428 -16 c 0xbc
369 1408 m 1
 527 1408 l 1
 824 1152 l 1
 666 1152 l 1
 448 1316 l 1
 230 1152 l 1
 72 1152 l 1
 369 1408 l 1
EndSplineSet
Layer: 2
Layer: 3
Layer: 4
EndChar
StartChar: udieresis
Encoding: 252 252 160
Width: 896
VWidth: 0
Flags: W
HStem: -16 120<319.689 552.727> 0 21G<640 768> 1004 20G<128 256 640 768> 1200 224<133.032 314.968 581.032 762.968>
VStem: 112 224<1221.03 1402.97> 128 128<169.924 1024> 560 224<1221.03 1402.97> 640 128<0 112 166.016 1024>
LayerCount: 5
Back
Fore
SplineSet
428 -16 m 0xb5
 328 -16 247 29 197 91 c 0
 128 177 128 273 128 367 c 2
 128 1024 l 1
 256 1024 l 1
 256 367 l 2
 256 280 256 218 301 166 c 0
 333 129 384 104 448 104 c 0xb5
 512 104 563 129 595 166 c 0
 640 218 640 280 640 367 c 2
 640 1024 l 1
 768 1024 l 1
 768 0 l 1
 640 0 l 1x75
 640 112 l 1
 630 112 l 1
 581 35 504 -16 428 -16 c 0xb5
672 1424 m 0
 738 1424 784 1378 784 1312 c 0
 784 1246 738 1200 672 1200 c 0
 606 1200 560 1246 560 1312 c 0x32
 560 1378 606 1424 672 1424 c 0
224 1424 m 0
 290 1424 336 1378 336 1312 c 0
 336 1246 290 1200 224 1200 c 0
 158 1200 112 1246 112 1312 c 0x38
 112 1378 158 1424 224 1424 c 0
EndSplineSet
Layer: 2
Layer: 3
Layer: 4
EndChar
StartChar: thorn
Encoding: 173 254 162
Width: 896
VWidth: 0
Flags: W
HStem: -16 120<355.616 578.022> 920 120<355.616 578.022>
VStem: 128 128<212.637 811.363> 672 128<213.326 810.674>
LayerCount: 5
Back
Fore
SplineSet
484 -16 m 0
 615 -16 725 71 772 221 c 0
 800 311 800 400 800 512 c 0
 800 624 800 713 772 803 c 0
 725 953 615 1040 484 1040 c 0
 401 1040 325 991 266 899 c 1
 256 899 l 1
 256 1536 l 1
 128 1536 l 1
 128 -512 l 1
 256 -512 l 1
 256 125 l 1
 266 125 l 1
 325 33 401 -16 484 -16 c 0
464 104 m 0
 368 104 308 177 282 256 c 0
 257 332 256 420 256 512 c 0
 256 604 257 692 282 768 c 0
 308 847 368 920 464 920 c 0
 560 920 620 847 646 768 c 0
 671 692 672 604 672 512 c 0
 672 420 671 332 646 256 c 0
 620 177 560 104 464 104 c 0
EndSplineSet
Layer: 2
Layer: 3
Layer: 4
EndChar
StartChar: ydieresis
Encoding: 174 255 163
Width: 896
VWidth: 0
Flags: W
HStem: -528 120<128 264.5> 1004 20G<73 225 675 823> 1200 224<133.032 314.968 581.032 762.968>
VStem: 73 135<727.078 1024> 112 224<1221.03 1402.97> 560 224<1221.03 1402.97> 688 135<712.23 1024>
LayerCount: 5
Back
Fore
SplineSet
73 1024 m 1xf2
 208 1024 l 1
 242 675 328 378 473 139 c 1
 483 139 l 1
 596 378 662 675 688 1024 c 1
 823 1024 l 1
 789 679 719 364 572 24 c 2
 397 -380 l 2
 388 -401 378 -426 358 -451 c 0
 309 -511 234 -528 129 -528 c 2
 128 -528 l 1
 128 -408 l 1
 129 -408 l 2
 186 -408 232 -409 256 -378 c 0
 263 -369 271 -355 279 -336 c 2
 424 0 l 1
 195 328 108 663 73 1024 c 1xf2
672 1424 m 0
 738 1424 784 1378 784 1312 c 0
 784 1246 738 1200 672 1200 c 0
 606 1200 560 1246 560 1312 c 0xe4
 560 1378 606 1424 672 1424 c 0
224 1424 m 0
 290 1424 336 1378 336 1312 c 0
 336 1246 290 1200 224 1200 c 0
 158 1200 112 1246 112 1312 c 0xe8
 112 1378 158 1424 224 1424 c 0
EndSplineSet
Layer: 2
Layer: 3
Layer: 4
EndChar
StartChar: Amacron
Encoding: 256 256 169
Width: 896
VWidth: 0
Flags: W
HStem: 0 21G<-25 115 781 921> 388 120<176 720> 1161 119<419.875 476.125> 1412 120<128 768>
LayerCount: 5
Back
Fore
SplineSet
128 1532 m 1
 768 1532 l 1
 768 1412 l 1
 128 1412 l 1
 128 1532 l 1
720 508 m 1
 662 752 579 970 453 1161 c 1
 443 1161 l 1
 317 970 234 752 176 508 c 1
 720 508 l 1
-25 0 m 1
 19 451 111 882 388 1280 c 1
 508 1280 l 1
 785 882 877 451 921 0 c 1
 786 0 l 1
 776 136 763 265 746 388 c 1
 150 388 l 1
 133 265 120 136 110 0 c 1
 -25 0 l 1
EndSplineSet
Layer: 2
Layer: 3
Layer: 4
EndChar
StartChar: amacron
Encoding: 257 257 170
Width: 896
VWidth: 0
Flags: W
HStem: -16 120<288.403 532.71> 0 21G<640 768> 512 110<290.102 640> 920 120<196.593 610.851> 1156 120<128 768>
VStem: 96 128<169.682 443.733> 640 128<0 123 195.803 512 622 892.213>
LayerCount: 5
Back
Fore
SplineSet
128 1276 m 1x3e
 768 1276 l 1
 768 1156 l 1
 128 1156 l 1
 128 1276 l 1x3e
480 1040 m 0
 576 1040 677 1021 738 913 c 0
 768 860 768 785 768 749 c 2
 768 0 l 1
 640 0 l 1x7e
 640 123 l 1
 630 123 l 1
 566 35 489 -16 380 -16 c 0xbe
 327 -16 219 10 155 106 c 0
 121 157 96 224 96 301 c 0
 96 383 121 470 184 533 c 0
 274 622 384 622 446 622 c 2
 640 622 l 1
 640 744 l 2
 640 788 640 831 622 862 c 0
 601 898 568 920 480 920 c 0
 421 920 290 906 192 891 c 1
 192 1013 l 1
 289 1027 417 1040 480 1040 c 0
640 512 m 1
 444 512 l 2
 389 512 331 512 280 458 c 0
 244 420 224 362 224 303 c 0
 224 194 297 104 404 104 c 0xbe
 510 104 587 162 618 235 c 0
 640 287 640 349 640 421 c 2
 640 512 l 1
EndSplineSet
Layer: 2
Layer: 3
Layer: 4
EndChar
StartChar: abreve
Encoding: 259 259 171
Width: 896
VWidth: 0
Flags: W
HStem: -16 120<288.403 532.71> 0 21G<640 768> 512 110<290.102 640> 920 120<196.593 610.851> 1136 120<290.746 605.254> 1388 20G<108 236 660 788>
VStem: 96 128<169.682 443.733 1320.51 1408> 640 128<0 123 195.803 512 622 892.213> 660 128<1307.69 1408>
LayerCount: 5
Back
Fore
SplineSet
660 1408 m 1x3e80
 788 1408 l 1
 788 1240 636 1136 448 1136 c 0
 260 1136 108 1240 108 1408 c 1
 236 1408 l 1
 236 1322 305 1256 448 1256 c 0
 591 1256 660 1322 660 1408 c 1x3e80
480 1040 m 0
 576 1040 677 1021 738 913 c 0
 768 860 768 785 768 749 c 2
 768 0 l 1
 640 0 l 1x7f
 640 123 l 1
 630 123 l 1
 566 35 489 -16 380 -16 c 0
 327 -16 219 10 155 106 c 0
 121 157 96 224 96 301 c 0
 96 383 121 470 184 533 c 0
 274 622 384 622 446 622 c 2
 640 622 l 1
 640 744 l 2xbf
 640 788 640 831 622 862 c 0
 601 898 568 920 480 920 c 0
 421 920 290 906 192 891 c 1
 192 1013 l 1
 289 1027 417 1040 480 1040 c 0
640 512 m 1
 444 512 l 2
 389 512 331 512 280 458 c 0
 244 420 224 362 224 303 c 0
 224 194 297 104 404 104 c 0xbf
 510 104 587 162 618 235 c 0
 640 287 640 349 640 421 c 2
 640 512 l 1
EndSplineSet
Layer: 2
Layer: 3
Layer: 4
EndChar
StartChar: Aogonek
Encoding: 260 260 167
Width: 896
VWidth: 0
Flags: W
HStem: -400 120<651.912 894.146> 0 21G<-25 115> 388 120<171 725> 1289 119<419.5 476.5>
VStem: 512 128<-262.716 -135.229>
LayerCount: 5
Back
Fore
SplineSet
767 -280 m 0
 813 -280 857 -270 896 -260 c 1
 896 -383 l 1
 856 -391 813 -400 767 -400 c 0
 653 -400 512 -325 512 -205 c 0
 512 -57 707 -63 768 0 c 1
 762 136 756 265 746 388 c 1
 150 388 l 1
 133 265 120 136 110 0 c 1
 -25 0 l 1
 19 496 111 971 388 1408 c 1
 508 1408 l 1
 768 971 855 496 896 0 c 1
 855 -91 640 -103 640 -198 c 0
 640 -258 710 -280 767 -280 c 0
725 508 m 1
 666 800 581 1061 453 1289 c 1
 443 1289 l 1
 315 1061 230 800 171 508 c 1
 725 508 l 1
EndSplineSet
Layer: 2
Layer: 3
Layer: 4
EndChar
StartChar: aogonek
Encoding: 180 261 167
Width: 896
VWidth: 0
Flags: W
HStem: -400 120<523.912 766.146> -16 120<288.403 532.71> 512 110<290.102 640> 920 120<196.593 610.851>
VStem: 96 128<169.682 443.733> 384 128<-262.716 -135.229> 640 128<-27.2361 123 195.803 512 622 892.213>
LayerCount: 5
Back
Fore
SplineSet
639 -280 m 0
 685 -280 729 -270 768 -260 c 1
 768 -383 l 1
 728 -391 685 -400 639 -400 c 0
 525 -400 384 -325 384 -205 c 0
 384 -57 579 -63 640 0 c 1
 640 123 l 1
 630 123 l 1
 566 35 489 -16 380 -16 c 0
 327 -16 219 10 155 106 c 0
 121 157 96 224 96 301 c 0
 96 383 121 470 184 533 c 0
 274 622 384 622 446 622 c 2
 640 622 l 1
 640 744 l 2
 640 788 640 831 622 862 c 0
 601 898 568 920 480 920 c 0
 421 920 290 906 192 891 c 1
 192 1013 l 1
 289 1027 417 1040 480 1040 c 0
 576 1040 677 1021 738 913 c 0
 768 860 768 785 768 749 c 2
 768 0 l 1
 727 -91 512 -103 512 -198 c 0
 512 -258 582 -280 639 -280 c 0
640 512 m 1
 444 512 l 2
 389 512 331 512 280 458 c 0
 244 420 224 362 224 303 c 0
 224 194 297 104 404 104 c 0
 510 104 587 162 618 235 c 0
 640 287 640 349 640 421 c 2
 640 512 l 1
EndSplineSet
Layer: 2
Layer: 3
Layer: 4
EndChar
StartChar: cdotaccent
Encoding: 267 267 177
Width: 896
VWidth: 0
Flags: W
HStem: -16 120<322.263 762.041> 920 120<322.263 762.041> 1200 224<357.032 538.968>
VStem: 96 128<209.809 814.191> 336 224<1221.03 1402.97>
LayerCount: 5
Back
Fore
SplineSet
448 1424 m 0
 514 1424 560 1378 560 1312 c 0
 560 1246 514 1200 448 1200 c 0
 382 1200 336 1246 336 1312 c 0
 336 1378 382 1424 448 1424 c 0
96 512 m 0
 96 633 98 738 136 831 c 0
 183 946 289 1040 458 1040 c 0
 541 1040 641 1025 768 999 c 1
 768 876 l 1
 640 903 534 920 458 920 c 0
 357 920 292 872 256 789 c 0
 224 716 224 614 224 512 c 0
 224 410 224 308 256 235 c 0
 292 152 357 104 458 104 c 0
 534 104 640 121 768 148 c 1
 768 25 l 1
 641 -1 541 -16 458 -16 c 0
 289 -16 183 78 136 193 c 0
 98 286 96 391 96 512 c 0
EndSplineSet
Layer: 2
Layer: 3
Layer: 4
EndChar
StartChar: Ccaron
Encoding: 187 268 178
Width: 896
VWidth: 0
Flags: W
HStem: -16 120<327.769 798.39> 1176 120<327.645 799.818>
VStem: 0 128<342.981 940.961>
LayerCount: 5
Back
Fore
SplineSet
896 173 m 5
 896 49 l 5
 779 19 649 -16 515 -16 c 4
 415 -16 308 7 219 64 c 4
 126 129 65 238 31 364 c 4
 6 458 0 551 0 640 c 4
 0 729 7 822 31 916 c 4
 63 1043 126 1150 219 1216 c 4
 308 1274 415 1296 515 1296 c 4
 638 1296 757 1267 866 1239 c 5
 866 1115 l 5
 753 1144 627 1176 515 1176 c 4
 311 1176 200 1060 156 888 c 4
 136 810 128 727 128 640 c 4
 128 553 135 471 156 392 c 4
 201 221 311 104 515 104 c 4
 637 104 775 142 896 173 c 5
369 1408 m 1
 527 1408 l 1
 824 1664 l 1
 666 1664 l 1
 448 1500 l 1
 230 1664 l 1
 72 1664 l 1
 369 1408 l 1
EndSplineSet
Layer: 2
Layer: 3
Layer: 4
EndChar
StartChar: ccaron
Encoding: 188 269 179
Width: 896
VWidth: 0
Flags: W
HStem: -16 120<322.263 762.041> 920 120<322.263 762.041>
VStem: 96 128<209.809 814.191>
LayerCount: 5
Back
Fore
SplineSet
369 1152 m 1
 527 1152 l 1
 824 1408 l 1
 666 1408 l 1
 448 1244 l 1
 230 1408 l 1
 72 1408 l 1
 369 1152 l 1
96 512 m 0
 96 633 98 738 136 831 c 0
 183 946 289 1040 458 1040 c 0
 541 1040 641 1025 768 999 c 1
 768 876 l 1
 640 903 534 920 458 920 c 0
 357 920 292 872 256 789 c 0
 224 716 224 614 224 512 c 0
 224 410 224 308 256 235 c 0
 292 152 357 104 458 104 c 0
 534 104 640 121 768 148 c 1
 768 25 l 1
 641 -1 541 -16 458 -16 c 0
 289 -16 183 78 136 193 c 0
 98 286 96 391 96 512 c 0
EndSplineSet
Layer: 2
Layer: 3
Layer: 4
EndChar
StartChar: Dcaron
Encoding: 270 270 181
Width: 896
VWidth: 0
Flags: W
HStem: 0 120<128 569.496> 1160 120<128 568.764>
VStem: 0 128<120 1160> 784 128<350.063 912.486>
LayerCount: 5
Back
Fore
SplineSet
369 1408 m 1
 527 1408 l 1
 824 1664 l 1
 666 1664 l 1
 448 1500 l 1
 230 1664 l 1
 72 1664 l 1
 369 1408 l 1
376 1280 m 2
 480 1280 588 1250 679 1189 c 0
 782 1119 849 1009 883 880 c 0
 905 797 912 718 912 640 c 0
 912 562 904 483 883 400 c 0
 850 271 780 163 679 91 c 0
 590 27 481 0 376 0 c 0
 256 0 147 0 0 0 c 1
 0 1280 l 1
 376 1280 l 2
376 120 m 2
 537 120 636 189 701 278 c 0
 769 371 784 488 784 640 c 0
 784 714 775 784 758 854 c 0
 716 1027 597 1160 376 1160 c 0
 267 1160 225 1160 128 1160 c 1
 128 120 l 1
 376 120 l 2
EndSplineSet
Layer: 2
Layer: 3
Layer: 4
EndChar
StartChar: dcaron
Encoding: 190 271 181
Width: 896
VWidth: 0
Flags: W
HStem: -16 120<317.978 540.384> 920 120<317.978 540.384> 1516 20G<896 1024>
VStem: 96 128<213.326 810.674> 640 128<212.637 811.363> 896 128<1152 1536>
LayerCount: 5
Back
Fore
SplineSet
432 920 m 0
 528 920 588 847 614 768 c 0
 639 692 640 604 640 512 c 0
 640 420 639 332 614 256 c 0
 588 177 528 104 432 104 c 0
 336 104 276 177 250 256 c 0
 225 332 224 420 224 512 c 0
 224 604 225 692 250 768 c 0
 276 847 336 920 432 920 c 0
412 1040 m 0
 281 1040 171 953 124 803 c 0
 96 713 96 624 96 512 c 0
 96 400 96 311 124 221 c 0
 171 71 281 -16 412 -16 c 0
 495 -16 571 33 630 125 c 1
 640 125 l 1
 640 0 l 1
 768 0 l 1
 768 1536 l 1
 640 1536 l 1
 640 899 l 1
 630 899 l 1
 571 991 495 1040 412 1040 c 0
896 1536 m 1
 1024 1536 l 1
 1024 1152 l 1
 896 1152 l 1
 896 1536 l 1
EndSplineSet
Layer: 2
Layer: 3
Layer: 4
EndChar
StartChar: dcroat
Encoding: 273 273 183
Width: 896
VWidth: 0
Flags: W
HStem: -16 120<317.978 540.384> 0 21G<640 768> 920 120<317.978 540.384> 1284 120<256 640 768 896> 1516 20G<640 768>
VStem: 96 128<213.326 810.674> 640 128<0 125 212.637 811.363 899 1284 1404 1536>
LayerCount: 5
Back
Fore
SplineSet
432 920 m 0xbe
 336 920 276 847 250 768 c 0
 225 692 224 604 224 512 c 0
 224 420 225 332 250 256 c 0
 276 177 336 104 432 104 c 0
 528 104 588 177 614 256 c 0
 639 332 640 420 640 512 c 0
 640 604 639 692 614 768 c 0
 588 847 528 920 432 920 c 0xbe
412 1040 m 0
 495 1040 571 991 630 899 c 1
 640 899 l 1
 640 1284 l 1
 256 1284 l 1
 256 1404 l 1
 640 1404 l 1
 640 1536 l 1
 768 1536 l 1
 768 1404 l 1
 896 1404 l 1
 896 1284 l 1
 768 1284 l 1
 768 0 l 1
 640 0 l 1x7e
 640 125 l 1
 630 125 l 1
 571 33 495 -16 412 -16 c 0
 281 -16 171 71 124 221 c 0
 96 311 96 400 96 512 c 0
 96 624 96 713 124 803 c 0
 171 953 281 1040 412 1040 c 0
EndSplineSet
Layer: 2
Layer: 3
Layer: 4
EndChar
StartChar: Emacron
Encoding: 193 274 184
Width: 896
VWidth: 0
Flags: W
HStem: 0 120<256 896> 644 120<256 768> 1160 120<256 896> 1412 120<128 768>
VStem: 128 128<120 644 764 1160>
LayerCount: 5
Back
Fore
SplineSet
128 1532 m 1
 768 1532 l 1
 768 1412 l 1
 128 1412 l 1
 128 1532 l 1
128 1280 m 1
 896 1280 l 1
 896 1160 l 1
 256 1160 l 1
 256 764 l 1
 768 764 l 1
 768 644 l 1
 256 644 l 1
 256 120 l 1
 896 120 l 1
 896 0 l 1
 128 0 l 1
 128 1280 l 1
EndSplineSet
Layer: 2
Layer: 3
Layer: 4
EndChar
StartChar: ebreve
Encoding: 196 277 187
Width: 896
VWidth: 0
Flags: W
HStem: -16 120<322.263 762.041> 512 120<227 669> 920 120<318.155 577.845> 1136 120<290.746 605.254> 1388 20G<108 236 660 788>
VStem: 96 128<210.579 512 632 813.92 1320.51 1408> 660 128<1307.69 1408>
LayerCount: 5
Back
Fore
SplineSet
660 1408 m 1
 788 1408 l 1
 788 1240 636 1136 448 1136 c 0
 260 1136 108 1240 108 1408 c 1
 236 1408 l 1
 236 1322 305 1256 448 1256 c 0
 591 1256 660 1322 660 1408 c 1
669 632 m 1
 666 690 658 744 640 789 c 0
 608 868 544 920 448 920 c 0
 352 920 288 868 256 789 c 0
 238 744 230 690 227 632 c 1
 669 632 l 1
224 512 m 1
 224 410 224 308 256 235 c 0
 292 152 357 104 458 104 c 0
 534 104 640 121 768 148 c 1
 768 25 l 1
 641 -1 541 -16 458 -16 c 0
 289 -16 183 78 136 193 c 0
 98 286 96 391 96 512 c 0
 96 633 98 734 136 829 c 0
 182 945 288 1040 448 1040 c 0
 608 1040 714 945 760 829 c 0
 798 734 800 633 800 512 c 1
 224 512 l 1
EndSplineSet
Layer: 2
Layer: 3
Layer: 4
EndChar
StartChar: Edotaccent
Encoding: 197 278 188
Width: 896
VWidth: 0
Flags: W
HStem: 0 120<256 896> 644 120<256 768> 1160 120<256 896> 1456 224<357.032 538.968>
VStem: 128 128<120 644 764 1160> 336 224<1477.03 1658.97>
LayerCount: 5
Back
Fore
SplineSet
448 1680 m 0
 514 1680 560 1634 560 1568 c 0
 560 1502 514 1456 448 1456 c 0
 382 1456 336 1502 336 1568 c 0
 336 1634 382 1680 448 1680 c 0
128 1280 m 1
 896 1280 l 1
 896 1160 l 1
 256 1160 l 1
 256 764 l 1
 768 764 l 1
 768 644 l 1
 256 644 l 1
 256 120 l 1
 896 120 l 1
 896 0 l 1
 128 0 l 1
 128 1280 l 1
EndSplineSet
Layer: 2
Layer: 3
Layer: 4
EndChar
StartChar: eogonek
Encoding: 200 281 165
Width: 896
VWidth: 0
Flags: W
HStem: -288 120<523.912 766.146> -16 120<321.912 443> 25 123<603.326 768> 512 120<227 669> 920 120<319.84 576.16>
VStem: 96 128<210.579 512 632 809.36> 384 128<-150.716 -40.7539> 669 131<632 814.755>
LayerCount: 5
Back
SplineSet
767 -280 m 4xde
 813 -280 857 -270 896 -260 c 5
 896 -383 l 5
 856 -391 813 -400 767 -400 c 4
 653 -400 512 -325 512 -205 c 4
 512 -57 707 -63 768 0 c 5
 896 0 l 5
 855 -91 640 -103 640 -198 c 4
 640 -258 710 -280 767 -280 c 4xde
797 632 m 5
 794 690 786 744 768 789 c 4
 736 868 672 920 576 920 c 4
 480 920 416 868 384 789 c 4
 366 744 358 690 355 632 c 5
 797 632 l 5
352 512 m 5
 352 410 352 308 384 235 c 4
 420 152 485 104 586 104 c 4
 662 104 768 121 896 148 c 5
 896 25 l 5
 769 -1 669 -16 586 -16 c 4xbe
 417 -16 311 78 264 193 c 4
 226 286 224 391 224 512 c 4
 224 633 226 734 264 829 c 4
 310 945 416 1040 576 1040 c 4
 736 1040 842 945 888 829 c 4
 926 734 928 633 928 512 c 5
 352 512 l 5
EndSplineSet
Fore
SplineSet
768 25 m 5xbf
 681 7 512 -35 512 -86 c 4
 512 -146 582 -168 639 -168 c 4
 685 -168 729 -158 768 -148 c 5
 768 -271 l 5
 728 -279 685 -288 639 -288 c 4
 525 -288 384 -213 384 -93 c 4
 384 -56 409 -33 443 -16 c 5
 283 -11 182 81 136 193 c 4
 98 286 96 391 96 512 c 4
 96 633 98 734 136 829 c 4
 182 945 288 1040 448 1040 c 4
 608 1040 714 945 760 829 c 4
 798 734 800 633 800 512 c 5
 224 512 l 5
 224 410 224 308 256 235 c 4
 292 152 357 104 458 104 c 4xdf
 534 104 640 121 768 148 c 5
 768 107 768 66 768 25 c 5xbf
669 632 m 5
 661 790 605 920 448 920 c 4
 291 920 235 790 227 632 c 5
 669 632 l 5
EndSplineSet
Layer: 2
Layer: 3
Layer: 4
EndChar
StartChar: Ecaron
Encoding: 282 282 190
Width: 896
VWidth: 0
Flags: W
HStem: 0 120<256 896> 644 120<256 768> 1160 120<256 896>
VStem: 128 128<120 644 764 1160>
LayerCount: 5
Back
Fore
SplineSet
369 1408 m 1
 527 1408 l 1
 824 1664 l 1
 666 1664 l 1
 448 1500 l 1
 230 1664 l 1
 72 1664 l 1
 369 1408 l 1
128 1280 m 1
 896 1280 l 1
 896 1160 l 1
 256 1160 l 1
 256 764 l 1
 768 764 l 1
 768 644 l 1
 256 644 l 1
 256 120 l 1
 896 120 l 1
 896 0 l 1
 128 0 l 1
 128 1280 l 1
EndSplineSet
Layer: 2
Layer: 3
Layer: 4
EndChar
StartChar: Gcircumflex
Encoding: 203 284 192
Width: 896
VWidth: 0
Flags: W
HStem: -16 120<327.52 764.627> 520 120<512 768> 1176 120<327.645 799.818> 1408 21G<72 256.585 639.415 824>
VStem: 0 128<339.116 940.961> 768 128<130.103 520>
LayerCount: 5
Back
Fore
SplineSet
369 1664 m 1
 527 1664 l 1
 824 1408 l 1
 666 1408 l 1
 448 1572 l 1
 230 1408 l 1
 72 1408 l 1
 369 1664 l 1
515 1296 m 4
 638 1296 757 1267 866 1239 c 5
 866 1115 l 5
 753 1144 627 1176 515 1176 c 4
 311 1176 200 1060 156 888 c 4
 136 810 128 727 128 640 c 4
 128 553 136 471 156 392 c 4
 199 220 311 104 515 104 c 4
 596 104 683 120 768 140 c 5
 768 520 l 5
 512 520 l 5
 512 640 l 5
 896 640 l 5
 896 49 l 5
 779 19 649 -16 515 -16 c 4
 415 -16 308 7 219 64 c 4
 126 129 63 238 31 364 c 4
 7 458 0 551 0 640 c 4
 0 729 7 822 31 916 c 4
 63 1043 126 1150 219 1216 c 4
 308 1274 415 1296 515 1296 c 4
EndSplineSet
Layer: 2
Layer: 3
Layer: 4
EndChar
StartChar: gcircumflex
Encoding: 204 285 193
Width: 896
VWidth: 0
Flags: W
HStem: -528 120<132.158 549.227> -16 120<317.978 540.384> 920 120<317.978 540.384> 1004 20G<640 768> 1388 20G<345.797 550.203>
VStem: 96 128<213.326 810.674> 640 128<-309.979 125 212.637 811.363 899 1024>
LayerCount: 5
Back
Fore
SplineSet
369 1408 m 1xce
 527 1408 l 1
 824 1152 l 1
 666 1152 l 1
 448 1316 l 1
 230 1152 l 1
 72 1152 l 1
 369 1408 l 1xce
412 1040 m 0xee
 495 1040 571 991 630 899 c 1
 640 899 l 1
 640 1024 l 1
 768 1024 l 1xde
 768 -96 l 2
 768 -156 768 -267 707 -369 c 0
 652 -461 556 -528 408 -528 c 0
 315 -528 217 -506 128 -489 c 1
 128 -366 l 1
 216 -383 320 -408 408 -408 c 0
 504 -408 559 -369 596 -310 c 0
 640 -239 640 -143 640 -96 c 2
 640 125 l 1
 630 125 l 1
 571 33 495 -16 412 -16 c 0
 281 -16 171 71 124 221 c 0
 96 311 96 400 96 512 c 0
 96 624 96 713 124 803 c 0
 171 953 281 1040 412 1040 c 0xee
432 920 m 0xee
 336 920 276 847 250 768 c 0
 225 692 224 604 224 512 c 0
 224 420 225 332 250 256 c 0
 276 177 336 104 432 104 c 0
 528 104 588 177 614 256 c 0
 639 332 640 420 640 512 c 0
 640 604 639 692 614 768 c 0
 588 847 528 920 432 920 c 0xee
EndSplineSet
Layer: 2
Layer: 3
Layer: 4
EndChar
StartChar: Gbreve
Encoding: 286 286 194
Width: 896
VWidth: 0
Flags: W
HStem: -16 120<327.52 764.627> 520 120<512 768> 1176 120<327.645 799.818> 1392 120<290.746 605.254>
VStem: 0 128<339.116 940.961> 108 128<1563.69 1664> 660 128<1563.69 1664> 768 128<130.103 520>
LayerCount: 5
Back
Fore
SplineSet
515 1296 m 4xf9
 638 1296 757 1267 866 1239 c 5
 866 1115 l 5
 753 1144 627 1176 515 1176 c 4
 311 1176 200 1060 156 888 c 4
 136 810 128 727 128 640 c 4
 128 553 136 471 156 392 c 4
 199 220 311 104 515 104 c 4
 596 104 683 120 768 140 c 5
 768 520 l 5
 512 520 l 5
 512 640 l 5
 896 640 l 5
 896 49 l 5
 779 19 649 -16 515 -16 c 4
 415 -16 308 7 219 64 c 4
 126 129 63 238 31 364 c 4
 7 458 0 551 0 640 c 4
 0 729 7 822 31 916 c 4
 63 1043 126 1150 219 1216 c 4
 308 1274 415 1296 515 1296 c 4xf9
660 1664 m 1xf6
 788 1664 l 1
 788 1496 636 1392 448 1392 c 0
 260 1392 108 1496 108 1664 c 1
 236 1664 l 1
 236 1578 305 1512 448 1512 c 0
 591 1512 660 1578 660 1664 c 1xf6
EndSplineSet
Layer: 2
Layer: 3
Layer: 4
EndChar
StartChar: Hbar
Encoding: 294 294 223
Width: 896
VWidth: 0
Flags: W
HStem: 0 21G<0 128 768 896> 641 120<128 768> 1156 120<-128 0 128 768 896 1024> 1388 20G<0 128 768 896>
VStem: 0 128<0 641 761 1156 1276 1408> 768 128<0 641 761 1156 1276 1408>
LayerCount: 5
Back
Fore
SplineSet
128 1156 m 1
 128 761 l 1
 768 761 l 1
 768 1156 l 1
 128 1156 l 1
0 1408 m 1
 128 1408 l 1
 128 1276 l 1
 768 1276 l 1
 768 1408 l 1
 896 1408 l 1
 896 1276 l 1
 1024 1276 l 1
 1024 1156 l 1
 896 1156 l 1
 896 0 l 1
 768 0 l 1
 768 641 l 1
 128 641 l 1
 128 0 l 1
 0 0 l 1
 0 1156 l 1
 -128 1156 l 1
 -128 1276 l 1
 0 1276 l 1
 0 1408 l 1
EndSplineSet
Layer: 2
Layer: 3
Layer: 4
EndChar
StartChar: itilde
Encoding: 216 297 226
Width: 896
VWidth: 0
Flags: W
HStem: 0 120<128 384 512 768> 904 120<128 384> 1156 120<495.658 628.749> 1284 120<267.276 400.342>
VStem: 125 128<1177 1277.1> 384 128<120 904> 643 128<1283.78 1383>
CounterMasks: 1 0e
LayerCount: 5
Back
Fore
SplineSet
320 1284 m 0
 269 1284 256 1225 253 1171 c 1
 125 1177 l 1
 129 1295 191 1404 320 1404 c 0
 466 1404 499 1276 576 1276 c 0
 627 1276 640 1335 643 1389 c 1
 771 1383 l 1
 768 1267 705 1156 576 1156 c 0
 430 1156 397 1284 320 1284 c 0
128 0 m 1
 128 120 l 1
 384 120 l 1
 384 904 l 1
 128 904 l 1
 128 1024 l 1
 512 1024 l 1
 512 120 l 1
 768 120 l 1
 768 0 l 1
 128 0 l 1
EndSplineSet
Layer: 2
Layer: 3
Layer: 4
EndChar
StartChar: imacron
Encoding: 218 299 228
Width: 896
VWidth: 0
Flags: W
HStem: 0 120<128 384 512 768> 904 120<128 384> 1156 120<128 768>
VStem: 384 128<120 904>
LayerCount: 5
Back
Fore
SplineSet
128 1276 m 1
 768 1276 l 1
 768 1156 l 1
 128 1156 l 1
 128 1276 l 1
128 0 m 1
 128 120 l 1
 384 120 l 1
 384 904 l 1
 128 904 l 1
 128 1024 l 1
 512 1024 l 1
 512 120 l 1
 768 120 l 1
 768 0 l 1
 128 0 l 1
EndSplineSet
Layer: 2
Layer: 3
Layer: 4
EndChar
StartChar: Ibreve
Encoding: 219 300 229
Width: 896
VWidth: 0
Flags: W
HStem: 0 120<128 384 512 768> 1160 120<128 384 512 768> 1392 120<290.746 605.254>
VStem: 108 128<1563.69 1664> 384 128<120 1160> 660 128<1563.69 1664>
CounterMasks: 1 1c
LayerCount: 5
Back
Fore
SplineSet
660 1664 m 1
 788 1664 l 1
 788 1496 636 1392 448 1392 c 0
 260 1392 108 1496 108 1664 c 1
 236 1664 l 1
 236 1578 305 1512 448 1512 c 0
 591 1512 660 1578 660 1664 c 1
768 1280 m 1
 768 1160 l 1
 512 1160 l 1
 512 120 l 1
 768 120 l 1
 768 0 l 1
 128 0 l 1
 128 120 l 1
 384 120 l 1
 384 1160 l 1
 128 1160 l 1
 128 1280 l 1
 768 1280 l 1
EndSplineSet
Layer: 2
Layer: 3
Layer: 4
EndChar
StartChar: ibreve
Encoding: 301 301 231
Width: 896
VWidth: 0
Flags: W
HStem: 0 120<128 384 512 768> 904 120<128 384> 1136 120<290.746 605.254> 1388 20G<108 236 660 788>
VStem: 108 128<1307.69 1408> 384 128<120 904> 660 128<1307.69 1408>
CounterMasks: 1 0e
LayerCount: 5
Back
Fore
SplineSet
660 1408 m 1
 788 1408 l 1
 788 1240 636 1136 448 1136 c 0
 260 1136 108 1240 108 1408 c 1
 236 1408 l 1
 236 1322 305 1256 448 1256 c 0
 591 1256 660 1322 660 1408 c 1
128 0 m 1
 128 120 l 1
 384 120 l 1
 384 904 l 1
 128 904 l 1
 128 1024 l 1
 512 1024 l 1
 512 120 l 1
 768 120 l 1
 768 0 l 1
 128 0 l 1
EndSplineSet
Layer: 2
Layer: 3
Layer: 4
EndChar
StartChar: iogonek
Encoding: 303 303 233
Width: 896
VWidth: 0
Flags: W
HStem: -400 120<523.912 766.146> 0 120<128 384 512 640> 904 120<128 384> 1328 224<325.032 506.968>
VStem: 304 224<1349.03 1530.97> 384 128<-262.716 -135.229 120 904>
LayerCount: 5
Back
Fore
SplineSet
639 -280 m 0xf4
 685 -280 729 -270 768 -260 c 1
 768 -383 l 1
 728 -391 685 -400 639 -400 c 0
 525 -400 384 -325 384 -205 c 0
 384 -57 579 -63 640 0 c 1
 128 0 l 1
 128 120 l 1
 384 120 l 1
 384 904 l 1
 128 904 l 1
 128 1024 l 1
 512 1024 l 1
 512 120 l 1
 768 120 l 1
 768 0 l 1
 727 -91 512 -103 512 -198 c 0
 512 -258 582 -280 639 -280 c 0xf4
416 1552 m 0
 482 1552 528 1506 528 1440 c 0
 528 1374 482 1328 416 1328 c 0
 350 1328 304 1374 304 1440 c 0xf8
 304 1506 350 1552 416 1552 c 0
EndSplineSet
Layer: 2
Layer: 3
Layer: 4
EndChar
StartChar: Idotaccent
Encoding: 223 304 233
Width: 896
VWidth: 0
Flags: W
HStem: 0 120<128 384 512 768> 1160 120<128 384 512 768> 1456 224<357.032 538.968>
VStem: 336 224<1477.03 1658.97> 384 128<120 1160>
LayerCount: 5
Back
Fore
SplineSet
448 1680 m 0xf0
 514 1680 560 1634 560 1568 c 0
 560 1502 514 1456 448 1456 c 0
 382 1456 336 1502 336 1568 c 0
 336 1634 382 1680 448 1680 c 0xf0
768 1280 m 1
 768 1160 l 1
 512 1160 l 1
 512 120 l 1
 768 120 l 1
 768 0 l 1
 128 0 l 1
 128 120 l 1
 384 120 l 1
 384 1160 l 1xe8
 128 1160 l 1
 128 1280 l 1
 768 1280 l 1
EndSplineSet
Layer: 2
Layer: 3
Layer: 4
EndChar
StartChar: dotlessi
Encoding: 224 305 234
Width: 896
VWidth: 0
Flags: W
HStem: 0 120<128 384 512 768> 904 120<128 384>
VStem: 384 128<120 904>
LayerCount: 5
Back
Fore
SplineSet
128 0 m 1
 128 120 l 1
 384 120 l 1
 384 904 l 1
 128 904 l 1
 128 1024 l 1
 512 1024 l 1
 512 120 l 1
 768 120 l 1
 768 0 l 1
 128 0 l 1
EndSplineSet
Layer: 2
Layer: 3
Layer: 4
EndChar
StartChar: IJ
Encoding: 225 306 235
Width: 896
VWidth: 0
Flags: W
HStem: -400 120<229.959 669.737> 0 120<0 128 256 384> 1288 120<0 128 256 384>
VStem: 0 384<0 120 1288 1408> 768 128<-173.421 1408>
LayerCount: 5
Back
Fore
SplineSet
384 1408 m 1
 384 1288 l 1
 256 1288 l 1
 256 120 l 1
 384 120 l 1
 384 0 l 1
 0 0 l 1
 0 120 l 1
 128 120 l 1
 128 1288 l 1
 0 1288 l 1
 0 1408 l 1
 384 1408 l 1
896 128 m 2
 896 7 894 -98 856 -191 c 0
 809 -306 703 -400 534 -400 c 0
 451 -400 351 -385 224 -359 c 1
 224 -236 l 1
 352 -263 458 -280 534 -280 c 0
 635 -280 700 -232 736 -149 c 0
 768 -76 768 26 768 128 c 2
 768 1408 l 1
 896 1408 l 1
 896 128 l 2
EndSplineSet
Layer: 2
Layer: 3
Layer: 4
EndChar
StartChar: ij
Encoding: 307 307 236
Width: 896
VWidth: 0
Flags: W
HStem: -528 120<258.703 579.284> 0 120<0 128 256 384> 904 120<0 128 512 640> 1328 224<69.0322 250.968 581.032 762.968>
VStem: 0 256<904 1024> 48 224<1349.03 1530.97> 128 128<120 904> 512 256<898 1024> 560 224<1349.03 1530.97> 640 128<-347.771 898>
LayerCount: 5
Back
Fore
SplineSet
0 0 m 1xf8
 0 120 l 1xf8
 128 120 l 1
 128 904 l 1xf2
 0 904 l 1
 0 1024 l 1
 256 1024 l 1xf8
 256 120 l 1xf2
 384 120 l 1
 384 0 l 1
 0 0 l 1xf8
160 1552 m 0
 226 1552 272 1506 272 1440 c 0
 272 1374 226 1328 160 1328 c 0
 94 1328 48 1374 48 1440 c 0xf4
 48 1506 94 1552 160 1552 c 0
672 1552 m 0
 738 1552 784 1506 784 1440 c 0
 784 1374 738 1328 672 1328 c 0
 606 1328 560 1374 560 1440 c 0xf080
 560 1506 606 1552 672 1552 c 0
256 -365 m 1xf240
 311 -387 380 -408 448 -408 c 0
 515 -408 565 -384 597 -346 c 0
 640 -294 640 -230 640 -142 c 2
 640 898 l 1xf240
 512 898 l 1
 512 1024 l 1
 768 1024 l 1xf1
 768 -152 l 2
 768 -243 768 -338 700 -420 c 0
 648 -483 564 -528 458 -528 c 0
 383 -528 316 -513 256 -493 c 1
 256 -365 l 1xf240
EndSplineSet
Layer: 2
Layer: 3
Layer: 4
EndChar
StartChar: Jcircumflex
Encoding: 308 308 237
Width: 896
VWidth: 0
Flags: W
HStem: -16 120<101.959 541.737> 1160 120<128 640> 1408 21G<72 256.585 639.415 824>
VStem: 640 128<210.579 1160>
LayerCount: 5
Back
Fore
SplineSet
369 1664 m 1
 527 1664 l 1
 824 1408 l 1
 666 1408 l 1
 448 1572 l 1
 230 1408 l 1
 72 1408 l 1
 369 1664 l 1
768 512 m 2
 768 391 766 286 728 193 c 0
 681 78 575 -16 406 -16 c 0
 323 -16 223 -1 96 25 c 1
 96 148 l 1
 224 121 330 104 406 104 c 0
 507 104 572 152 608 235 c 0
 640 308 640 410 640 512 c 2
 640 1160 l 1
 128 1160 l 1
 128 1280 l 1
 341 1280 555 1280 768 1280 c 1
 768 512 l 2
EndSplineSet
Layer: 2
Layer: 3
Layer: 4
EndChar
StartChar: jcircumflex
Encoding: 309 309 238
Width: 896
VWidth: 0
Flags: W
HStem: -528 120<130.703 451.284> 898 126<256 512> 1388 20G<345.797 550.203>
VStem: 512 128<-347.771 898>
LayerCount: 5
Back
Fore
SplineSet
369 1408 m 1
 527 1408 l 1
 824 1152 l 1
 666 1152 l 1
 448 1316 l 1
 230 1152 l 1
 72 1152 l 1
 369 1408 l 1
128 -365 m 1
 183 -387 252 -408 320 -408 c 0
 387 -408 437 -384 469 -346 c 0
 512 -294 512 -230 512 -142 c 2
 512 898 l 1
 256 898 l 1
 256 1024 l 1
 640 1024 l 1
 640 -152 l 2
 640 -243 640 -338 572 -420 c 0
 520 -483 436 -528 330 -528 c 0
 255 -528 188 -513 128 -493 c 1
 128 -365 l 1
EndSplineSet
Layer: 2
Layer: 3
Layer: 4
EndChar
StartChar: uni0137
Encoding: 311 311 275
Width: 896
VWidth: 0
Flags: W
HStem: -528 120<256 355.008> 0 21G<128 256 705.964 874> 1004 20G<636.815 827> 1516 20G<128 256>
VStem: 128 128<0 435 607 1536> 384 128<-361.261 -128>
LayerCount: 5
Back
Fore
SplineSet
512 -233 m 2
 512 -293 512 -363 460 -433 c 0
 418 -490 346 -528 256 -528 c 1
 256 -408 l 1
 303 -408 335 -391 356 -363 c 0
 384 -326 384 -283 384 -233 c 2
 384 -128 l 1
 512 -128 l 1
 512 -233 l 2
256 0 m 1
 128 0 l 1
 128 1536 l 1
 256 1536 l 1
 256 607 l 1
 656 1024 l 1
 827 1024 l 1
 464 645 l 1
 874 0 l 1
 718 0 l 1
 381 560 l 1
 256 435 l 1
 256 0 l 1
EndSplineSet
Layer: 2
Layer: 3
Layer: 4
EndChar
StartChar: Lacute
Encoding: 313 313 279
Width: 896
VWidth: 0
Flags: W
HStem: 0 120<256 896>
VStem: 128 128<120 1280>
LayerCount: 5
Back
Fore
SplineSet
104 1408 m 1
 242 1408 l 1
 408 1664 l 1
 270 1664 l 1
 104 1408 l 1
128 0 m 1
 128 1280 l 1
 256 1280 l 1
 256 120 l 1
 896 120 l 1
 896 0 l 1
 128 0 l 1
EndSplineSet
Layer: 2
Layer: 3
Layer: 4
EndChar
StartChar: uni013B
Encoding: 234 315 281
Width: 896
VWidth: 0
Flags: W
HStem: -528 120<256 355.008> 0 120<256 896> 1388 20G<128 256>
VStem: 128 128<120 1408> 384 128<-361.261 -128>
LayerCount: 5
Back
Fore
SplineSet
512 -233 m 2
 512 -293 512 -363 460 -433 c 0
 418 -490 346 -528 256 -528 c 1
 256 -408 l 1
 303 -408 335 -391 356 -363 c 0
 384 -326 384 -283 384 -233 c 2
 384 -128 l 1
 512 -128 l 1
 512 -233 l 2
128 0 m 1
 128 1408 l 1
 256 1408 l 1
 256 120 l 1
 896 120 l 1
 896 0 l 1
 128 0 l 1
EndSplineSet
Layer: 2
Layer: 3
Layer: 4
EndChar
StartChar: uni013C
Encoding: 235 316 282
Width: 896
VWidth: 0
Flags: W
HStem: -528 120<384 483.008> -16 120<540.725 766.027> 1516 20G<384 512>
VStem: 384 128<149.787 1536> 512 128<-361.261 -128>
LayerCount: 5
Back
Fore
SplineSet
640 -233 m 2xe8
 640 -293 640 -363 588 -433 c 0
 546 -490 474 -528 384 -528 c 1
 384 -408 l 1xf0
 431 -408 463 -391 484 -363 c 0
 512 -326 512 -283 512 -233 c 2
 512 -128 l 1
 640 -128 l 1
 640 -233 l 2xe8
768 -2 m 1
 725 -9 680 -16 630 -16 c 0
 558 -16 499 9 457 52 c 0
 384 128 384 218 384 279 c 2
 384 1536 l 1
 512 1536 l 1
 512 279 l 2xf0
 512 232 512 186 540 148 c 0
 560 121 591 104 640 104 c 0xe8
 677 104 727 113 768 121 c 1
 768 -2 l 1
EndSplineSet
Layer: 2
Layer: 3
Layer: 4
EndChar
StartChar: Lcaron
Encoding: 317 317 277
Width: 896
VWidth: 0
Flags: W
HStem: 0 120<256 896> 1024 21G<640 768> 1388 20G<128 256 640 768>
VStem: 128 128<120 1408> 640 128<1024 1408>
LayerCount: 5
Back
Fore
SplineSet
640 1408 m 1
 768 1408 l 1
 768 1024 l 1
 640 1024 l 1
 640 1408 l 1
128 0 m 1
 128 1408 l 1
 256 1408 l 1
 256 120 l 1
 896 120 l 1
 896 0 l 1
 128 0 l 1
EndSplineSet
Layer: 2
Layer: 3
Layer: 4
EndChar
StartChar: lcaron
Encoding: 318 318 278
Width: 896
VWidth: 0
Flags: W
HStem: -16 120<412.725 638.027> 1516 20G<256 384 640 768>
VStem: 256 128<149.787 1536> 640 128<1152 1536>
LayerCount: 5
Back
Fore
SplineSet
640 -2 m 1
 597 -9 552 -16 502 -16 c 0
 430 -16 371 9 329 52 c 0
 256 128 256 218 256 279 c 0
 256 698 256 1117 256 1536 c 1
 384 1536 l 1
 384 279 l 2
 384 232 384 186 412 148 c 0
 432 121 463 104 512 104 c 0
 549 104 599 113 640 121 c 1
 640 -2 l 1
640 1536 m 1
 768 1536 l 1
 768 1152 l 1
 640 1152 l 1
 640 1536 l 1
EndSplineSet
Layer: 2
Layer: 3
Layer: 4
EndChar
StartChar: Ldot
Encoding: 238 319 283
Width: 896
VWidth: 0
Flags: W
HStem: 0 120<256 896> 720 224<485.032 666.968> 1388 20G<128 256>
VStem: 128 128<120 1408> 464 224<741.032 922.968>
LayerCount: 5
Back
Fore
SplineSet
128 0 m 1
 128 1408 l 1
 256 1408 l 1
 256 120 l 1
 896 120 l 1
 896 0 l 1
 128 0 l 1
576 944 m 0
 642 944 688 898 688 832 c 0
 688 766 642 720 576 720 c 0
 510 720 464 766 464 832 c 0
 464 898 510 944 576 944 c 0
EndSplineSet
Layer: 2
Layer: 3
Layer: 4
EndChar
StartChar: ldot
Encoding: 320 320 284
Width: 896
VWidth: 0
Flags: W
HStem: -16 120<412.725 638.027> 720 224<613.032 794.968> 1516 20G<256 384>
VStem: 256 128<149.787 1536> 592 224<741.032 922.968>
LayerCount: 5
Back
Fore
SplineSet
640 -2 m 1
 597 -9 552 -16 502 -16 c 0
 430 -16 371 9 329 52 c 0
 256 128 256 218 256 279 c 2
 256 1536 l 1
 384 1536 l 1
 384 279 l 2
 384 232 384 186 412 148 c 0
 432 121 463 104 512 104 c 0
 549 104 599 113 640 121 c 1
 640 -2 l 1
704 944 m 0
 770 944 816 898 816 832 c 0
 816 766 770 720 704 720 c 0
 638 720 592 766 592 832 c 0
 592 898 638 944 704 944 c 0
EndSplineSet
Layer: 2
Layer: 3
Layer: 4
EndChar
StartChar: Lslash
Encoding: 240 321 285
Width: 896
VWidth: 0
Flags: W
HStem: 0 120<256 896> 1388 20G<128 256>
VStem: 128 128<120 1408>
LayerCount: 5
Back
Fore
SplineSet
128 0 m 1
 128 1408 l 1
 256 1408 l 1
 256 120 l 1
 896 120 l 1
 896 0 l 1
 128 0 l 1
EndSplineSet
Layer: 2
Layer: 3
Layer: 4
EndChar
StartChar: lslash
Encoding: 241 322 286
Width: 896
VWidth: 0
Flags: W
HStem: -16 120<540.725 766.027> 1516 20G<384 512>
VStem: 384 128<149.787 1536>
LayerCount: 5
Back
Fore
SplineSet
768 -2 m 1
 725 -9 680 -16 630 -16 c 0
 558 -16 499 9 457 52 c 0
 384 128 384 218 384 279 c 2
 384 1536 l 1
 512 1536 l 1
 512 279 l 2
 512 232 512 186 540 148 c 0
 560 121 591 104 640 104 c 0
 677 104 727 113 768 121 c 1
 768 -2 l 1
EndSplineSet
Layer: 2
Layer: 3
Layer: 4
EndChar
StartChar: Nacute
Encoding: 323 323 240
Width: 896
VWidth: 0
Flags: W
HStem: 0 21G<0 128 755.647 896>
VStem: 0 128<0 1020> 768 128<260 1280>
LayerCount: 5
Back
Fore
SplineSet
360 1408 m 1
 498 1408 l 1
 664 1664 l 1
 526 1664 l 1
 360 1408 l 1
128 0 m 1
 0 0 l 1
 0 1280 l 1
 127 1280 l 1
 758 260 l 1
 768 260 l 1
 768 1280 l 1
 896 1280 l 1
 896 0 l 1
 768 0 l 1
 138 1020 l 1
 128 1020 l 1
 128 0 l 1
EndSplineSet
Layer: 2
Layer: 3
Layer: 4
EndChar
StartChar: uni0145
Encoding: 325 325 241
Width: 896
VWidth: 0
Flags: W
HStem: -528 120<256 355.008> 0 21G<0 128 757.024 896> 1388 20G<0 137.993 768 896>
VStem: 0 128<0 1148> 384 128<-361.261 -128> 768 128<260 1408>
CounterMasks: 1 1c
LayerCount: 5
Back
Fore
SplineSet
512 -233 m 2
 512 -293 512 -363 460 -433 c 0
 418 -490 346 -528 256 -528 c 1
 256 -408 l 1
 303 -408 335 -391 356 -363 c 0
 384 -326 384 -283 384 -233 c 2
 384 -128 l 1
 512 -128 l 1
 512 -233 l 2
128 0 m 1
 0 0 l 1
 0 1408 l 1
 127 1408 l 1
 758 260 l 1
 768 260 l 1
 768 1408 l 1
 896 1408 l 1
 896 0 l 1
 768 0 l 1
 138 1148 l 1
 128 1148 l 1
 128 0 l 1
EndSplineSet
Layer: 2
Layer: 3
Layer: 4
EndChar
StartChar: Ncaron
Encoding: 246 327 243
Width: 896
VWidth: 0
Flags: W
HStem: 0 21G<0 128 755.647 896>
VStem: 0 128<0 1020> 768 128<260 1280>
LayerCount: 5
Back
Fore
SplineSet
369 1408 m 1
 527 1408 l 1
 824 1664 l 1
 666 1664 l 1
 448 1500 l 1
 230 1664 l 1
 72 1664 l 1
 369 1408 l 1
128 0 m 1
 0 0 l 1
 0 1280 l 1
 127 1280 l 1
 758 260 l 1
 768 260 l 1
 768 1280 l 1
 896 1280 l 1
 896 0 l 1
 768 0 l 1
 138 1020 l 1
 128 1020 l 1
 128 0 l 1
EndSplineSet
Layer: 2
Layer: 3
Layer: 4
EndChar
StartChar: napostrophe
Encoding: 329 329 245
Width: 896
VWidth: 0
Flags: W
HStem: 0 21G<128 256 640 768> 920 120<343.273 576.311> 1004 20G<128 256>
VStem: 128 128<0 857.984 912 1024> 640 128<0 854.076>
LayerCount: 5
Back
Fore
SplineSet
468 1040 m 0xd8
 568 1040 649 995 699 933 c 0
 768 847 768 751 768 657 c 2
 768 0 l 1
 640 0 l 1
 640 657 l 2
 640 744 640 806 595 858 c 0
 563 895 512 920 448 920 c 0xd8
 384 920 333 895 301 858 c 0
 256 806 256 744 256 657 c 2
 256 0 l 1
 128 0 l 1
 128 1024 l 1
 256 1024 l 1xb8
 256 912 l 1
 266 912 l 1
 315 989 392 1040 468 1040 c 0xd8
EndSplineSet
Layer: 2
Layer: 3
Layer: 4
EndChar
StartChar: Eng
Encoding: 330 330 246
Width: 896
VWidth: 0
Flags: W
HStem: -528 120<386.703 707.284> 0 21G<0 128> 1388 20G<0 137.993 768 896>
VStem: 0 128<0 1148> 768 128<-347.771 0 260 1408>
LayerCount: 5
Back
Fore
SplineSet
128 0 m 1
 0 0 l 1
 0 1408 l 1
 127 1408 l 1
 758 260 l 1
 768 260 l 1
 768 1408 l 1
 896 1408 l 1
 896 888 896 368 896 -152 c 0
 896 -242 896 -338 828 -420 c 0
 776 -483 692 -528 586 -528 c 0
 511 -528 444 -513 384 -493 c 1
 384 -365 l 1
 439 -387 508 -408 576 -408 c 0
 643 -408 693 -384 725 -346 c 0
 768 -294 768 -230 768 -142 c 2
 768 0 l 1
 138 1148 l 1
 128 1148 l 1
 128 0 l 1
EndSplineSet
Layer: 2
Layer: 3
Layer: 4
EndChar
StartChar: eng
Encoding: 331 331 248
Width: 896
VWidth: 0
Flags: W
HStem: -528 120<386.225 611.489> 0 21G<128 256> 920 120<343.273 576.311> 1004 20G<128 256>
VStem: 128 128<0 857.984 912 1024> 640 128<-361.261 854.076>
LayerCount: 5
Back
Fore
SplineSet
468 1040 m 0xec
 568 1040 649 995 699 933 c 0
 768 847 768 751 768 657 c 0
 768 360 768 64 768 -233 c 0
 768 -293 768 -363 716 -433 c 0
 674 -490 602 -528 512 -528 c 0
 477 -528 431 -521 384 -511 c 1
 384 -388 l 1
 432 -399 478 -408 512 -408 c 0
 559 -408 591 -391 612 -363 c 0
 640 -326 640 -283 640 -233 c 0
 640 64 640 360 640 657 c 0
 640 744 640 806 595 858 c 0
 563 895 512 920 448 920 c 0xec
 384 920 333 895 301 858 c 0
 256 806 256 744 256 657 c 2
 256 0 l 1
 128 0 l 1
 128 1024 l 1
 256 1024 l 1xdc
 256 912 l 1
 266 912 l 1
 315 989 392 1040 468 1040 c 0xec
EndSplineSet
Layer: 2
Layer: 3
Layer: 4
EndChar
StartChar: omacron
Encoding: 333 333 249
Width: 896
VWidth: 0
Flags: W
HStem: -16 120<318.155 577.845> 920 120<318.155 577.845> 1156 120<128 768>
VStem: 96 128<209.24 814.76> 672 128<209.24 814.76>
LayerCount: 5
Back
Fore
SplineSet
128 1276 m 1
 768 1276 l 1
 768 1156 l 1
 128 1156 l 1
 128 1276 l 1
448 920 m 0
 352 920 288 868 256 789 c 0
 226 714 224 614 224 512 c 0
 224 410 226 310 256 235 c 0
 288 156 352 104 448 104 c 0
 544 104 608 156 640 235 c 0
 670 310 672 410 672 512 c 0
 672 614 670 714 640 789 c 0
 608 868 544 920 448 920 c 0
448 1040 m 0
 608 1040 714 945 760 829 c 0
 798 734 800 633 800 512 c 0
 800 391 798 290 760 195 c 0
 714 79 608 -16 448 -16 c 0
 288 -16 182 79 136 195 c 0
 98 290 96 391 96 512 c 0
 96 633 98 734 136 829 c 0
 182 945 288 1040 448 1040 c 0
EndSplineSet
Layer: 2
Layer: 3
Layer: 4
EndChar
StartChar: Obreve
Encoding: 253 334 250
Width: 896
VWidth: 0
Flags: W
HStem: -16 120<288.143 607.857> 1176 120<288.143 607.857> 1392 120<290.746 605.254>
VStem: 0 128<298.492 981.508> 108 128<1563.69 1664> 660 128<1563.69 1664> 768 128<298.492 981.508>
LayerCount: 5
Back
Fore
SplineSet
128 640 m 4xf2
 128 537 130 438 154 348 c 4
 192 206 287 104 448 104 c 4
 609 104 704 206 742 348 c 4
 766 438 768 537 768 640 c 4
 768 743 766 842 742 932 c 4
 704 1074 609 1176 448 1176 c 4
 287 1176 192 1074 154 932 c 4
 130 842 128 743 128 640 c 4xf2
0 640 m 4
 0 744 1 853 30 962 c 4
 81 1153 225 1296 448 1296 c 4
 671 1296 815 1153 866 962 c 4
 895 853 896 744 896 640 c 4
 896 536 895 427 866 318 c 4
 815 127 671 -16 448 -16 c 4
 225 -16 81 127 30 318 c 4
 1 427 0 536 0 640 c 4
660 1664 m 1xec
 788 1664 l 1
 788 1496 636 1392 448 1392 c 0
 260 1392 108 1496 108 1664 c 1
 236 1664 l 1
 236 1578 305 1512 448 1512 c 0
 591 1512 660 1578 660 1664 c 1xec
EndSplineSet
Layer: 2
Layer: 3
Layer: 4
EndChar
StartChar: obreve
Encoding: 335 335 251
Width: 896
VWidth: 0
Flags: W
HStem: -16 120<318.155 577.845> 920 120<318.155 577.845> 1136 120<290.746 605.254> 1388 20G<108 236 660 788>
VStem: 96 128<209.24 814.76 1320.51 1408> 672 128<209.24 814.76 1320.51 1408>
LayerCount: 5
Back
Fore
SplineSet
660 1408 m 1
 788 1408 l 1
 788 1240 636 1136 448 1136 c 0
 260 1136 108 1240 108 1408 c 1
 236 1408 l 1
 236 1322 305 1256 448 1256 c 0
 591 1256 660 1322 660 1408 c 1
448 920 m 0
 352 920 288 868 256 789 c 0
 226 714 224 614 224 512 c 0
 224 410 226 310 256 235 c 0
 288 156 352 104 448 104 c 0
 544 104 608 156 640 235 c 0
 670 310 672 410 672 512 c 0
 672 614 670 714 640 789 c 0
 608 868 544 920 448 920 c 0
448 1040 m 0
 608 1040 714 945 760 829 c 0
 798 734 800 633 800 512 c 0
 800 391 798 290 760 195 c 0
 714 79 608 -16 448 -16 c 0
 288 -16 182 79 136 195 c 0
 98 290 96 391 96 512 c 0
 96 633 98 734 136 829 c 0
 182 945 288 1040 448 1040 c 0
EndSplineSet
Layer: 2
Layer: 3
Layer: 4
EndChar
StartChar: Ohungarumlaut
Encoding: 255 336 252
Width: 896
VWidth: 0
Flags: W
HStem: -16 120<288.143 607.857> 1176 120<288.143 607.857>
VStem: 0 128<298.492 981.508> 768 128<298.492 981.508>
LayerCount: 5
Back
Fore
SplineSet
128 640 m 4
 128 537 130 438 154 348 c 4
 192 206 287 104 448 104 c 4
 609 104 704 206 742 348 c 4
 766 438 768 537 768 640 c 4
 768 743 766 842 742 932 c 4
 704 1074 609 1176 448 1176 c 4
 287 1176 192 1074 154 932 c 4
 130 842 128 743 128 640 c 4
0 640 m 4
 0 744 1 853 30 962 c 4
 81 1153 225 1296 448 1296 c 4
 671 1296 815 1153 866 962 c 4
 895 853 896 744 896 640 c 4
 896 536 895 427 866 318 c 4
 815 127 671 -16 448 -16 c 4
 225 -16 81 127 30 318 c 4
 1 427 0 536 0 640 c 4
232 1408 m 1
 370 1408 l 1
 536 1664 l 1
 398 1664 l 1
 232 1408 l 1
488 1408 m 1
 626 1408 l 1
 792 1664 l 1
 654 1664 l 1
 488 1408 l 1
EndSplineSet
Layer: 2
Layer: 3
Layer: 4
EndChar
StartChar: oe
Encoding: 339 339 255
Width: 896
VWidth: 0
Flags: W
HStem: -16 120<164.854 313.675 585.887 893.063> 512 120<513 799> 920 120<164.854 314.773 579.256 744.503>
VStem: -32 128<187.817 836.183> 384 128<188.512 512 632 834.556> 799 127<632 861.341>
LayerCount: 5
Back
SplineSet
368 980 m 0
 362.652829754 980 357.306132593 979.661200842 352 979 c 0
 329.346877271 976.177178753 307.603030794 967.486154718 288.465213556 955.041226414 c 0
 269.327396317 942.596298109 252.725653026 926.447783311 238.814593477 908.347653162 c 0
 210.992474381 872.147392865 193.900455742 828.674579002 182.948453588 784.350964468 c 0
 161.044449277 695.7037354 160.000000004 603.313288333 160 512 c 0
 160 420.686711666 161.044449269 328.296264597 182.948453576 239.649035527 c 0
 193.900455732 195.325420992 210.992474373 151.85260713 238.814593472 115.652346834 c 0
 252.725653021 97.5522166853 269.327396314 81.4037018871 288.465213554 68.9587735833 c 0
 307.603030793 56.5138452796 329.346877271 47.8228212459 352 45 c 0
 357.306132593 44.338799158 362.652829754 44 368 44 c 0
 373.347170246 44 378.693867407 44.338799158 384 45 c 0
 406.653122729 47.8228212469 428.396969206 56.5138452816 447.534786444 68.9587735861 c 0
 466.672603683 81.4037018906 483.274346974 97.5522166894 497.185406523 115.652346838 c 0
 525.007525619 151.852607135 542.099544258 195.325420998 553.051546412 239.649035532 c 0
 574.955550723 328.2962646 575.999999996 420.686711667 576 512 c 0
 576 603.313288334 574.955550731 695.703735403 553.051546424 784.350964473 c 0
 542.099544268 828.674579008 525.007525627 872.14739287 497.185406528 908.347653166 c 0
 483.274346979 926.447783315 466.672603686 942.596298113 447.534786446 955.041226417 c 0
 428.396969207 967.48615472 406.653122729 976.177178754 384 979 c 0
 378.693867407 979.661200842 373.347170246 980 368 980 c 0
  Spiro
    368 980 o
    352 979 o
    160 512 o
    352 45 o
    368 44 o
    384 45 o
    576 512 o
    384 979 o
    0 0 z
  EndSpiro
EndSplineSet
Fore
SplineSet
799 632 m 1
 797 729 788 820 747 873 c 0
 724 902 696 920 662 920 c 0
 589 920 549 842 530 773 c 0
 518 729 514 682 513 632 c 1
 799 632 l 1
240 1040 m 0
 360 1040 415 954 444 863 c 1
 454 863 l 1
 499 973 567 1040 662 1040 c 0
 800 1040 879 917 907 802 c 0
 926 725 926 649 926 577 c 2
 926 512 l 1
 512 512 l 1
 512 469 l 2
 512 289 526 104 704 104 c 0
 760 104 834 119 896 129 c 1
 896 7 l 1
 833 -3 763 -16 701 -16 c 0
 596 -16 508 34 456 148 c 1
 446 148 l 1
 417 61 354 -16 240 -16 c 0
 192 -16 155 -1 124 20 c 0
 -20 117 -32 309 -32 512 c 0
 -32 715 -20 907 124 1004 c 0
 155 1025 192 1040 240 1040 c 0
240 104 m 0
 274 104 300 129 317 151 c 0
 378 231 384 377 384 512 c 0
 384 647 379 793 317 873 c 0
 300 895 274 920 240 920 c 0
 206 920 180 895 163 873 c 0
 102 793 96 647 96 512 c 0
 96 377 101 231 163 151 c 0
 180 129 206 104 240 104 c 0
EndSplineSet
Layer: 2
SplineSet
368 1040 m 4
 376.23046875 1040 384.390625 1039.47851562 392.430664062 1038.4765625 c 4
 426.833984375 1034.19042969 457.7734375 1021.40332031 484.009765625 1004.34375 c 4
 510.224609375 987.296875 531.661132812 966.126953125 549.110351562 943.422851562 c 4
 583.889648438 898.171875 603.258789062 847.03125 615.400390625 797.890625 c 4
 639.407226562 700.732421875 640 603.65625 640 512 c 4
 640 420.344726562 639.407226562 323.267578125 615.400390625 226.109375 c 4
 603.258789062 176.96875 583.888671875 125.828125 549.111328125 80.5771484375 c 4
 531.6640625 57.876953125 510.219726562 36.701171875 484.013671875 19.658203125 c 4
 457.779296875 2.6005859375 426.826171875 -10.19140625 392.431640625 -14.4765625 c 4
 384.388671875 -15.4794921875 376.231445312 -16 368 -16 c 4
 359.76953125 -16 351.609375 -15.478515625 343.569335938 -14.4775390625 c 4
 309.166015625 -10.1904296875 278.2265625 2.595703125 251.990234375 19.65625 c 4
 225.775390625 36.705078125 204.33984375 57.8720703125 186.889648438 80.5771484375 c 4
 152.110351562 125.829101562 132.741210938 176.967773438 120.599609375 226.109375 c 4
 96.5927734375 323.267578125 96 420.34375 96 512 c 4
 96 603.655273438 96.5927734375 700.732421875 120.599609375 797.890625 c 4
 132.741210938 847.03125 152.110351562 898.171875 186.889648438 943.422851562 c 4
 204.334960938 966.122070312 225.780273438 987.299804688 251.98828125 1004.34277344 c 4
 278.21875 1021.3984375 309.173828125 1034.19140625 343.568359375 1038.4765625 c 4
 351.611328125 1039.47851562 359.768554688 1040 368 1040 c 4
368 920 m 4
 365.536132812 920 363 919.842773438 360.431640625 919.522460938 c 4
 349.51953125 918.163085938 336.98828125 913.57421875 324.94140625 905.740234375 c 4
 312.874023438 897.893554688 301.116210938 886.7734375 290.739257812 873.272460938 c 4
 269.874023438 846.123046875 255.059570312 810.318359375 245.296875 770.810546875 c 4
 225.497070312 690.674804688 224 602.970703125 224 512 c 4
 224 421.029296875 225.497070312 333.32421875 245.296875 253.189453125 c 4
 255.059570312 213.681640625 269.874023438 177.876953125 290.739257812 150.727539062 c 4
 301.111328125 137.232421875 312.87890625 126.103515625 324.939453125 118.260742188 c 4
 336.98046875 110.431640625 349.52734375 105.8359375 360.430664062 104.477539062 c 4
 363.001953125 104.157226562 365.53515625 104 368 104 c 4
 370.463867188 104 373 104.157226562 375.568359375 104.4765625 c 4
 386.48046875 105.836914062 399.013671875 110.426757812 411.056640625 118.258789062 c 4
 423.125976562 126.107421875 434.884765625 137.227539062 445.259765625 150.7265625 c 4
 466.126953125 177.877929688 480.940429688 213.681640625 490.703125 253.189453125 c 4
 510.502929688 333.325195312 512 421.029296875 512 512 c 4
 512 602.970703125 510.502929688 690.67578125 490.703125 770.810546875 c 4
 480.940429688 810.318359375 466.125976562 846.124023438 445.260742188 873.272460938 c 4
 434.887695312 886.768554688 423.12109375 897.896484375 411.060546875 905.739257812 c 4
 399.01953125 913.568359375 386.47265625 918.1640625 375.569335938 919.522460938 c 4
 372.998046875 919.842773438 370.46484375 920 368 920 c 4
EndSplineSet
Layer: 3
Layer: 4
EndChar
StartChar: uni0156
Encoding: 261 342 258
Width: 896
VWidth: 0
Flags: W
HStem: -528 120<256 355.008> 0 21G<0 128 667.461 809> 640 120<128 433> 1288 120<128 548.624>
VStem: 0 128<0 640 760 1288> 384 128<-361.261 -128> 656 128<868.856 1180.75>
LayerCount: 5
Back
Fore
SplineSet
512 -233 m 2
 512 -293 512 -363 460 -433 c 0
 418 -490 346 -528 256 -528 c 1
 256 -408 l 1
 303 -408 335 -391 356 -363 c 0
 384 -326 384 -283 384 -233 c 2
 384 -128 l 1
 512 -128 l 1
 512 -233 l 2
321 760 m 2
 397 760 437 762 473 770 c 0
 581 794 656 890 656 1024 c 0
 656 1158 581 1254 473 1278 c 0
 437 1286 397 1288 321 1288 c 2
 128 1288 l 1
 128 760 l 1
 321 760 l 2
128 0 m 1
 0 0 l 1
 0 1408 l 1
 321 1408 l 2
 398 1408 450 1408 505 1395 c 0
 664 1357 784 1220 784 1024 c 0
 784 851 690 723 558 670 c 1
 809 0 l 1
 675 0 l 1
 433 642 l 1
 400 640 365 640 321 640 c 2
 128 640 l 1
 128 0 l 1
EndSplineSet
Layer: 2
Layer: 3
Layer: 4
EndChar
StartChar: uni0157
Encoding: 343 343 259
Width: 896
VWidth: 0
Flags: W
HStem: -528 120<128 227.008> 0 21G<128 256> 920 120<376.949 764.248> 1004 20G<128 256>
VStem: 128 128<0 782.495 876 1024> 256 128<-361.261 -128>
LayerCount: 5
Back
Fore
SplineSet
384 -233 m 2xc4
 384 -293 384 -363 332 -433 c 0
 290 -490 218 -528 128 -528 c 1
 128 -408 l 1xc8
 175 -408 207 -391 228 -363 c 0
 256 -326 256 -283 256 -233 c 2
 256 -128 l 1
 384 -128 l 1
 384 -233 l 2xc4
128 1024 m 1xd8
 256 1024 l 1xd8
 256 876 l 1
 266 876 l 1
 332 982 409 1040 537 1040 c 0
 609 1040 690 1034 768 1026 c 1
 768 903 l 1
 686 913 602 920 537 920 c 0xe8
 461 920 407 903 363 866 c 0
 257 778 256 612 256 535 c 2
 256 0 l 1
 128 0 l 1
 128 1024 l 1xd8
EndSplineSet
Layer: 2
Layer: 3
Layer: 4
EndChar
StartChar: rcaron
Encoding: 345 345 261
Width: 896
VWidth: 0
Flags: W
HStem: 0 21G<128 256> 920 120<376.949 764.248> 1004 20G<128 256>
VStem: 128 128<0 782.495 876 1024>
LayerCount: 5
Back
Fore
SplineSet
369 1152 m 1x90
 527 1152 l 1
 824 1408 l 1
 666 1408 l 1
 448 1244 l 1
 230 1408 l 1
 72 1408 l 1
 369 1152 l 1x90
128 1024 m 1xb0
 256 1024 l 1xb0
 256 876 l 1
 266 876 l 1
 332 982 409 1040 537 1040 c 0
 609 1040 690 1034 768 1026 c 1
 768 903 l 1
 686 913 602 920 537 920 c 0xd0
 461 920 407 903 363 866 c 0
 257 778 256 612 256 535 c 2
 256 0 l 1
 128 0 l 1
 128 1024 l 1xb0
EndSplineSet
Layer: 2
Layer: 3
Layer: 4
EndChar
StartChar: Sacute
Encoding: 346 346 263
Width: 896
VWidth: 0
Flags: W
HStem: -16 120<131.035 639.354> 1176 120<253.816 715.308>
VStem: 24 128<854.147 1088.04> 768 128<226.376 520.681>
LayerCount: 5
Back
Fore
SplineSet
442 1176 m 4
 251 1176 152 1080 152 972 c 4
 152 885 210 819 284 787 c 4
 394 740 537 772 664 721 c 4
 787 672 896 547 896 375 c 4
 896 192 758 -16 454 -16 c 4
 337 -16 191 11 64 39 c 5
 64 163 l 5
 191 133 340 104 454 104 c 4
 675 104 768 240 768 375 c 4
 768 493 698 575 616 609 c 4
 493 660 359 619 220 683 c 4
 112 733 24 837 24 972 c 4
 24 1127 160 1296 442 1296 c 4
 543 1296 683 1265 802 1233 c 5
 802 1108 l 5
 682 1142 541 1176 442 1176 c 4
360 1408 m 1
 498 1408 l 1
 664 1664 l 1
 526 1664 l 1
 360 1408 l 1
EndSplineSet
Layer: 2
Layer: 3
Layer: 4
EndChar
StartChar: Scedilla
Encoding: 350 350 266
Width: 896
VWidth: 0
Flags: W
HStem: -400 120<258.225 483.489> -16 120<131.035 507.29> 1304 120<274.92 715.308>
VStem: 24 128<889.025 1186.02> 512 128<-233.261 -14> 768 128<226.089 520.681>
LayerCount: 5
Back
Fore
SplineSet
640 -105 m 2
 640 -165 640 -235 588 -305 c 0
 546 -362 474 -400 384 -400 c 0
 349 -400 303 -393 256 -383 c 1
 256 -260 l 1
 304 -271 350 -280 384 -280 c 0
 431 -280 463 -263 484 -235 c 0
 512 -198 512 -155 512 -105 c 2
 512 -14 l 1
 493 -16 474 -16 454 -16 c 0
 337 -16 191 11 64 39 c 1
 64 163 l 1
 191 133 340 104 454 104 c 0
 675 104 768 240 768 375 c 4
 768 493 698 575 616 609 c 4
 490 661 359 628 220 703 c 0
 112 761 24 880 24 1036 c 0
 24 1222 160 1424 442 1424 c 0
 543 1424 683 1393 802 1361 c 1
 802 1236 l 1
 682 1270 541 1304 442 1304 c 0
 251 1304 152 1178 152 1036 c 0
 152 928 210 847 284 807 c 0
 393 749 534 773 664 721 c 4
 787 672 896 547 896 375 c 4
 896 233 815 76 640 13 c 1
 640 -105 l 2
EndSplineSet
Layer: 2
Layer: 3
Layer: 4
EndChar
StartChar: scedilla
Encoding: 270 351 267
Width: 896
VWidth: 0
Flags: W
HStem: -400 120<258.225 483.489> -16 120<132.566 510.511> 920 120<285.623 715.839>
VStem: 106 128<687.599 867.607> 512 128<-233.261 -11> 672 128<181.755 441.813>
LayerCount: 5
Back
Fore
SplineSet
640 -105 m 6
 640 -165 640 -235 588 -305 c 4
 546 -362 474 -400 384 -400 c 4
 349 -400 303 -393 256 -383 c 5
 256 -260 l 5
 304 -271 350 -280 384 -280 c 4
 431 -280 463 -263 484 -235 c 4
 512 -198 512 -155 512 -105 c 6
 512 -11 l 5
 489 -14 465 -16 439 -16 c 4
 346 -16 227 7 128 26 c 5
 128 149 l 5
 223 129 352 104 439 104 c 4
 627 104 672 231 672 313 c 4
 672 397 629 458 572 488 c 4
 486 532 379 510 274 550 c 4
 190 582 106 661 106 776 c 4
 106 904 215 1040 444 1040 c 4
 551 1040 661 1012 758 989 c 5
 758 866 l 5
 660 889 537 920 444 920 c 4
 282 920 234 834 234 776 c 4
 234 719 276 679 322 662 c 4
 415 627 526 651 634 594 c 4
 727 545 800 445 800 313 c 4
 800 202 747 93 640 32 c 5
 640 -105 l 6
EndSplineSet
Layer: 2
Layer: 3
Layer: 4
EndChar
StartChar: scaron
Encoding: 353 353 269
Width: 896
VWidth: 0
Flags: W
HStem: -16 120<132.566 592.345> 920 120<285.623 715.839>
VStem: 106 128<687.599 867.607> 672 128<183.035 441.813>
LayerCount: 5
Back
Fore
SplineSet
365 1162 m 1
 523 1162 l 1
 820 1418 l 1
 662 1418 l 1
 444 1254 l 1
 226 1418 l 1
 68 1418 l 1
 365 1162 l 1
439 -16 m 0
 346 -16 227 7 128 26 c 1
 128 149 l 1
 223 129 352 104 439 104 c 0
 627 104 672 231 672 313 c 0
 672 397 629 458 572 488 c 0
 486 532 379 510 274 550 c 0
 190 582 106 661 106 776 c 0
 106 904 215 1040 444 1040 c 0
 551 1040 661 1012 758 989 c 1
 758 866 l 1
 660 889 537 920 444 920 c 0
 282 920 234 834 234 776 c 0
 234 719 276 679 322 662 c 0
 415 627 526 651 634 594 c 0
 727 545 800 445 800 313 c 0
 800 147 682 -16 439 -16 c 0
EndSplineSet
Layer: 2
Layer: 3
Layer: 4
EndChar
StartChar: Tbar
Encoding: 358 358 289
Width: 896
VWidth: 0
Flags: W
HStem: 0 21G<384 512> 644 120<128 384 512 768> 1288 120<0 384 512 896>
VStem: 384 128<0 644 764 1288>
LayerCount: 5
Back
Fore
SplineSet
896 1408 m 1
 896 1288 l 1
 512 1288 l 1
 512 764 l 1
 768 764 l 1
 768 644 l 1
 512 644 l 1
 512 0 l 1
 384 0 l 1
 384 644 l 1
 128 644 l 1
 128 764 l 1
 384 764 l 1
 384 1288 l 1
 0 1288 l 1
 0 1408 l 1
 896 1408 l 1
EndSplineSet
Layer: 2
Layer: 3
Layer: 4
EndChar
StartChar: tbar
Encoding: 359 359 290
Width: 896
VWidth: 0
Flags: W
HStem: -16 120<444.716 765.297> 516 120<0 256 384 768> 898 126<0 256 384 768>
VStem: 256 128<164.235 516 636 898 1024 1280>
LayerCount: 5
Back
Fore
SplineSet
768 19 m 1
 708 -1 641 -16 566 -16 c 0
 460 -16 376 29 324 92 c 0
 256 174 256 271 256 360 c 2
 256 516 l 1
 0 516 l 1
 0 636 l 1
 256 636 l 1
 256 898 l 1
 0 898 l 1
 0 1024 l 1
 256 1024 l 1
 256 1280 l 1
 384 1280 l 1
 384 1024 l 1
 768 1024 l 1
 768 898 l 1
 384 898 l 1
 384 636 l 1
 768 636 l 1
 768 516 l 1
 384 516 l 1
 384 370 l 2
 384 284 384 218 427 166 c 0
 459 128 509 104 576 104 c 0
 644 104 713 125 768 147 c 1
 768 19 l 1
EndSplineSet
Layer: 2
Layer: 3
Layer: 4
EndChar
StartChar: Utilde
Encoding: 279 360 198
Width: 896
VWidth: 0
Flags: W
HStem: -16 120<276.736 619.179> 1412 120<495.658 628.749> 1540 120<267.276 400.342>
VStem: 0 128<252.382 1280> 125 128<1433 1533.1> 643 128<1539.78 1639> 768 128<252.382 1280>
LayerCount: 5
Back
Fore
SplineSet
320 1540 m 0xec
 269 1540 256 1481 253 1427 c 1
 125 1433 l 1
 129 1551 191 1660 320 1660 c 0
 466 1660 499 1532 576 1532 c 0
 627 1532 640 1591 643 1645 c 1
 771 1639 l 1
 768 1523 705 1412 576 1412 c 0
 430 1412 397 1540 320 1540 c 0xec
0 1280 m 1xf2
 128 1280 l 1
 128 512 l 2
 128 437 128 378 140 330 c 0
 173 196 288 104 448 104 c 0
 608 104 723 196 756 330 c 0
 768 378 768 437 768 512 c 2
 768 1280 l 1
 896 1280 l 1
 896 512 l 2
 896 426 896 371 880 303 c 0
 836 118 669 -16 448 -16 c 0
 227 -16 59 118 16 303 c 0
 0 371 0 426 0 512 c 2
 0 1280 l 1xf2
EndSplineSet
Layer: 2
Layer: 3
Layer: 4
EndChar
StartChar: utilde
Encoding: 280 361 199
Width: 896
VWidth: 0
Flags: W
HStem: -16 120<319.689 552.727> 0 21G<640 768> 1004 20G<128 256 640 768> 1156 120<495.658 628.749> 1284 120<267.276 400.342>
VStem: 128 128<169.924 1024 1177 1277.1> 640 128<0 112 166.016 1024 1283.78 1383>
LayerCount: 5
Back
Fore
SplineSet
320 1284 m 0x3e
 269 1284 256 1225 253 1171 c 1
 125 1177 l 1
 129 1295 191 1404 320 1404 c 0
 466 1404 499 1276 576 1276 c 0
 627 1276 640 1335 643 1389 c 1
 771 1383 l 1
 768 1267 705 1156 576 1156 c 0
 430 1156 397 1284 320 1284 c 0x3e
428 -16 m 0xbe
 328 -16 247 29 197 91 c 0
 128 177 128 273 128 367 c 2
 128 1024 l 1
 256 1024 l 1
 256 367 l 2
 256 280 256 218 301 166 c 0
 333 129 384 104 448 104 c 0xbe
 512 104 563 129 595 166 c 0
 640 218 640 280 640 367 c 2
 640 1024 l 1
 768 1024 l 1
 768 0 l 1
 640 0 l 1x7e
 640 112 l 1
 630 112 l 1
 581 35 504 -16 428 -16 c 0xbe
EndSplineSet
Layer: 2
Layer: 3
Layer: 4
EndChar
StartChar: Umacron
Encoding: 362 362 200
Width: 896
VWidth: 0
Flags: W
HStem: -16 120<276.736 619.179> 1412 120<128 768>
VStem: 0 128<252.382 1280> 768 128<252.382 1280>
LayerCount: 5
Back
Fore
SplineSet
128 1532 m 1
 768 1532 l 1
 768 1412 l 1
 128 1412 l 1
 128 1532 l 1
0 1280 m 1
 128 1280 l 1
 128 512 l 2
 128 437 128 378 140 330 c 0
 173 196 288 104 448 104 c 0
 608 104 723 196 756 330 c 0
 768 378 768 437 768 512 c 2
 768 1280 l 1
 896 1280 l 1
 896 512 l 2
 896 426 896 371 880 303 c 0
 836 118 669 -16 448 -16 c 0
 227 -16 59 118 16 303 c 0
 0 371 0 426 0 512 c 2
 0 1280 l 1
EndSplineSet
Layer: 2
Layer: 3
Layer: 4
EndChar
StartChar: Ubreve
Encoding: 283 364 202
Width: 896
VWidth: 0
Flags: W
HStem: -16 120<276.736 619.179> 1392 120<290.746 605.254>
VStem: 0 128<252.382 1280> 108 128<1563.69 1664> 660 128<1563.69 1664> 768 128<252.382 1280>
LayerCount: 5
Back
Fore
SplineSet
660 1664 m 1xd8
 788 1664 l 1
 788 1496 636 1392 448 1392 c 0
 260 1392 108 1496 108 1664 c 1
 236 1664 l 1
 236 1578 305 1512 448 1512 c 0
 591 1512 660 1578 660 1664 c 1xd8
0 1280 m 1xe4
 128 1280 l 1
 128 512 l 2
 128 437 128 378 140 330 c 0
 173 196 288 104 448 104 c 0
 608 104 723 196 756 330 c 0
 768 378 768 437 768 512 c 2
 768 1280 l 1
 896 1280 l 1
 896 512 l 2
 896 426 896 371 880 303 c 0
 836 118 669 -16 448 -16 c 0
 227 -16 59 118 16 303 c 0
 0 371 0 426 0 512 c 2
 0 1280 l 1xe4
EndSplineSet
Layer: 2
Layer: 3
Layer: 4
EndChar
StartChar: ubreve
Encoding: 284 365 203
Width: 896
VWidth: 0
Flags: W
HStem: -16 120<319.689 552.727> 0 21G<640 768> 1004 20G<128 256 640 768> 1136 120<290.746 605.254> 1388 20G<108 236 660 788>
VStem: 108 128<1307.69 1408> 128 128<169.924 1024> 640 128<0 112 166.016 1024> 660 128<1307.69 1408>
LayerCount: 5
Back
Fore
SplineSet
660 1408 m 1x3c80
 788 1408 l 1
 788 1240 636 1136 448 1136 c 0
 260 1136 108 1240 108 1408 c 1
 236 1408 l 1
 236 1322 305 1256 448 1256 c 0
 591 1256 660 1322 660 1408 c 1x3c80
428 -16 m 0xbb
 328 -16 247 29 197 91 c 0
 128 177 128 273 128 367 c 2
 128 1024 l 1
 256 1024 l 1
 256 367 l 2
 256 280 256 218 301 166 c 0
 333 129 384 104 448 104 c 0xbb
 512 104 563 129 595 166 c 0
 640 218 640 280 640 367 c 2
 640 1024 l 1
 768 1024 l 1
 768 0 l 1
 640 0 l 1x7b
 640 112 l 1
 630 112 l 1
 581 35 504 -16 428 -16 c 0xbb
EndSplineSet
Layer: 2
Layer: 3
Layer: 4
EndChar
StartChar: Uring
Encoding: 366 366 205
Width: 896
VWidth: 0
Flags: W
HStem: -16 120<276.736 619.179> 1264 100<363.338 532.662> 1580 100<363.338 532.662>
VStem: 0 128<252.382 1280> 240 108<1377.57 1566.43> 548 108<1377.57 1566.43> 768 128<252.382 1280>
LayerCount: 5
Back
Fore
SplineSet
448 1680 m 0
 571 1680 656 1586 656 1472 c 0
 656 1358 571 1264 448 1264 c 0
 325 1264 240 1358 240 1472 c 0
 240 1586 325 1680 448 1680 c 0
448 1580 m 0
 390 1580 348 1546 348 1472 c 0
 348 1398 390 1364 448 1364 c 0
 506 1364 548 1398 548 1472 c 0
 548 1546 506 1580 448 1580 c 0
0 1280 m 1
 128 1280 l 1
 128 512 l 2
 128 437 128 378 140 330 c 0
 173 196 288 104 448 104 c 0
 608 104 723 196 756 330 c 0
 768 378 768 437 768 512 c 2
 768 1280 l 1
 896 1280 l 1
 896 512 l 2
 896 426 896 371 880 303 c 0
 836 118 669 -16 448 -16 c 0
 227 -16 59 118 16 303 c 0
 0 371 0 426 0 512 c 2
 0 1280 l 1
EndSplineSet
Layer: 2
Layer: 3
Layer: 4
EndChar
StartChar: uring
Encoding: 286 367 205
Width: 896
VWidth: 0
Flags: W
HStem: -16 120<319.689 552.727> 0 21G<640 768> 1004 20G<128 256 640 768> 1008 100<363.338 532.662> 1324 100<363.338 532.662>
VStem: 128 128<169.924 1024> 240 108<1121.57 1310.43> 548 108<1121.57 1310.43> 640 128<0 112 166.016 1024>
LayerCount: 5
Back
Fore
SplineSet
448 1424 m 0x1b
 571 1424 656 1330 656 1216 c 0
 656 1102 571 1008 448 1008 c 0
 325 1008 240 1102 240 1216 c 0
 240 1330 325 1424 448 1424 c 0x1b
448 1324 m 0
 390 1324 348 1290 348 1216 c 0
 348 1142 390 1108 448 1108 c 0
 506 1108 548 1142 548 1216 c 0
 548 1290 506 1324 448 1324 c 0
428 -16 m 0x8c80
 328 -16 247 29 197 91 c 0
 128 177 128 273 128 367 c 2
 128 1024 l 1
 256 1024 l 1
 256 367 l 2
 256 280 256 218 301 166 c 0
 333 129 384 104 448 104 c 0xac80
 512 104 563 129 595 166 c 0
 640 218 640 280 640 367 c 2
 640 1024 l 1
 768 1024 l 1
 768 0 l 1
 640 0 l 1x6c80
 640 112 l 1
 630 112 l 1
 581 35 504 -16 428 -16 c 0x8c80
EndSplineSet
Layer: 2
Layer: 3
Layer: 4
EndChar
StartChar: Uhungarumlaut
Encoding: 287 368 206
Width: 896
VWidth: 0
Flags: W
HStem: -16 120<276.736 619.179>
VStem: 0 128<252.382 1280> 768 128<252.382 1280>
LayerCount: 5
Back
Fore
SplineSet
232 1408 m 1
 370 1408 l 1
 536 1664 l 1
 398 1664 l 1
 232 1408 l 1
488 1408 m 1
 626 1408 l 1
 792 1664 l 1
 654 1664 l 1
 488 1408 l 1
0 1280 m 1
 128 1280 l 1
 128 512 l 2
 128 437 128 378 140 330 c 0
 173 196 288 104 448 104 c 0
 608 104 723 196 756 330 c 0
 768 378 768 437 768 512 c 2
 768 1280 l 1
 896 1280 l 1
 896 512 l 2
 896 426 896 371 880 303 c 0
 836 118 669 -16 448 -16 c 0
 227 -16 59 118 16 303 c 0
 0 371 0 426 0 512 c 2
 0 1280 l 1
EndSplineSet
Layer: 2
Layer: 3
Layer: 4
EndChar
StartChar: uhungarumlaut
Encoding: 369 369 207
Width: 896
VWidth: 0
Flags: W
HStem: -16 120<319.689 552.727> 0 21G<640 768> 1004 20G<128 256 640 768>
VStem: 128 128<169.924 1024> 640 128<0 112 166.016 1024>
LayerCount: 5
Back
Fore
SplineSet
232 1152 m 1x38
 370 1152 l 1
 536 1408 l 1
 398 1408 l 1
 232 1152 l 1x38
488 1152 m 1
 626 1152 l 1
 792 1408 l 1
 654 1408 l 1
 488 1152 l 1
428 -16 m 0xb8
 328 -16 247 29 197 91 c 0
 128 177 128 273 128 367 c 2
 128 1024 l 1
 256 1024 l 1
 256 367 l 2
 256 280 256 218 301 166 c 0
 333 129 384 104 448 104 c 0xb8
 512 104 563 129 595 166 c 0
 640 218 640 280 640 367 c 2
 640 1024 l 1
 768 1024 l 1
 768 0 l 1
 640 0 l 1x78
 640 112 l 1
 630 112 l 1
 581 35 504 -16 428 -16 c 0xb8
EndSplineSet
Layer: 2
Layer: 3
Layer: 4
EndChar
StartChar: Uogonek
Encoding: 370 370 208
Width: 896
VWidth: 0
Flags: W
HStem: -400 120<395.912 638.146> 1388 20G<0 128 768 896>
VStem: 0 128<251.024 1408> 256 128<-262.716 -108.573> 768 128<249.171 1408>
LayerCount: 5
Back
Fore
SplineSet
511 -280 m 4
 557 -280 601 -270 640 -260 c 5
 640 -383 l 5
 600 -391 557 -400 511 -400 c 4
 397 -400 256 -325 256 -205 c 4
 256 -66 338 -62 372 -10 c 1
 189 17 54 140 16 303 c 0
 0 371 0 426 0 512 c 2
 0 1408 l 1
 128 1408 l 1
 128 512 l 2
 128 437 128 378 140 330 c 0
 173 196 288 104 448 104 c 0
 608 104 723 196 756 330 c 0
 768 378 768 437 768 512 c 2
 768 1408 l 1
 896 1408 l 1
 896 512 l 2
 896 426 896 371 880 303 c 0
 840 134 698 8 505 -13 c 1
 478 -92 384 -108 384 -198 c 4
 384 -258 454 -280 511 -280 c 4
EndSplineSet
Layer: 2
Layer: 3
Layer: 4
EndChar
StartChar: uogonek
Encoding: 290 371 209
Width: 896
VWidth: 0
Flags: W
HStem: -400 120<523.912 766.146> -16 120<319.689 552.727> 1004 20G<128 256 640 768>
VStem: 128 128<169.924 1024> 384 128<-262.716 -135.229> 640 128<-27.2361 112 166.016 1024>
CounterMasks: 1 1c
LayerCount: 5
Back
Fore
SplineSet
639 -280 m 0
 685 -280 729 -270 768 -260 c 1
 768 -383 l 1
 728 -391 685 -400 639 -400 c 0
 525 -400 384 -325 384 -205 c 0
 384 -57 579 -63 640 0 c 1
 640 112 l 1
 630 112 l 1
 581 35 504 -16 428 -16 c 0
 328 -16 247 29 197 91 c 0
 128 177 128 273 128 367 c 2
 128 1024 l 1
 256 1024 l 1
 256 367 l 2
 256 280 256 218 301 166 c 0
 333 129 384 104 448 104 c 0
 512 104 563 129 595 166 c 0
 640 218 640 280 640 367 c 2
 640 1024 l 1
 768 1024 l 1
 768 0 l 1
 727 -91 512 -103 512 -198 c 0
 512 -258 582 -280 639 -280 c 0
EndSplineSet
Layer: 2
Layer: 3
Layer: 4
EndChar
StartChar: wcircumflex
Encoding: 292 373 211
Width: 896
VWidth: 0
Flags: W
HStem: 0 21G<129 258.593 637.407 767> 1003 21G<8 139 381.474 514.526 757 888> 1388 20G<345.797 550.203>
VStem: 8 131<559.059 1024> 757 131<559.059 1024>
LayerCount: 5
Back
Fore
SplineSet
369 1408 m 1
 527 1408 l 1
 824 1152 l 1
 666 1152 l 1
 448 1316 l 1
 230 1152 l 1
 72 1152 l 1
 369 1408 l 1
386 1023 m 1
 510 1023 l 1
 694 210 l 1
 704 210 l 1
 752 461 757 741 757 1024 c 5
 888 1024 l 5
 888 681 847 340 767 2 c 1
 642 0 l 1
 453 823 l 1
 443 823 l 1
 254 0 l 1
 129 2 l 1
 49 340 8 681 8 1024 c 1
 139 1024 l 1
 139 741 144 461 192 210 c 1
 202 210 l 1
 386 1023 l 1
EndSplineSet
Layer: 2
Layer: 3
Layer: 4
EndChar
StartChar: Ycircumflex
Encoding: 293 374 212
Width: 896
VWidth: 0
Flags: W
HStem: 0 21G<384 512> 1408 21G<72 256.585 639.415 824>
VStem: 5 135<1065.04 1280> 384 128<0 488.285> 756 135<1065.04 1280>
CounterMasks: 1 38
LayerCount: 5
Back
Fore
SplineSet
369 1664 m 1
 527 1664 l 1
 824 1408 l 1
 666 1408 l 1
 448 1572 l 1
 230 1408 l 1
 72 1408 l 1
 369 1664 l 1
5 1280 m 5
 140 1280 l 5
 182 999 262 760 443 567 c 5
 453 567 l 5
 634 760 714 999 756 1280 c 5
 891 1280 l 5
 851 988 766 709 512 452 c 5
 512 0 l 5
 384 0 l 5
 384 452 l 5
 130 709 45 988 5 1280 c 5
EndSplineSet
Layer: 2
Layer: 3
Layer: 4
EndChar
StartChar: Ydieresis
Encoding: 376 376 214
Width: 896
VWidth: 0
Flags: W
HStem: 0 21G<384 512> 1456 224<133.032 314.968 581.032 762.968>
VStem: -25 135<1077.19 1280> 112 224<1477.03 1658.97> 384 128<0 488.285> 560 224<1477.03 1658.97> 786 135<1077.19 1280>
LayerCount: 5
Back
Fore
SplineSet
224 1680 m 0
 290 1680 336 1634 336 1568 c 0
 336 1502 290 1456 224 1456 c 0
 158 1456 112 1502 112 1568 c 0
 112 1634 158 1680 224 1680 c 0
672 1680 m 0
 738 1680 784 1634 784 1568 c 0
 784 1502 738 1456 672 1456 c 0
 606 1456 560 1502 560 1568 c 0
 560 1634 606 1680 672 1680 c 0
-25 1280 m 1
 110 1280 l 1
 156 999 244 760 443 567 c 1
 453 567 l 1
 652 760 740 999 786 1280 c 1
 921 1280 l 1
 878 988 786 709 512 452 c 1
 512 0 l 1
 384 0 l 1
 384 452 l 1
 110 709 18 988 -25 1280 c 1
EndSplineSet
Layer: 2
Layer: 3
Layer: 4
EndChar
StartChar: zacute
Encoding: 378 378 216
Width: 896
VWidth: 0
Flags: W
HStem: 0 120<273 768> 904 120<148 603>
VStem: 128 640<0 92>
LayerCount: 5
Back
Fore
SplineSet
360 1152 m 1
 498 1152 l 1
 664 1408 l 1
 526 1408 l 1
 360 1152 l 1
148 904 m 1
 148 1024 l 1
 748 1024 l 1
 748 934 l 1
 273 130 l 1
 273 120 l 1
 768 120 l 1
 768 0 l 1
 128 0 l 1
 128 92 l 1
 603 894 l 1
 603 904 l 1
 148 904 l 1
EndSplineSet
Layer: 2
Layer: 3
Layer: 4
EndChar
StartChar: Zdotaccent
Encoding: 379 379 217
Width: 896
VWidth: 0
Flags: W
HStem: 0 120<165 896> 1160 120<20 711> 1456 224<357.032 538.968>
VStem: 336 224<1477.03 1658.97>
LayerCount: 5
Back
Fore
SplineSet
448 1680 m 0
 514 1680 560 1634 560 1568 c 0
 560 1502 514 1456 448 1456 c 0
 382 1456 336 1502 336 1568 c 0
 336 1634 382 1680 448 1680 c 0
20 1160 m 1
 20 1280 l 1
 876 1280 l 1
 876 1190 l 1
 165 130 l 1
 165 120 l 1
 896 120 l 1
 896 0 l 1
 0 0 l 1
 0 92 l 1
 711 1150 l 1
 711 1160 l 1
 20 1160 l 1
EndSplineSet
Layer: 2
Layer: 3
Layer: 4
EndChar
StartChar: uni0237
Encoding: 567 567 293
Width: 896
VWidth: 0
Flags: W
HStem: -528 120<130.703 451.284> 898 126<256 512>
VStem: 512 128<-347.771 898>
LayerCount: 5
Back
Fore
SplineSet
128 -365 m 5
 183 -387 252 -408 320 -408 c 4
 387 -408 437 -384 469 -346 c 4
 512 -294 512 -230 512 -142 c 6
 512 898 l 5
 256 898 l 5
 256 1024 l 5
 640 1024 l 5
 640 -152 l 6
 640 -243 640 -338 572 -420 c 4
 520 -483 436 -528 330 -528 c 4
 255 -528 188 -513 128 -493 c 5
 128 -365 l 5
EndSplineSet
Layer: 2
Layer: 3
Layer: 4
EndChar
StartChar: gravecomb
Encoding: 768 768 294
Width: 896
VWidth: 0
Flags: W
HStem: 1280 256
VStem: 232 304
LayerCount: 5
Back
Fore
SplineSet
536 1280 m 5
 398 1280 l 5
 232 1536 l 5
 370 1536 l 5
 536 1280 l 5
EndSplineSet
Layer: 2
Layer: 3
Layer: 4
EndChar
StartChar: acutecomb
Encoding: 769 769 295
Width: 896
VWidth: 0
Flags: W
HStem: 1280 256
LayerCount: 5
Back
Fore
SplineSet
616 1280 m 5
 754 1280 l 5
 920 1536 l 5
 782 1536 l 5
 616 1280 l 5
EndSplineSet
Layer: 2
Layer: 3
Layer: 4
EndChar
StartChar: uni0302
Encoding: 770 770 297
Width: 896
VWidth: 0
Flags: W
HStem: 1280 256
LayerCount: 5
Back
Fore
SplineSet
369 1536 m 1
 527 1536 l 1
 824 1280 l 1
 666 1280 l 1
 448 1444 l 1
 230 1280 l 1
 72 1280 l 1
 369 1536 l 1
EndSplineSet
Layer: 2
Layer: 3
Layer: 4
EndChar
StartChar: uni0304
Encoding: 772 772 298
Width: 896
VWidth: 0
Flags: W
HStem: 1284 120<128 768>
VStem: 128 640<1284 1404>
LayerCount: 5
Back
Fore
SplineSet
128 1404 m 5
 768 1404 l 5
 768 1284 l 5
 128 1284 l 5
 128 1404 l 5
EndSplineSet
Layer: 2
Layer: 3
Layer: 4
EndChar
StartChar: uni0306
Encoding: 774 774 299
Width: 896
VWidth: 0
Flags: W
HStem: 1264 120<290.746 605.254> 1516 20G<108 236 660 788>
VStem: 108 128<1435.69 1536> 660 128<1435.69 1536>
LayerCount: 5
Back
Fore
SplineSet
660 1536 m 5
 788 1536 l 5
 788 1368 636 1264 448 1264 c 4
 260 1264 108 1368 108 1536 c 5
 236 1536 l 5
 236 1450 305 1384 448 1384 c 4
 591 1384 660 1450 660 1536 c 5
EndSplineSet
Layer: 2
Layer: 3
Layer: 4
EndChar
StartChar: uni0307
Encoding: 775 775 301
Width: 896
VWidth: 0
Flags: W
HStem: 1328 224<357.032 538.968>
VStem: 336 224<1349.03 1530.97>
LayerCount: 5
Back
Fore
SplineSet
448 1552 m 4
 514 1552 560 1506 560 1440 c 4
 560 1374 514 1328 448 1328 c 4
 382 1328 336 1374 336 1440 c 4
 336 1506 382 1552 448 1552 c 4
EndSplineSet
Layer: 2
Layer: 3
Layer: 4
EndChar
StartChar: uni030A
Encoding: 778 778 302
Width: 896
VWidth: 0
Flags: W
HStem: 1068 100<363.338 532.662> 1384 100<363.338 532.662>
VStem: 240 108<1181.57 1370.43> 548 108<1181.57 1370.43>
LayerCount: 5
Back
Fore
SplineSet
448 1384 m 4
 390 1384 348 1350 348 1276 c 4
 348 1202 390 1168 448 1168 c 4
 506 1168 548 1202 548 1276 c 4
 548 1350 506 1384 448 1384 c 4
448 1484 m 4
 571 1484 656 1390 656 1276 c 4
 656 1162 571 1068 448 1068 c 4
 325 1068 240 1162 240 1276 c 4
 240 1390 325 1484 448 1484 c 4
EndSplineSet
Layer: 2
Layer: 3
Layer: 4
EndChar
StartChar: uni030B
Encoding: 779 779 303
Width: 896
VWidth: 0
Flags: W
HStem: 1280 256
LayerCount: 5
Back
Fore
SplineSet
488 1280 m 5
 626 1280 l 5
 792 1536 l 5
 654 1536 l 5
 488 1280 l 5
744 1280 m 5
 882 1280 l 5
 1048 1536 l 5
 910 1536 l 5
 744 1280 l 5
EndSplineSet
Layer: 2
Layer: 3
Layer: 4
EndChar
StartChar: uni030C
Encoding: 780 780 304
Width: 896
VWidth: 0
Flags: W
LayerCount: 5
Back
Fore
SplineSet
369 1280 m 1
 527 1280 l 1
 824 1536 l 1
 666 1536 l 1
 448 1372 l 1
 230 1536 l 1
 72 1536 l 1
 369 1280 l 1
EndSplineSet
Layer: 2
Layer: 3
Layer: 4
EndChar
